<?xml version="1.0" encoding="UTF-8"?>
<svg width="61px" height="76px" viewBox="0 0 61 76" version="1.1" xmlns="http://www.w3.org/2000/svg" xmlns:xlink="http://www.w3.org/1999/xlink">
    <title>pikachu-seeklogo.com</title>
    <g id="Symbols" stroke="none" stroke-width="1" fill="none" fill-rule="evenodd">
        <g id="pikachu-seeklogo.com" transform="translate(-1.000000, 0.000000)" fill-rule="nonzero">
            <g transform="translate(1.000000, 0.000000)" id="Path">
                <path d="M35.9067384,63.5736865 C33.4727903,65.1285775 31.6999146,66.1873843 30.5881112,66.7501068 C29.731722,67.1943614 29.0180644,67.0462765 28.4471383,66.3058522 C27.8912366,65.5654279 27.8536757,65.0545351 28.3344556,64.7731739 C29.5213808,64.0623665 30.9787448,63.0331767 32.7065474,61.6856044 C34.3892769,60.3676492 35.5461535,59.3754806 36.177177,58.7090987 C35.080398,57.3911434 34.2615698,56.5100384 33.7206924,56.0657839 L35.5236169,54.7330201 L38.1153208,54 L37.6195166,55.5326783 C37.8298578,55.4142105 38.5059545,55.1550619 39.6478066,54.7552328 L39.4449776,56.7543785 L39.0393196,57.1542076 L41,59.9530115 C40.2487815,60.6638189 38.5510276,61.8707105 35.9067384,63.5736865" fill="#763A00"></path>
                <path d="M59.8864353,20.0403789 C59.8561514,24.5269192 59.8940063,27.8245264 60,29.9332004 C57.3955836,30.5014955 54.2309148,31.391326 50.5059937,32.6026919 C46.0694006,34.05334 42.6700315,35.4217348 40.3078864,36.7078764 L42.4201893,39.7362911 L45.1684543,43.3703888 C42.5488959,45.0902293 40.6485804,46.443669 39.4675079,47.4307079 L43.6466877,52.0518445 L38.9678233,56 L39.1722397,53.9810568 C38.0214511,54.3848455 37.3400631,54.6465603 37.1280757,54.7662014 L37.6277603,53.218345 L35.0157729,53.9586241 L37.2643533,52.0742772 C35.8410095,51.2068794 34.0845426,49.9805583 31.9949527,48.3953141 L36.8555205,42.9217348 L31.1545741,36.3713858 L24,28.4526421 C38.2031546,19.4047856 50.2031546,13.5872383 60,11 C59.9394322,13.557328 59.9015773,16.5707876 59.8864353,20.0403789" fill="#FFE100"></path>
                <path d="M35.5504587,54.8627451 L38.1422018,54 L38.4174312,54.0196078 L38.4633028,54.1960784 L37.9816514,55.2941176 L39.6100917,54.6666667 C39.8700306,54.5882353 40,54.6470588 40,54.8431373 C39.9847095,55.3660131 39.8776758,55.9869281 39.6788991,56.7058824 L39.2201835,57 L39.4495413,55.254902 C39.0672783,55.3333333 38.5015291,55.5098039 37.7522936,55.7843137 C37.4617737,55.875817 37.3547401,55.8039216 37.4311927,55.5686275 L37.8211009,54.5686275 C36.5825688,54.8954248 35.6422018,55.1568627 35,55.3529412 L35.5504587,54.8627451" fill="#763A00"></path>
                <path d="M35.7832618,63.7768116 L30,67 C31.2589413,66.2115942 33.037196,64.905314 35.3347639,63.0811594 L40.1738197,59 L41,60.0898551 C39.8197425,61.1565217 38.0808298,62.3855072 35.7832618,63.7768116" fill="#542400"></path>
                <path d="M50.3745743,33.1363636 C46.6515323,34.3939394 43.1933409,35.6818182 40,37 C41.8009837,35.7727273 44.8581158,34.1515152 49.1713961,32.1363636 C53.9084374,29.9242424 57.4877034,28.5454545 59.9091941,28 L60,30.3409091 C57.5936436,30.8560606 54.3851684,31.7878788 50.3745743,33.1363636" fill="#F9BE00"></path>
                <path d="M43.7380074,42 L45,43.7142857 L39,48 C41.3321033,44.8163265 42.9114391,42.8163265 43.7380074,42" fill="#F9BE00"></path>
                <path d="M43,52.4545455 L41.2083333,54.0227273 L39,56 L39.125,55.0909091 C40.4166667,52.969697 41.3333333,51.6060606 41.875,51 L43,52.4545455" fill="#F9BE00"></path>
                <polyline fill="#542400" points="38.8695652 56.1428571 38 57 39 55 38.8695652 56.1428571"></polyline>
                <path d="M60.9934787,11.2168092 C60.8869637,12.6622036 60.8489226,15.831532 60.8793555,20.7247943 L60.970654,30.7296338 L60.8108815,30.9328924 C57.5393494,31.6254772 54.0015298,32.6116578 50.1974227,33.8914341 C46.621562,35.1109856 43.6695748,36.3004248 41.3414613,37.4597516 C42.3153127,38.9202022 43.9130377,41.10335 46.1346362,44.009195 C46.2259348,44.1145884 46.2107184,44.2049255 46.088987,44.2802065 C43.6847913,45.8460504 41.8207788,47.1408829 40.4969495,48.164704 L44.5597359,52.7493144 C44.6510345,52.8396516 44.6434262,52.9299887 44.5369113,53.0203259 L41.5240584,55.4820132 C40.4741248,56.3402162 39.804602,56.9198796 39.5154898,57.2210034 L41.4099352,59.9988708 L41.3871106,60.247298 C40.7936698,60.8344894 39.4698406,61.7830295 37.4156227,63.0929182 C35.2396734,64.4630317 33.0028584,65.7503361 30.7051777,66.9548314 L30.2943342,67 C30.2486849,66.9096628 30.3323752,66.8042695 30.5454052,66.68382 C36.0385359,63.311233 39.3861502,61.0753885 40.5882481,59.9762865 L38.739452,57.2887563 C38.6785863,57.1984191 38.6861945,57.11561 38.7622766,57.0403291 L40.6795466,55.2110018 L43.532627,52.7718987 C41.828387,50.7393128 40.4893413,49.2412217 39.5154898,48.2776254 C39.4089748,48.1722321 39.4165831,48.0818949 39.5383145,48.006614 C41.3795023,46.5461634 43.2359066,45.2061623 45.1075273,43.9866107 C43.1750409,41.4270581 41.5925323,39.2288541 40.3600016,37.3919987 C40.2687031,37.2715492 40.2915277,37.181212 40.4284756,37.1209873 C42.8326713,35.9164919 45.8150912,34.6818842 49.3757355,33.4171641 C53.3167905,32.001882 56.9078676,30.9479486 60.1489669,30.2553638 C60.012019,28.2077217 59.9511533,25.0685057 59.9663697,20.8377158 C59.9815862,16.697263 60.0500601,13.7537775 60.1717915,12.0072592 C55.1655866,13.3623165 49.0942316,15.8240039 41.9577266,19.3923213 C35.2929309,22.7197397 29.7085017,25.9869334 25.2044388,29.1939022 C27.2738731,31.3921063 31.4659992,36.1649191 37.780817,43.5123407 C37.8568991,43.6026779 37.8568991,43.6854869 37.780817,43.7607679 L35.2929309,46.4934667 L33.0104667,49.0680755 C35.7189909,51.0856052 37.4004063,52.2976286 38.0547127,52.7041458 C38.1916606,52.794483 38.1992688,52.8998763 38.0775374,53.0203259 L34.3342959,56.091789 C35.0494681,56.79943 35.7950731,57.6726891 36.5711109,58.7115664 C36.6471931,58.8019035 36.6471931,58.8847126 36.5711109,58.9599935 C36.0233195,59.6074098 34.8516545,60.5935904 33.0561159,61.9185352 C31.2910102,63.2133677 29.7465427,64.2296607 28.4227135,64.9674141 L28.0575192,65.0125827 C27.9966535,64.9373017 28.049911,64.8394365 28.2172917,64.7189869 L32.4626752,61.5797709 C34.1060495,60.2999946 35.1864159,59.3665107 35.7037745,58.7793192 C34.8364381,57.665161 34.0604002,56.8144862 33.3756609,56.2272947 C33.2691459,56.1219014 33.2767542,56.0240361 33.3984856,55.933699 L37.1645516,52.8848201 C35.6885581,51.9212239 33.9843181,50.7317847 32.0518317,49.3165027 C31.9453167,49.2261655 31.9377085,49.1358284 32.029007,49.0454912 L36.822182,43.6026779 L30.3628081,36.1724472 L24.0632067,29.2164865 C23.9719081,29.1110932 23.9795163,29.0132279 24.0860313,28.9228908 C28.6509599,25.5804162 34.5625424,22.1250202 41.8207788,18.5567027 C49.2768287,14.8829919 55.5916466,12.3686078 60.7652322,11.0135506 C60.9478294,10.968382 61.0239115,11.0361349 60.9934787,11.2168092" fill="#0D131A"></path>
                <path d="M5,6.15553601 C4.13275019,6.6508225 3.37212945,7.79435161 2.71813779,9.58612333 C2.16366659,11.1011173 1.84377937,12.5724095 1.75847611,14 C1.10448445,11.9897195 0.599773489,9.37489821 0.244343237,6.15553601 C-0.125304224,2.86333757 -0.075543989,1.15168572 0.393623943,1.02058047 C0.848574664,0.889475227 1.54521796,1.38476172 2.48355382,2.50643995 C3.23706595,3.40960943 4.07588135,4.62597479 5,6.15553601" fill="#0D131A"></path>
                <path d="M41.3628225,4 C41.8648411,4.78815245 42.0702124,6.24549093 41.9789363,8.37201546 C41.8876602,10.2457364 41.6290445,11.8740891 41.2030893,13.2570736 C40.0773507,14.4318668 38.7386344,15.5917893 37.1869405,16.736841 C35.4374817,18.0454714 33.9466386,18.9154133 32.7144111,19.3466665 C34.1291908,20.4619766 35.2625358,21.7483009 36.1144462,23.2056394 C36.6773155,24.1573706 37.1717278,25.3247285 37.597683,26.707713 C38.3278919,28.9532039 38.3735299,31.3474028 37.7345972,33.8903098 C37.1717278,36.1209299 36.2817857,37.8385074 35.0647709,39.0430423 C32.2656369,41.6008201 28.6450178,43.1696896 24.2029138,43.7496508 C20.3997426,44.255258 16.7410918,43.995019 13.2269616,42.9689337 C11.7209057,42.4781973 10.3365514,41.5933847 9.07389854,40.3144958 C7.65911883,38.9017697 6.67029431,37.2511108 6.10742496,35.3625191 C5.5597683,33.5482814 5.44567316,31.6819959 5.76513955,29.7636625 C6.00854251,28.2468409 6.50295477,26.7969378 7.24837634,25.4139533 C6.30518987,24.3729972 5.24790826,22.5661949 4.07653151,19.9935464 C3.10291967,17.8075386 2.4107425,15.9635593 2,14.4616084 C2.07606343,12.2756007 2.51723129,10.3721382 3.3235036,8.75122089 C3.932011,7.53181521 4.60136914,6.66930876 5.33157802,6.16370153 C6.53338014,7.84410203 7.72757592,10.1713824 8.91416535,13.1455425 C10.1616055,16.2535399 10.8689954,18.7815761 11.0363349,20.729651 C13.2117489,18.7815761 15.9576385,17.4580748 19.2740039,16.7591472 C22.3013282,16.1197027 24.9559417,16.1345735 27.2378445,16.8037596 C28.7895384,14.3946898 31.1703236,11.7848643 34.3802001,8.9742829 C37.2858229,6.44624675 39.6133638,4.78815245 41.3628225,4" fill="#FFE100"></path>
                <path d="M15.7330001,41.3932599 C18.5987577,40.0003425 21.1378486,39.0567533 23.3502729,38.5624923 C25.1320911,38.1730746 27.5004244,37.9858545 30.455273,38.0008321 C33.365576,38.0008321 34.9172427,38.1880522 35.110273,38.5624923 C35.9417882,40.1650962 36.7733033,42.4267147 37.6048185,45.347348 C38.4957276,48.5226005 39.1490609,51.660409 39.5648185,54.7607735 C40.619061,62.7887705 39.7578488,67.8512014 36.9811821,69.9480663 C34.9469397,71.5057374 31.3907275,71.3334949 26.3125456,69.4313389 C24.0852729,68.6225481 22.4445153,68.0908431 21.3902729,67.8362238 C20.0390607,67.5216941 18.6507274,67.3943844 17.2252728,67.4542949 C15.7849698,67.5142053 14.5080001,67.3494516 13.3943637,66.9600338 C12.3846667,66.6155489 11.6570909,66.1587319 11.2116364,65.5895829 C10.2019394,64.2715535 9.82330303,62.047379 10.0757273,58.9170593 C10.2687576,56.5655751 10.7439091,54.1766469 11.5011818,51.7502747 L12.7707273,48.1107163 L14.018,44.7182885 C14.1813334,44.3138931 14.5154243,43.6399009 15.0202728,42.6963117 L15.7330001,41.3932599" fill="#FFE100"></path>
                <path d="M15.6482009,42.0318869 C16.1452239,41.8734185 16.5335232,42.3056052 16.8130986,43.3284471 C17.1082061,44.4089138 17.0538442,45.5325992 16.6500129,46.6995033 C16.2151178,47.9384385 15.3841574,49.1485613 14.1571318,50.3298716 C12.9456381,51.5111819 11.967124,52.0658215 11.2215894,51.9937904 C10.398395,52.0081966 9.59073259,51.8929469 8.79860212,51.6480411 C8.09966347,51.4175415 7.73466218,51.2014481 7.70359824,50.999761 C7.70359824,50.6972303 7.87444991,50.4307152 8.21615325,50.2002156 L7.37742687,48.7739995 C7.09785141,48.2553755 6.97359565,47.9528448 7.00465959,47.8664074 C7.08231944,47.7511576 7.38519286,47.7151421 7.91327983,47.7583607 C7.89774786,46.9083936 8.2394512,46.6562847 8.93838985,47.002034 C8.96945379,46.3249415 9.27232721,46.2313011 9.8470101,46.7211127 C10.3129692,46.0296139 10.934248,45.3309121 11.7108465,44.6250072 C12.3787212,44.0055396 13.015532,43.5013217 13.6212788,43.1123537 C14.1183018,42.6657608 14.7939425,42.3056052 15.6482009,42.0318869" fill="#FFE100"></path>
                <path d="M41.3244849,3.5262386 C42.931458,2.72375529 44.5770602,2.06244959 46.2612916,1.54232151 C48.3472662,0.903307017 49.5602219,0.829003006 49.9001585,1.31940948 C50.3328051,1.94356317 49.3593502,3.74172024 46.979794,6.71388067 C44.7856577,9.43340747 42.792393,11.5287806 41,13 C41.5562599,11.350451 41.873019,9.68604111 41.9502773,8.00677046 C42.0275357,6.238335 41.8189382,4.74482438 41.3244849,3.5262386" fill="#0D131A"></path>
                <path d="M7.04828273,66.425059 C7.83972125,65.7615395 8.69089099,65.2865198 9.60179194,65 C10.4380289,67.0056386 12.2374316,68.1441778 15,68.4156176 C13.6859134,69.0791372 12.1254355,69.5541568 10.3185665,69.8406766 C8.49676456,70.1121164 7.42906919,70.0367165 7.11548034,69.6144768 C6.50323544,69.7652767 6.14484818,69.6823367 6.04031857,69.365657 C5.95072175,69.1092971 6.01045296,68.8227773 6.2195122,68.5060976 C5.78646093,67.933058 6.06271777,67.2393784 7.04828273,66.425059" fill="#FFE100"></path>
                <path d="M33,71.4691781 C34.2434211,71.5171233 35.379386,71.293379 36.4078947,70.7979452 C37.375,70.3344749 38.058114,69.7351598 38.4572368,69 C39.2554825,70.3744292 39.7467105,71.6769406 39.9309211,72.9075342 C40.1151316,74.1700913 39.9309211,74.9691781 39.3782895,75.3047945 C39.3629386,75.7682648 39.1557018,76 38.7565789,76 C38.4035088,75.9840183 38.1118421,75.8321918 37.8815789,75.5445205 C37.6973684,76.0719178 36.9605263,75.8401826 35.6710526,74.8493151 C34.3508772,73.826484 33.4605263,72.6997717 33,71.4691781" fill="#FFE100"></path>
                <path d="M18,35.1259843 L19.5167286,34.0866142 C19.8141264,33.8503937 20.260223,33.6377953 20.8550186,33.4488189 L22.1040892,33.2125984 L24,33 C23.9553903,33.4566929 23.7918216,33.9133858 23.5092937,34.3700787 L21.0557621,34.511811 C20.2081784,34.8425197 19.6802974,35.3385827 19.472119,36 L18,35.1259843" fill="#B50005"></path>
                <path d="M20,35.737619 C20.2898551,35.1329409 20.8188406,34.6600516 21.5869565,34.3189511 C22.4275362,33.9468415 23.2318841,33.9003278 24,34.17941 C22.8115942,35.8539033 21.4782609,36.3733063 20,35.737619" fill="#E50012"></path>
                <path d="M7.08374223,51 C7.33845818,51.1374795 7.91156908,51.2119476 8.80307491,51.2234043 L11,51.0515548 L10.6656853,51.9967267 C9.79009923,52.0196399 8.92247301,51.9222586 8.06280667,51.7045827 C7.15538109,51.4754501 6.82902628,51.2405892 7.08374223,51" fill="#F9BE00"></path>
                <path d="M21.0002996,44.5952381 C20.9861201,44.3730159 21.4753133,44.1746032 22.4678792,44 L23.9992666,44.0952381 C24.0134461,44.2857143 23.8220227,44.484127 23.4249963,44.6904762 L22.4891484,45 L21.5745698,44.952381 C21.191723,44.8730159 21.0002996,44.7539683 21.0002996,44.5952381" fill="#F9BE00"></path>
                <path d="M9.07538836,61 C9.62515923,65.0905683 11.870057,66.9749874 15.8100816,66.6532573 C17.7953653,66.484732 19.7119276,66.6226163 21.5597686,67.0669102 C23.1479956,67.4499223 25.0645579,68.1623246 27.3094557,69.2041173 C29.8445103,70.3991147 32.349022,70.5369991 34.8229909,69.6177702 C37.9841735,68.4534137 39.7098432,65.6497658 40,61.2068265 C39.9694572,64.6845755 39.5113148,67.2354355 38.6255728,68.8594065 C37.2053314,71.5098496 34.5710126,72.4827001 30.7226165,71.777958 C29.4398178,71.5481508 27.0269345,70.8434087 23.4839667,69.6637317 C20.5823982,68.6985414 18.6811072,68.269568 17.7800939,68.3768113 C14.939611,68.7138619 12.7405275,68.3078692 11.1828434,67.1588331 C9.45717369,65.8872333 8.75468868,63.8342889 9.07538836,61" fill="#F9BE00"></path>
                <path d="M8,65.7589744 C8.07291667,65.6632479 8.37916667,65.5196581 8.91875,65.3282051 L9.903125,65 C10.1947917,65.7931624 10.9166667,66.4974359 12.06875,67.1128205 C13.11875,67.6735043 14.0958333,67.9538462 15,67.9538462 C14.08125,68.4188034 13.053125,68.7675214 11.915625,69 C10.559375,67.0991453 9.25416667,66.0188034 8,65.7589744" fill="#F9BE00"></path>
                <path d="M34.5447761,74 L33.6268657,72.8038278 C33.3283582,72.3253589 33.119403,71.8708134 33,71.4401914 C35.1791045,71.6794258 36.880597,70.8660287 38.1044776,69 C38.5970149,69.8133971 38.8955224,70.4035088 39,70.7703349 C38,70.8341308 37.0820896,71.1610845 36.2462687,71.7511962 C35.3955224,72.3413078 34.8283582,73.0909091 34.5447761,74" fill="#F9BE00"></path>
                <path d="M11.2721016,28.0927923 C12.0343341,27.892932 12.7641312,28.0159229 13.4614928,28.4617652 C14.1426368,28.9076075 14.6048416,29.5533101 14.8481073,30.398873 C15.1075907,31.2136881 15.034611,31.951634 14.6291681,32.6127104 C14.2561608,33.2276653 13.6804319,33.6504467 12.9019817,33.8810548 C12.1235315,34.096289 11.3531901,34.0194196 10.5909576,33.6504467 C9.84494284,33.2814738 9.36652031,32.7357014 9.15569004,32.0131294 C8.89620664,31.1675665 8.96107749,30.3681252 9.3503026,29.6148055 C9.73952771,28.8307381 10.3801274,28.3234004 11.2721016,28.0927923" fill="#0D131A"></path>
                <path d="M10.9270453,29 L12.1229807,29.037037 C12.4950495,29.1604938 12.7519541,29.3518519 12.8936946,29.6111111 C13.0354351,29.8950617 13.0354351,30.1666667 12.8936946,30.4259259 C12.7342366,30.6975309 12.4418968,30.8888889 12.0166754,31 L10.82074,30.962963 C10.4486712,30.8395062 10.2006253,30.6358025 10.0766024,30.3518519 C9.95257947,30.0555556 9.97915581,29.7777778 10.1563314,29.5185185 C10.3157895,29.2592593 10.5726941,29.0864198 10.9270453,29" fill="#FFFFFF"></path>
                <path d="M27.0009,23.1452799 C27.8337193,22.8870045 28.6442309,22.9730963 29.4324348,23.4035553 C30.2503823,23.8340142 30.7485867,24.486877 30.9270479,25.3621435 C31.0906374,26.0939238 30.9790991,26.7970067 30.592433,27.4713924 C30.2206387,28.1457781 29.6852549,28.59776 28.9862816,28.8273381 C28.1683341,29.0999621 27.3875661,29.0497419 26.6439775,28.6766775 C25.9301324,28.3179617 25.4467998,27.779888 25.1939796,27.0624564 C24.8965442,26.1728412 24.9411595,25.3477949 25.3278256,24.5873174 C25.6847481,23.8555372 26.2424396,23.374858 27.0009,23.1452799" fill="#0D131A"></path>
                <path d="M26.9009146,23.1265823 C27.2809959,22.9578059 27.6697154,22.9578059 28.0670732,23.1265823 C28.4644309,23.278481 28.7408537,23.5485232 28.8963415,23.9367089 C29.0345528,24.2911392 29.0345528,24.6624473 28.8963415,25.0506329 C28.7581301,25.4725738 28.4903455,25.7510549 28.0929878,25.8860759 C27.6783537,26.0379747 27.2896341,26.0379747 26.9268293,25.8860759 C26.546748,25.7341772 26.2789634,25.4725738 26.1234756,25.1012658 C25.9679878,24.7299578 25.9593496,24.350211 26.097561,23.9620253 C26.2357724,23.5738397 26.5035569,23.2953586 26.9009146,23.1265823" fill="#FFFFFF"></path>
                <path d="M20.0010101,32.0136364 C19.9855219,32.0015152 20.1481481,31.9863636 20.4888889,31.9681818 L21,31.95 L20.8606061,32.0090909 L20.5585859,32.05 L20.2333333,32.0454545 L20.0010101,32.0136364" fill="#0D131A"></path>
                <path d="M35.711528,28.1683601 C36.3083215,28.4073899 36.7009488,29.036835 36.88941,30.0566953 C37.0935762,31.0765557 37.0150507,32.0725131 36.6538336,33.0445675 C36.2612062,34.1441045 35.6487076,34.9647734 34.8163377,35.5065742 C33.9839677,36.0483751 33.2144181,36.143987 32.507689,35.79341 C31.8009598,35.4587683 31.3376595,34.8133879 31.1177882,33.8572688 C30.8822118,32.8533437 31,31.8334833 31.4711528,30.7976876 C31.9737158,29.6981507 32.6411822,28.9013848 33.4735522,28.4073899 C34.2588068,27.961201 35.0047988,27.8815244 35.711528,28.1683601" fill="#E50012"></path>
                <path d="M11.4865257,37.8821683 C12.1776899,38.6650499 12.6410841,39.4409415 12.8767083,40.2098431 C13.1123324,41.0206847 13.0102286,41.5659058 12.5703969,41.8455064 C12.1462734,42.111127 11.5415047,42.0342368 10.7560908,41.6148359 C10.0806349,41.2653352 9.35805412,40.7131241 8.58834852,39.9582026 C7.91289259,39.2731812 7.44164426,38.5671897 7.17460355,37.8402282 C6.90756283,37.0992867 6.94683352,36.5750357 7.29241563,36.267475 C7.71653912,35.9179743 8.3605785,35.9109843 9.22453376,36.246505 C10.0570725,36.5680456 10.8110698,37.1132668 11.4865257,37.8821683" fill="#E50012"></path>
                <path d="M2.2540191,0.890335362 C3.99019397,2.63789444 5.67573041,5.20557993 7.31062841,8.59339182 C9.24935701,12.6250413 10.4791475,16.649026 11,20.665346 L10.5659563,21.0792415 C9.9727632,17.0475921 8.65616393,12.94696 6.61615846,8.77734541 C5.0680692,5.58881657 3.51274588,3.08244894 1.9501885,1.25824254 C1.50167666,0.767699637 1.17614387,0.53009292 0.973590139,0.545422386 C0.713163909,0.576081317 0.575716732,0.982312155 0.561248608,1.7641149 C0.488907989,4.43144191 1.00252639,8.01853686 2.1021038,12.5253997 C3.4331712,17.9826895 5.15487795,22.2826046 7.26722403,25.425145 L7.05020218,26 C4.74977048,22.8574596 2.90508468,18.5728739 1.51614479,13.1462431 C0.300822378,8.3787793 -0.183859772,4.56174237 0.0620983338,1.69513231 C0.134438953,0.683387576 0.358694874,0.123862082 0.734866095,0.0165558228 C1.08210107,-0.0754209707 1.5884854,0.215838876 2.2540191,0.890335362" fill="#0D131A"></path>
                <path d="M2.51533742,15 L2,13.8610422 C2.14723926,12.0595533 2.5398773,10.4739454 3.17791411,9.10421836 C3.799591,7.74937965 4.61758691,6.7146402 5.63190184,6 L6,6.46898263 C4.93660532,7.22828784 4.10224949,8.382134 3.49693252,9.93052109 C2.90797546,11.4193548 2.5807771,13.1091811 2.51533742,15" fill="#0D131A"></path>
                <path d="M42.2867905,11.3028786 C45.3878036,8.15072412 47.6232427,5.40908278 48.9931077,3.07795459 C49.4296581,2.3448954 49.5651393,1.86840694 49.3995512,1.64848918 L47.7060367,1.60450563 C45.0716809,2.10298588 42.1136757,3.40783122 38.832021,5.51904166 C34.4665171,8.31932773 30.6956249,11.9333095 27.5193444,16.3609869 L27,16.2070445 C30.3418685,11.4128375 34.1579211,7.64491328 38.4481577,4.90327195 C41.6545451,2.85070624 44.6953444,1.58984445 47.5705556,1.12068657 C48.8651533,0.900768818 49.6404066,0.981405328 49.8963154,1.3625961 C50.1221174,1.71446451 49.9791095,2.36688718 49.4672918,3.31986412 C48.0372129,5.9295548 45.7490867,8.80314679 42.6029132,11.9406401 C39.0502962,15.4739853 35.8288554,17.8271053 32.9385907,19 L32.4644066,18.6701234 C35.3095109,17.4972287 38.5836389,15.0414804 42.2867905,11.3028786" fill="#0D131A"></path>
                <path d="M41.0224936,12.2889908 L40,13 C40.8290488,10.8440367 41.2527849,8.76452599 41.2712082,6.76146789 C41.2712082,5.09480122 41.0501285,3.94801223 40.6079692,3.32110092 L41.1606684,3 C41.6396744,3.68807339 41.916024,4.79663609 41.9897172,6.32568807 C42.0634105,8.22171254 41.7410026,10.2094801 41.0224936,12.2889908" fill="#0D131A"></path>
                <path d="M35.7301889,41.5978453 C35.6247741,41.2499022 35.6247741,41.0532388 35.7301889,41.0078549 C35.850663,40.962471 35.9711371,41.1137506 36.0916112,41.4616937 C38.7269819,48.7987537 40.029608,55.3642879 39.9994895,61.1582961 C39.9543117,67.0128162 38.5387412,70.4846828 35.7527778,71.5738958 C34.2317924,72.1638862 32.0557291,72.1411943 29.224588,71.50582 C27.5078322,71.127621 25.2564726,70.4241709 22.4705093,69.3954697 C21.3109462,68.9718869 20.4224497,68.6920197 19.80502,68.555868 L17.0039974,68.3516406 L13.4575414,68.1247212 C12.1022078,67.822162 10.9878225,67.1792238 10.1143853,66.1959064 C9,64.9705418 8.72140366,62.3307129 9.27859634,58.27642 C9.83578901,54.1313592 11.1082966,49.8350189 13.0961191,45.387399 C13.2316524,45.0848398 13.3596562,44.9562522 13.4801303,45.001636 C13.5855451,45.0470199 13.5704858,45.2209915 13.4349525,45.5235506 C11.6127818,50.0014265 10.4381595,54.214563 9.91108531,58.1629603 C9.41412969,62.0357177 9.67766676,64.5469589 10.7016965,65.6966838 C11.5299559,66.6346172 12.5313968,67.2397356 13.7060192,67.5120389 L17.0039974,67.7616502 L20.0760867,67.9658776 C20.6935164,68.0869013 21.559424,68.3667685 22.6738093,68.8054793 C28.7125731,71.1049291 32.9743441,71.7781233 35.4591222,70.8250619 C38.0041374,69.8568725 39.2540561,66.5060296 39.2088783,60.7725332 C39.1787598,55.326468 38.0191966,48.9349054 35.7301889,41.5978453" fill="#0D131A"></path>
                <path d="M13.282596,43 L14,43.2128163 C12.2848273,44.3478364 10.7758052,45.8296682 9.47293364,47.6583117 C9.29152115,47.9263025 9.15133877,48.0366517 9.0523865,47.9893592 C8.95343423,47.9263025 8.99466434,47.7607787 9.17607683,47.4927879 C10.3635041,45.5537952 11.7323438,44.0561993 13.282596,43" fill="#0D131A"></path>
                <path d="M17.1371977,35.7439497 C17.0050814,35.6499312 16.9683824,35.5637476 17.0271008,35.4853989 L17.3353722,35.4618943 C17.878517,35.6812707 18.6932342,35.3757107 19.7795239,34.5452142 C20.4107462,34.0594522 20.9612308,33.7382224 21.4309777,33.5815249 C21.9007246,33.4091578 22.5686459,33.3073044 23.4347417,33.2759649 L24.9100405,33.0409188 C25.3063894,32.8842213 25.5559424,32.6178356 25.6586995,32.2417618 C25.7320975,32.0537248 25.8128352,31.9753761 25.9009128,32.0067156 C25.9889903,32.0223853 26.0183495,32.1320736 25.9889903,32.3357802 C25.8128352,33.2916347 24.961419,33.8009014 23.4347417,33.8635803 L21.5851134,34.1456357 C21.1447257,34.3023332 20.6382799,34.6000583 20.0657759,35.0388112 C18.8033311,36.0103354 17.8271384,36.2453815 17.1371977,35.7439497" fill="#0D131A"></path>
                <path d="M18.5185185,34.7755102 C19.7755331,35.6190476 20.9382716,35.877551 22.006734,35.5510204 C22.5723906,35.3741497 23.0673401,35.0612245 23.4915825,34.6122449 C23.9158249,34.1632653 24.2065095,33.6598639 24.3636364,33.1020408 L25,33 C24.8900112,33.6394558 24.5600449,34.2312925 24.010101,34.7755102 C23.4915825,35.292517 22.8787879,35.6666667 22.1717172,35.8979592 L20.1447811,36 C19.4062851,35.8639456 18.691358,35.5578231 18,35.0816327 L18.5185185,34.7755102" fill="#0D131A"></path>
                <path d="M6.52437574,66.1538462 C7.19896948,65.2747253 8.29151803,64.5567766 9.8020214,64 L10,64.5274725 C8.70947285,65.040293 7.74891003,65.6190476 7.11831153,66.2637363 C6.57570353,66.8351648 6.41438763,67.2600733 6.63436385,67.5384615 L6.30439952,68 C5.83511692,67.5750916 5.90844233,66.959707 6.52437574,66.1538462" fill="#0D131A"></path>
                <path d="M8.55283944,66.0758123 C8.7861406,65.9747292 8.92778774,65.9747292 8.97778084,66.0758123 C9.04443832,66.1624549 8.96111647,66.2635379 8.72781531,66.3790614 C8.16122678,66.66787 7.66962791,67.0144404 7.25301869,67.4187726 C6.80308074,67.8375451 6.62810487,68.1552347 6.72809108,68.3718412 L7.57797388,68.4368231 L7.80294286,68.9133574 L6.77808419,69 C6.37813934,68.9566787 6.136506,68.833935 6.05318416,68.631769 C5.88654047,68.2418773 6.11150945,67.765343 6.72809108,67.2021661 C7.27801525,66.6967509 7.8862647,66.3212996 8.55283944,66.0758123" fill="#0D131A"></path>
                <path d="M15.0704657,67.7956136 L16,67.9496034 C14.3223039,68.8906517 12.4405637,69.5237206 10.3547794,69.8488101 C8.29922386,70.1567895 7.18831699,69.9942448 7.02205882,69.3611759 C6.93137255,69.0360865 7.12030229,68.6254472 7.58884804,68.129258 C8.08762255,67.581739 8.66952614,67.2138746 9.33455882,67.025665 C9.54616013,66.974335 9.66707516,67 9.69730392,67.1026598 C9.72753268,67.2224296 9.64440359,67.3250894 9.44791667,67.4106393 C8.94914216,67.6330689 8.51838235,67.9153834 8.15563725,68.2575828 C7.80800654,68.5997822 7.65686275,68.8735418 7.70220588,69.0788614 C7.7626634,69.3697309 8.51838235,69.4381708 9.96936275,69.2841811 C11.6621732,69.0959714 13.3625408,68.5997822 15.0704657,67.7956136" fill="#0D131A"></path>
                <path d="M33,72.0405922 L33.6136754,72 C33.9945774,72.9877436 34.6999515,73.8672413 35.7297976,74.6384931 C36.6467839,75.3285605 37.2392982,75.5991752 37.5073403,75.4503371 C37.6343076,75.3691527 37.6131464,75.1053034 37.4438566,74.6587892 C37.2886743,74.212275 37.0417934,73.7251686 36.7032139,73.1974699 C36.6044615,73.0621626 36.5974078,72.9674475 36.6820526,72.9133245 C36.75259,72.8727323 36.8442887,72.9133245 36.9571485,73.0351011 C37.3944804,73.5357383 37.704845,74.1040291 37.8882423,74.7399736 C38.0716396,75.4029795 38.0293171,75.8021362 37.761275,75.9374435 C37.352158,76.1404045 36.5974078,75.8494938 35.4970242,75.0647112 C34.2696733,74.1852135 33.4373319,73.1771738 33,72.0405922" fill="#0D131A"></path>
                <path d="M37.7246062,72.3869191 C37.6246605,72.1812966 37.6329893,72.0564544 37.7495926,72.0123924 C37.8495383,71.9683305 37.9578128,72.0417671 38.0744161,72.2327022 C38.6574326,73.2020654 38.9655984,74.0612737 38.9989136,74.810327 C39.0155712,75.4565691 38.8406663,75.8457831 38.4741988,75.977969 L37.7995655,76 C37.4997284,75.9412507 37.2332066,75.8017212 37,75.5814114 L37.2498642,75.0967298 C37.6663045,75.4639128 37.9994568,75.5960987 38.249321,75.4932874 C38.4492124,75.4051635 38.5158428,75.0967298 38.4492124,74.5679862 C38.3659243,73.9804934 38.1243889,73.253471 37.7246062,72.3869191" fill="#0D131A"></path>
                <path d="M38,69.5220339 L38.4124386,69 C39.2525914,70.439548 39.7643208,71.8474576 39.9476268,73.2237288 C40.1309329,74.7265537 39.8330606,75.6519774 39.0540098,76 L39.1227496,75.3355932 C39.5046372,74.9559322 39.5810147,74.180791 39.3518822,73.0101695 C39.1227496,71.8711864 38.6721222,70.7084746 38,69.5220339" fill="#0D131A"></path>
                <path d="M24,34.1499268 L23.8163265,34.5610542 C23.2176871,34.347877 22.5578231,34.3935578 21.8367347,34.6980966 C21.1156463,35.0026354 20.6394558,35.4366032 20.4081633,36 L20,35.8629575 C20.2857143,35.1777452 20.8231293,34.6600293 21.6122449,34.3098097 C22.4013605,33.95959 23.1972789,33.9062958 24,34.1499268" fill="#0D131A"></path>
                <path d="M7.48416431,24.2899864 C7.64716326,24.0483311 7.78052604,23.9577103 7.88425264,24.0181242 C7.98797925,24.0936414 7.96575212,24.2522278 7.81757125,24.4938831 C6.80994137,26.2458843 6.17276365,28.0582994 5.90603809,29.9311282 C5.63931253,31.8190606 5.75785722,33.6918894 6.26167217,35.5496149 C6.80994137,37.5734783 7.79534412,39.2801692 9.21788043,40.6696874 C10.6255987,42.0289986 12.3667238,43.0031717 14.4412559,43.5922066 C14.8413443,43.7130343 15.0265704,43.8263102 14.9969342,43.9320344 L14.3523474,44 C12.218543,43.5771032 10.344055,42.6180335 8.72888358,41.1227911 C7.11371214,39.6275487 6.02458278,37.8377889 5.46149549,35.7535116 C4.94286246,33.8504758 4.86136299,31.8870261 5.21699706,29.8631627 C5.57263114,27.8241957 6.32835356,25.9664703 7.48416431,24.2899864" fill="#0D131A"></path>
                <path d="M22.2770224,16.0087359 C24.2718635,15.9446725 26.0598323,16.2329579 27.6409286,16.873592 C27.9069074,16.985703 28.0251202,17.097814 27.995567,17.209925 L27.5301041,17.2579725 C24.1019326,16.2329579 20.4668887,16.441164 16.6249725,17.8825908 C14.1868333,18.7794787 12.1328857,20.0767629 10.4631298,21.7744434 C10.2562574,21.9826495 10.1158797,22.0467129 10.0419967,21.9666336 C9.95333705,21.8705385 10.0050552,21.71038 10.197151,21.486158 C11.7634707,19.5642555 13.8321948,18.1228287 16.4033234,17.1618774 C18.3686114,16.441164 20.326511,16.0567835 22.2770224,16.0087359" fill="#0D131A"></path>
                <path d="M37.2190254,25.1813364 C37.9628107,27.2658173 38.1753208,29.5452495 37.8565557,32.0196333 C37.4922526,34.8239348 36.4904193,37.0733746 34.8510557,38.7679525 C34.6537248,38.9779002 34.5171112,39.0453834 34.4412147,38.9704021 C34.350139,38.8954208 34.3880872,38.7454581 34.5550594,38.5205142 C35.981913,36.6759736 36.8471327,34.4565263 37.1507186,31.8621725 C37.4239458,29.5227551 37.2038461,27.3707911 36.4904193,25.4062804 C35.4430481,22.4520162 33.7126087,20.1350932 31.2991011,18.4555116 C31.0410531,18.2755564 30.9499773,18.14059 31.0258738,18.0506124 C31.086591,17.9606348 31.2535632,17.9906273 31.5267905,18.14059 C32.8018511,18.875407 33.9402981,19.8576623 34.9421314,21.0873561 C35.9287855,22.3170498 36.6877501,23.6817099 37.2190254,25.1813364" fill="#0D131A"></path>
                <path d="M9.80882471,46.3036145 L9.56237465,46.6289157 C9.39807461,46.4987952 9.28169541,46.4481928 9.21323706,46.4771084 L9.13108704,46.7373494 L9.00786201,47.0192771 L8.69979944,46.9325301 L8.39173686,46.8674699 C8.29589517,46.9108434 8.24112849,47.0554217 8.22743682,47.3012048 L8.1452868,47.713253 L7.77561171,47.713253 L7.46754914,47.7783133 C7.41278246,47.8650602 7.57023666,48.2481928 7.93991175,48.9277108 L8.51496189,49.9903614 L8.28904934,50.2939759 C8.1247493,50.4674699 8.04944511,50.6120482 8.06313678,50.7277108 C8.09052012,50.9012048 8.48073272,51.0819277 9.23377457,51.2698795 L11,51.4650602 L10.8973125,51.9855422 C10.3085707,52.0433735 9.61714133,51.9277108 8.82302447,51.6385542 C8.02890761,51.3638554 7.60446584,51.0891566 7.54969916,50.8144578 C7.50862415,50.5542169 7.67292419,50.2722892 8.04259928,49.9686747 C7.26217409,48.5951807 6.91988234,47.7855422 7.01572403,47.539759 C7.05679904,47.4385542 7.18002407,47.373494 7.38539912,47.3445783 L7.89883674,47.3879518 C7.8714534,47.2 7.88514507,47.0120482 7.93991175,46.8240964 C7.98098676,46.6361446 8.04944511,46.513253 8.1452868,46.4554217 L8.45334938,46.4120482 C8.59026608,46.4409639 8.70664527,46.4915663 8.80248696,46.5638554 C8.8298703,46.2313253 8.92571199,46.0433735 9.09001203,46 L9.43914962,46.0650602 L9.80882471,46.3036145" fill="#0D131A"></path>
                <path d="M42.7150617,44.7432432 C41.1816981,46.6872587 39.3051532,48.0466078 37.0854269,48.8212907 C35.5520633,49.3474903 33.8361565,48.7116657 31.9377063,46.9138169 C30.0246528,45.1013514 29.528135,43.5519857 30.4481532,42.2657198 C31.3827748,40.9648373 32.653276,39.6785714 34.2596569,38.4069222 C36.1289001,36.9160232 37.8886173,35.9440154 39.5388086,35.4908991 C40.1375505,34.5408163 40.5245423,34.04385 40.6997839,34 L41.3350345,34.1315499 C41.6417072,34.2777165 41.9118712,34.533508 42.1455266,34.8989244 C42.9195102,35.001241 43.5693642,35.3593491 44.0950889,35.9732488 C44.6500205,36.601765 44.9493914,37.3764479 44.9932018,38.2972973 C45.0808226,40.5482625 44.3214426,42.6969112 42.7150617,44.7432432" fill="#FFE100"></path>
                <path d="M44.6407069,37 C45.4533937,39.3141762 44.8874154,41.8505747 42.942772,44.6091954 C41.1142268,47.2298851 39.1333028,48.6934866 37,49 C38.9736679,48.0344828 40.7731886,46.2643678 42.3985621,43.6896552 C44.0094234,41.1302682 44.756805,38.9003831 44.6407069,37" fill="#F9BE00"></path>
                <path d="M41.1592042,33.1551139 C41.4794207,33.3102278 41.7486937,33.5739215 41.9670232,33.9461949 C43.8009907,34.1788657 44.8053062,35.5361125 44.9799698,38.017935 C45.1255227,40.0964615 44.477812,42.198255 43.0368375,44.3233156 C41.4648654,46.6034901 39.4344014,48.1623849 36.9454455,49 L36.4869536,48.9534658 C36.4432878,48.8293747 36.5524525,48.7130393 36.8144478,48.6044595 C39.070519,47.6892874 40.9408747,46.1691711 42.4255151,44.0441105 C43.8664895,41.9810955 44.5287555,39.9956374 44.4123132,38.0877363 C44.2667602,36.0092099 43.4516635,34.78381 41.9670232,34.4115366 C41.7778043,34.3960252 41.6540843,34.3184683 41.5958631,34.1788657 C41.493976,33.9772176 41.3120348,33.814348 41.0500394,33.6902569 L40.3732181,33.5739215 C40.2422204,33.6204556 40.0675568,33.8376151 39.8492274,34.2253999 C39.6308979,34.6442075 39.4562343,34.8768783 39.3252367,34.9234125 C37.6222669,35.6369365 36.1230712,36.4823073 34.8276497,37.459525 C33.3138988,38.6073679 31.858369,40.0731944 30.4610605,41.8570044 C30.2863969,42.0741638 30.1481216,42.1439651 30.0462345,42.0664081 C29.9589027,41.9888512 29.9952909,41.8259816 30.1553992,41.5777993 C31.6837055,39.4682501 33.2920658,37.8085313 34.9804803,36.5986428 C36.18857,35.7300048 37.5349351,35.0397479 39.0195754,34.527872 L39.5653991,33.7833253 C39.8273944,33.3334949 40.0675568,33.0853127 40.2858863,33.0387785 C40.562437,32.9612215 40.8535429,33 41.1592042,33.1551139" fill="#0D131A"></path>
                <path d="M40.4777595,35.0664207 L40.8336079,35 C40.8995058,35.0442804 40.8665568,35.1476015 40.7347611,35.3099631 C40.5897858,35.501845 40.5172982,35.6273063 40.5172982,35.6863469 C40.5172982,35.7896679 40.5568369,35.9077491 40.6359143,36.0405904 L40.7545305,36.3062731 L40.5963756,36.5498155 C40.490939,36.6826568 40.4382208,36.8302583 40.4382208,36.9926199 C40.4382208,37.1845018 40.490939,37.3690037 40.5963756,37.5461255 L40.7545305,37.8782288 L40.6556837,38.1439114 C40.5766063,38.2915129 40.5436573,38.4243542 40.5568369,38.5424354 C40.5700165,38.6605166 40.6490939,38.8081181 40.7940692,38.9852399 L41.0313015,39.3173432 L40.9324547,39.6494465 C40.8797364,39.8265683 40.8665568,39.9889299 40.892916,40.1365314 L41.2092257,40.4464945 L41.7429984,40.6457565 C41.9143328,40.6605166 42,40.7195572 42,40.8228782 L41.7825371,41 L41.0510708,40.8671587 C40.7611203,40.7343173 40.583196,40.5571956 40.5172982,40.3357934 C40.4777595,40.2177122 40.4711697,40.0627306 40.4975288,39.8708487 C40.523888,39.6642066 40.583196,39.501845 40.675453,39.3837638 L40.339374,39.0738007 C40.2339374,38.9261993 40.1746293,38.7785978 40.1614498,38.6309963 C40.1087315,38.3653137 40.2009885,38.1143911 40.4382208,37.8782288 C40.1878089,37.6420664 40.0428336,37.3690037 40.0032949,37.0590406 C39.9769357,36.7343173 40.1087315,36.4612546 40.398682,36.2398524 C40.2273476,36.0922509 40.1416804,35.8929889 40.1416804,35.6420664 C40.1285008,35.5387454 40.1614498,35.4280443 40.2405272,35.3099631 L40.4777595,35.0664207" fill="#0D131A"></path>
                <path d="M7.48416431,24.2899864 C7.64716326,24.0483311 7.78052604,23.9577103 7.88425264,24.0181242 C7.98797925,24.0936414 7.96575212,24.2522278 7.81757125,24.4938831 C6.80994137,26.2458843 6.17276365,28.0582994 5.90603809,29.9311282 C5.63931253,31.8190606 5.75785722,33.6918894 6.26167217,35.5496149 C6.80994137,37.5734783 7.79534412,39.2801692 9.21788043,40.6696874 C10.6255987,42.0289986 12.3667238,43.0031717 14.4412559,43.5922066 C14.8413443,43.7130343 15.0265704,43.8263102 14.9969342,43.9320344 L14.3523474,44 C12.218543,43.5771032 10.344055,42.6180335 8.72888358,41.1227911 C7.11371214,39.6275487 6.02458278,37.8377889 5.46149549,35.7535116 C4.94286246,33.8504758 4.86136299,31.8870261 5.21699706,29.8631627 C5.57263114,27.8241957 6.32835356,25.9664703 7.48416431,24.2899864" fill="#0D131A"></path>
            </g>
        </g>
    </g>
</svg>