<svg width="64px" height="88px" viewBox="0 0 64 88" version="1.1" xmlns="http://www.w3.org/2000/svg" xmlns:xlink="http://www.w3.org/1999/xlink">
    <title>mewtwo-seeklogo.com copy</title>
    <g id="PokeGoals" stroke="none" stroke-width="1" fill="none" fill-rule="evenodd">
        <g id="Start-1" transform="translate(-33.000000, -252.000000)" fill-rule="nonzero">
            <g id="USP-group" transform="translate(28.000000, 246.000000)">
                <g id="Group-4" transform="translate(5.000000, 0.000000)">
                    <g id="Group" transform="translate(0.000000, 6.000000)">
                        <g id="mewtwo-seeklogo.com" transform="translate(0.210476, 0.006438)">
                            <path d="M37.000524,17.2233696 C37.1769128,17.0964465 37.4026906,17.0541388 37.6778573,17.0964465 C37.9459684,17.1317029 38.1823295,17.2339465 38.3869406,17.4031773 C38.9090517,17.8333055 38.9302184,18.3515747 38.4504406,18.9579849 C37.9706628,19.5643952 37.7272462,20.1284978 37.7201906,20.6502926 C37.7131351,21.0381132 37.8648295,21.6057414 38.175274,22.3531773 C38.4645517,23.0230491 38.365774,23.3685619 37.8789406,23.3897157 C37.3850517,23.4108696 36.8841073,23.0653567 36.3761073,22.3531773 C35.8681073,21.6409978 35.6952462,20.7067029 35.857524,19.5502926 C36.0127462,18.4291388 36.3937462,17.6534978 37.000524,17.2233696" id="Path" fill="#E6D4E7"></path>
                            <path d="M47.4991906,39.5935619 C48.9808573,40.5595875 50.2367462,42.0121516 51.2668573,43.9512542 C52.3604684,46.0313824 53.0413295,48.4041388 53.3094406,51.0695234 C53.5634406,53.6643952 53.3482462,56.0442029 52.6638573,58.2089465 C52.1629128,59.8095875 51.4432462,61.1916388 50.5048573,62.3551003 C49.8769128,63.1448439 49.510024,64.2730491 49.4041906,65.7397157 C49.3336351,66.6493311 49.3653851,67.6365106 49.4994406,68.7012542 C49.5911628,69.371126 49.9686351,70.0057414 50.6318573,70.6051003 C50.9281906,70.8730491 51.6196351,71.3701644 52.7061906,72.0964465 L55.9976073,74.1377926 L58.749274,75.7243311 C59.511274,75.3012542 60.2591628,75.3012542 60.9929406,75.7243311 C61.6984962,76.1333055 62.0371628,76.6938824 62.0089406,77.4060619 C61.9807184,78.1887542 61.6138295,78.721126 60.908274,79.0031773 C60.3932184,79.2147157 59.797024,79.2746516 59.1196906,79.1829849 C59.0491351,79.6554208 58.7386906,80.0256132 58.1883573,80.2935619 C57.5604128,80.6038183 56.6996351,80.7307414 55.606024,80.6743311 C54.6041351,80.6249721 53.7363017,80.4557414 53.002524,80.1666388 C52.304024,79.8916388 51.7995517,79.5355491 51.4891073,79.0983696 C50.9669962,78.3650362 50.3178851,77.5788183 49.541774,76.7397157 C48.4693295,75.5762542 47.7038017,74.9663183 47.2451906,74.909908 C46.4761351,75.2131132 45.8199684,75.2906773 45.2766906,75.1426003 C44.7969128,75.008626 44.3735795,74.6807414 44.0066906,74.1589465 C43.8161906,73.8980491 43.7350517,73.5313824 43.763274,73.0589465 C43.7914962,72.5371516 43.9643573,72.1317029 44.2818573,71.8426003 C44.2818573,71.5182414 44.4194406,71.0563824 44.6946073,70.4570234 L45.4248573,68.7647157 C45.7917462,67.6647157 45.8799406,66.4977285 45.6894406,65.2637542 C45.4707184,63.8887542 44.9450795,62.8627926 44.112524,62.1858696 C43.477524,61.6640747 43.1141628,60.0740106 43.0224406,57.4156773 C42.937774,54.9618311 43.0929962,52.2259337 43.4881073,49.2079849 C43.8973295,46.1054208 44.4406073,43.6515747 45.1179406,41.8464465 C45.8869962,39.808626 46.6807462,39.0576644 47.4991906,39.5935619" id="Path" fill="#E6D4E7"></path>
                            <path d="M47.8801906,73.2070234 C47.9578017,73.7781773 47.7461351,74.3458055 47.2451906,74.909908 L44.2818573,71.8426003 C44.620524,71.4900362 45.0720795,71.3313824 45.636524,71.3666388 C46.1727462,71.3948439 46.6595795,71.5817029 47.097024,71.9272157 C47.5556351,72.2868311 47.8166906,72.7134337 47.8801906,73.2070234" id="Path" fill="#E6D4E7"></path>
                            <path d="M48.8856073,28.8156773 C49.0690517,29.7958055 49.3653851,30.8288183 49.7746073,31.9147157 C50.2332184,33.1345875 50.7271073,34.1006132 51.256274,34.8127926 C51.8489406,35.6095875 52.8367184,36.8188824 54.2196073,38.4406773 C55.6589406,40.1259337 56.6467184,41.222408 57.1829406,41.7301003 C58.1354406,42.1602285 59.1232184,42.6820234 60.146274,43.2954849 C61.4233295,44.0640747 62.1500517,44.6387542 62.3264406,45.0195234 C62.5733851,45.5624721 62.7568295,46.2006132 62.876774,46.9339465 C63.0249406,47.8506132 62.9931906,48.5733696 62.781524,49.1022157 C62.527524,49.7579849 62.1888573,50.3926003 61.765524,51.0060619 C61.2928017,51.6970875 60.8624128,52.1166388 60.4743573,52.2647157 C59.8111351,52.5115106 59.2608017,52.5784978 58.8233573,52.4656773 C58.273024,52.3317029 57.923774,51.9333055 57.7756073,51.2704849 C57.3452184,51.3480491 56.9606906,51.2951644 56.622024,51.1118311 C56.2480795,50.9143952 56.0152462,50.5970875 55.923524,50.159908 C55.8388573,49.7720875 55.8988295,49.3807414 56.1034406,48.9858696 L56.590274,48.3089465 C56.2939406,47.8929208 56.0399406,47.4416388 55.828274,46.9551003 C55.5601628,46.3275362 55.4402184,45.7916388 55.4684406,45.347408 C55.1862184,44.9736901 54.1243573,43.7502926 52.2828573,41.6772157 C50.6812462,39.8720875 49.7675517,38.747408 49.541774,38.3031773 L48.335274,36.0079849 C47.7496628,34.8797798 47.2945795,33.8679208 46.970024,32.972408 C46.6384128,32.0627926 46.8571351,31.096767 47.6261906,30.0743311 C48.0142462,29.5666388 48.4340517,29.1470875 48.8856073,28.8156773" id="Path" fill="#E6D4E7"></path>
                            <path d="M60.3473573,48.6368311 L58.8974406,46.4051003 L59.9451906,47.2829849 C60.3967462,47.6919593 60.5943017,47.9669593 60.5378573,48.1079849 L60.3473573,48.6368311" id="Path" fill="#E6D4E7"></path>
                            <path d="M60.5378573,50.5829849 C60.3614684,50.9496516 60.0545517,51.1999721 59.6171073,51.3339465 C59.1796628,51.4749721 58.7633851,51.4502926 58.368274,51.259908 C57.9026073,51.034267 57.638024,50.621767 57.574524,50.022408 C57.1159128,49.6345875 56.8019406,49.0704849 56.6326073,48.3301003 C56.4985517,47.4416388 56.3539128,46.7541388 56.1986906,46.2676003 L58.8339406,45.6752926 C58.7916073,46.0490106 58.7986628,46.5143952 58.8551073,47.0714465 C58.9115517,47.6990106 59.0068017,48.1115106 59.1408573,48.3089465 C59.4089684,48.3230491 59.6947184,48.4147157 59.9981073,48.5839465 C60.3932184,48.8095875 60.6154684,49.0916388 60.6648573,49.4301003 C60.7424684,49.8743311 60.7001351,50.258626 60.5378573,50.5829849" id="Path" fill="#E6D4E7"></path>
                            <path d="M38.7361906,18.3762542 C37.7907462,18.397408 37.1310517,18.809908 36.7571073,19.6137542 C36.5031073,20.1708055 36.3514128,21.0451644 36.302024,22.2368311 C35.8434128,21.5105491 35.698774,20.5903567 35.8681073,19.4762542 C36.0303851,18.3903567 36.4078573,17.6393952 37.000524,17.2233696 C37.1839684,17.0964465 37.4803017,17.1916388 37.889524,17.5089465 C38.1929128,17.7486901 38.4751351,18.0377926 38.7361906,18.3762542" id="Path" fill="#CEA6CC"></path>
                            <path d="M45.1179406,41.8464465 C45.8869962,39.808626 46.6807462,39.0576644 47.4991906,39.5935619 L48.494024,40.3551003 C48.0706906,42.6538183 48.0848017,45.5131132 48.5363573,48.9329849 C48.6915795,50.1105491 48.9279406,51.5701644 49.2454406,53.3118311 L50.0074406,57.5002926 C49.5699962,58.3534978 48.8926628,59.5275362 47.9754406,61.022408 C47.2769406,62.2634337 46.9135795,63.2400362 46.8853573,63.9522157 C46.7936351,66.5682414 46.5925517,68.2640747 46.2821073,69.0397157 L45.922274,69.8435619 C45.7882184,70.2031773 45.6859128,70.7038183 45.6153573,71.3454849 C45.2696351,71.5781773 45.0685517,71.8919593 45.0121073,72.2868311 C44.969774,72.6393952 45.0473851,72.9708055 45.2449406,73.2810619 C45.5977184,73.8169593 46.0316351,74.1201644 46.5466906,74.1906773 C47.0053017,74.2541388 47.4603851,74.1272157 47.9119406,73.809908 L50.0074406,75.872408 L52.3569406,78.1252926 C53.0483851,78.8233696 54.0890795,79.221767 55.479024,79.3204849 C57.0171351,79.4262542 58.2306906,79.0313824 59.1196906,78.1358696 L60.6966073,78.1887542 C60.8377184,78.1464465 61.2681073,77.9631132 61.987774,77.6387542 C61.8889962,78.3156773 61.4974128,78.7810619 60.813024,79.034908 C60.3120795,79.2111901 59.7476351,79.2605491 59.1196906,79.1829849 C59.0491351,79.6554208 58.7386906,80.0256132 58.1883573,80.2935619 C57.5604128,80.6038183 56.6996351,80.7307414 55.606024,80.6743311 C54.6041351,80.6249721 53.7363017,80.4557414 53.002524,80.1666388 C52.304024,79.8916388 51.7995517,79.5355491 51.4891073,79.0983696 C50.9669962,78.3650362 50.3178851,77.5788183 49.541774,76.7397157 C48.4693295,75.5762542 47.7038017,74.9663183 47.2451906,74.909908 C46.4761351,75.2131132 45.8199684,75.2906773 45.2766906,75.1426003 C44.7969128,75.008626 44.3735795,74.6807414 44.0066906,74.1589465 C43.8161906,73.8980491 43.7350517,73.5313824 43.763274,73.0589465 C43.7914962,72.5371516 43.9643573,72.1317029 44.2818573,71.8426003 C44.2818573,71.5182414 44.4194406,71.0563824 44.6946073,70.4570234 L45.4248573,68.7647157 C45.7917462,67.6647157 45.8799406,66.4977285 45.6894406,65.2637542 C45.4707184,63.8887542 44.9450795,62.8627926 44.112524,62.1858696 C43.477524,61.6640747 43.1141628,60.0740106 43.0224406,57.4156773 C42.937774,54.9618311 43.0929962,52.2259337 43.4881073,49.2079849 C43.8973295,46.1054208 44.4406073,43.6515747 45.1179406,41.8464465" id="Path" fill="#CEA6CC"></path>
                            <path d="M49.541774,38.3031773 L48.335274,36.0079849 C47.7496628,34.8797798 47.2945795,33.8679208 46.970024,32.972408 C46.6595795,32.1121516 46.8394962,31.2060619 47.509774,30.2541388 C48.0318851,32.7220875 49.1748851,35.3169593 50.938774,38.0387542 C52.3216628,40.1682414 53.5599128,41.6948439 54.653524,42.6185619 C55.3238017,43.1826644 55.8212184,43.7397157 56.145774,44.2897157 L56.6749406,45.4531773 L57.1511906,47.1983696 C57.4051906,48.1432414 57.669774,48.8095875 57.9449406,49.197408 C57.9449406,49.9730491 58.2906628,50.4877926 58.9821073,50.7416388 C59.6312184,50.9884337 60.1074684,50.9108696 60.4108573,50.5089465 C60.7001351,50.0576644 60.6824962,49.5993311 60.3579406,49.1339465 C60.0616073,48.7108696 59.7123573,48.4852285 59.3101906,48.4570234 C58.9856351,48.4358696 58.7951351,48.0304208 58.7386906,47.2406773 C58.6893017,46.4932414 58.7563295,45.9397157 58.939774,45.5801003 C59.4901073,45.5801003 60.0757184,45.9608696 60.6966073,46.722408 C61.3174962,47.4839465 61.606774,48.1749721 61.5644406,48.7954849 C61.5291628,49.2397157 61.0917184,50.0118311 60.2521073,51.1118311 C59.5394962,52.0355491 59.2749128,52.5009337 59.4583573,52.5079849 C58.5411351,52.5855491 57.9802184,52.1730491 57.7756073,51.2704849 C57.3452184,51.3480491 56.9606906,51.2951644 56.622024,51.1118311 C56.2480795,50.9143952 56.0152462,50.5970875 55.923524,50.159908 C55.8388573,49.7720875 55.8988295,49.3807414 56.1034406,48.9858696 L56.590274,48.3089465 C56.2939406,47.8929208 56.0399406,47.4416388 55.828274,46.9551003 C55.5601628,46.3275362 55.4402184,45.7916388 55.4684406,45.347408 C55.1862184,44.9736901 54.1243573,43.7502926 52.2828573,41.6772157 C50.6812462,39.8720875 49.7675517,38.747408 49.541774,38.3031773" id="Path" fill="#CEA6CC"></path>
                            <path d="M60.5378573,48.1079849 L60.3473573,48.6368311 L58.8974406,46.4051003 L59.9451906,47.2829849 C60.3967462,47.6919593 60.5943017,47.9669593 60.5378573,48.1079849" id="Path" fill="#CEA6CC"></path>
                            <path d="M38.3869406,17.6147157 C38.2105517,17.4313824 37.9918295,17.3150362 37.730774,17.2656773 C37.4626628,17.209267 37.2474684,17.2374721 37.0851906,17.3502926 C36.746524,17.5829849 36.4537184,18.0166388 36.206774,18.6512542 C35.9739406,19.2435619 35.857524,19.7794593 35.857524,20.2589465 C35.857524,20.9993311 36.0727184,21.6656773 36.5031073,22.2579849 C36.7923851,22.6528567 37.0922462,22.934908 37.4026906,23.1041388 C37.6708017,23.2451644 37.8754128,23.2768952 38.016524,23.1993311 C38.1999684,23.0935619 38.207024,22.8291388 38.0376906,22.4060619 C37.6849128,21.5669593 37.5508573,20.8512542 37.635524,20.2589465 C37.7131351,19.7089465 38.0200517,19.0954849 38.556274,18.4185619 C38.7608851,18.1647157 38.8173295,17.9778567 38.7256073,17.8579849 L38.3869406,17.6147157 M36.9158573,17.0964465 C37.1345795,16.9413183 37.4168017,16.8919593 37.762524,16.9483696 C38.1011906,17.0118311 38.3834128,17.1634337 38.6091906,17.4031773 C38.842024,17.6499721 38.9725517,17.9179208 39.000774,18.2070234 C39.0289962,18.5243311 38.9161073,18.7993311 38.6621073,19.0320234 C37.8366073,19.7794593 37.7201906,20.8653567 38.3128573,22.2897157 C38.461024,22.6422798 38.4963017,22.9313824 38.4186906,23.1570234 C38.3693017,23.2909978 38.2846351,23.3932414 38.1646906,23.4637542 C37.9459684,23.583626 37.6637462,23.5624721 37.318024,23.4002926 C36.937024,23.2169593 36.5807184,22.896126 36.2491073,22.4377926 C35.9809962,22.0570234 35.7834406,21.5669593 35.6564406,20.9676003 C35.5294406,20.3470875 35.5118017,19.7477285 35.603524,19.1695234 C35.7587462,18.2951644 36.1961906,17.6041388 36.9158573,17.0964465" id="Shape" fill="#0D131A"></path>
                            <path d="M47.4039406,39.7310619 C46.9806073,39.4631132 46.5537462,39.6288183 46.1233573,40.2281773 C45.5024684,41.0813824 44.9344962,42.6361901 44.4194406,44.8926003 C43.953774,46.9727285 43.6115795,49.2820234 43.3928573,51.8204849 C43.1741351,54.3659978 43.128274,56.5624721 43.255274,58.409908 C43.3893295,60.4195234 43.7138851,61.6323439 44.2289406,62.0483696 C45.0756073,62.7393952 45.6153573,63.7759337 45.8481906,65.1579849 C46.0598573,66.4272157 45.9716628,67.6470875 45.5836073,68.8176003 C45.5271628,68.9868311 45.3260795,69.3393952 44.9803573,69.8752926 C44.684024,70.4393952 44.5781906,70.9682414 44.6628573,71.4618311 C44.9591906,71.4547798 45.0121073,71.5041388 44.8216073,71.609908 C44.2642184,71.9201644 43.9608295,72.3749721 43.9114406,72.9743311 C43.8761628,73.4185619 43.9608295,73.7993311 44.1654406,74.1166388 C44.4899962,74.6031773 44.9133295,74.9169593 45.4354406,75.0579849 C46.0281073,75.2131132 46.6243017,75.0826644 47.224024,74.6666388 C47.5556351,74.4339465 47.6932184,74.3845875 47.636774,74.5185619 L47.446274,74.7935619 C47.9966073,74.8570234 48.8573851,75.5727285 50.0286073,76.9406773 C50.6142184,77.6246516 51.1469128,78.3121516 51.6266906,79.0031773 C51.9300795,79.4262542 52.4345517,79.771767 53.1401073,80.0397157 C53.8386073,80.3006132 54.6605795,80.4557414 55.606024,80.5051003 C56.6714128,80.5544593 57.5039684,80.4345875 58.1036906,80.1454849 C58.6116906,79.8986901 58.8939128,79.5708055 58.9503573,79.1618311 L58.9821073,78.9926003 L59.1408573,79.0137542 C59.5359684,79.0631132 59.9169684,79.0560619 60.2838573,78.9926003 C60.7213017,78.9220875 61.067024,78.7775362 61.321024,78.5589465 C61.6455795,78.2909978 61.8184406,77.9067029 61.8396073,77.4060619 C61.8537184,77.1169593 61.7796351,76.8384337 61.6173573,76.5704849 C61.4621351,76.3025362 61.2398851,76.0804208 60.9506073,75.9041388 C60.4426073,75.5868311 59.7370517,75.5762542 58.8339406,75.872408 C58.7774962,75.8865106 58.6716628,75.9323439 58.5164406,76.009908 L58.2518573,76.0733696 C58.1883573,76.0663183 58.1918851,76.0063824 58.2624406,75.8935619 L58.3894406,75.7243311 C58.0084406,75.5409978 57.1406073,75.0403567 55.7859406,74.222408 C54.3889406,73.3762542 53.3270795,72.7134337 52.6003573,72.2339465 L52.240524,71.9906773 C51.3444684,71.3983696 50.716524,70.9294593 50.3566906,70.5839465 C49.7569684,69.9986901 49.414774,69.3781773 49.3301073,68.722408 C49.1748851,67.5730491 49.1431351,66.5047798 49.2348573,65.5176003 C49.3689128,64.1143952 49.7463851,63.0249721 50.367274,62.2493311 C51.2633295,61.1352285 51.9583017,59.8201644 52.4521906,58.3041388 C53.1648017,56.1323439 53.3905795,53.7278567 53.129524,51.0906773 C52.8825795,48.5451644 52.2511073,46.2676003 51.2351073,44.2579849 C50.2261628,42.2483696 48.9491073,40.7393952 47.4039406,39.7310619 M45.8376073,40.0166388 C46.4091073,39.2480491 46.9947184,39.0576644 47.5944406,39.4454849 C49.1960517,40.4890747 50.5330795,42.0403567 51.605524,44.0993311 C52.6920795,46.1865106 53.3623573,48.5204849 53.6163573,51.1012542 C53.6869128,51.7993311 53.7221906,52.4938824 53.7221906,53.184908 C53.7221906,55.3708055 53.4258573,57.2358696 52.8331906,58.7801003 C52.4380795,59.8307414 51.7713295,60.983626 50.8329406,62.2387542 C49.9792184,63.3881132 49.5523573,64.8124721 49.5523573,66.5118311 C49.5523573,67.3861901 49.5911628,68.1089465 49.668774,68.6801003 C49.7393295,69.2583055 50.0921073,69.8188824 50.7271073,70.3618311 C50.9881628,70.5874721 51.6302184,71.0352285 52.653274,71.7051003 L53.9444406,72.5195234 L56.5796906,74.222408 L58.7598573,75.5339465 C59.1479128,75.3365106 59.574774,75.2413183 60.0404406,75.2483696 C60.5202184,75.2554208 60.940024,75.3682414 61.2998573,75.5868311 C61.638524,75.7913183 61.9031073,76.0557414 62.0936073,76.3801003 C62.2911628,76.7115106 62.3828851,77.0499721 62.368774,77.3954849 C62.3476073,77.9595875 62.1183017,78.4320234 61.6808573,78.8127926 C61.1658017,79.2499721 60.4073295,79.4262542 59.4054406,79.3416388 C59.3701628,79.7365106 59.0526628,80.0820234 58.4529406,80.3781773 C57.6979962,80.7448439 56.6784684,80.8999721 55.3943573,80.8435619 C54.3430795,80.7942029 53.5069962,80.6672798 52.8861073,80.4627926 C52.2158295,80.2442029 51.7184128,79.9057414 51.3938573,79.447408 C50.7447462,78.5448439 50.0674128,77.6916388 49.3618573,76.8877926 C48.367024,75.7525362 47.6649962,75.1531773 47.255774,75.0897157 C46.5925517,75.4352285 45.9646073,75.5480491 45.3719406,75.4281773 C44.7722184,75.3083055 44.2677462,74.9663183 43.858524,74.4022157 C43.6891906,74.1695234 43.5868851,73.8416388 43.5516073,73.4185619 C43.509274,72.7980491 43.699774,72.2480491 44.1231073,71.7685619 L44.112524,71.0704849 C44.1266351,70.8236901 44.1971906,70.5663183 44.3241906,70.2983696 L44.7686906,69.5897157 C44.9874128,69.2653567 45.1249962,69.0150362 45.1814406,68.8387542 C45.4636628,67.9784978 45.604774,67.1887542 45.604774,66.4695234 C45.604774,65.6656773 45.4354406,64.872408 45.096774,64.0897157 C44.7581073,63.3070234 44.3136073,62.6935619 43.763274,62.2493311 C43.3681628,61.9320234 43.1035795,61.2022157 42.969524,60.059908 C42.8778017,59.2701644 42.8319406,58.0009337 42.8319406,56.2522157 C42.8319406,54.834908 42.8989684,53.3506132 43.033024,51.7993311 C43.2446906,49.3948439 43.5692462,47.1666388 44.0066906,45.1147157 C44.5429128,42.6608696 45.1532184,40.9615106 45.8376073,40.0166388" id="Shape" fill="#0D131A"></path>
                            <path d="M44.1866073,71.7368311 C44.5746628,71.3278567 45.0932462,71.158626 45.7423573,71.2291388 C46.3491351,71.2926003 46.8818295,71.5323439 47.3404406,71.9483696 C47.7708295,72.3432414 48.0001351,72.896767 48.0283573,73.6089465 C48.049524,74.3352285 47.8343295,74.8006132 47.382774,75.0051003 C47.0370517,75.1743311 46.8077462,75.2236901 46.6948573,75.1531773 C46.5819684,75.0826644 46.6278295,75.0015747 46.8324406,74.909908 C47.3968851,74.6490106 47.6755795,74.1906773 47.668524,73.534908 C47.668524,72.9637542 47.4956628,72.5054208 47.1499406,72.159908 C46.7759962,71.7861901 46.3138573,71.5676003 45.763524,71.5041388 C45.1849684,71.4406773 44.7263573,71.5852285 44.3876906,71.9377926 L44.1866073,71.7368311" id="Path" fill="#0D131A"></path>
                            <path d="M57.098274,76.8983696 C57.8743851,76.9688824 58.463524,77.1874721 58.8656906,77.5541388 C59.1196906,77.7797798 59.2925517,78.0547798 59.384274,78.3791388 C59.4901073,78.7528567 59.4618851,79.1230491 59.2996073,79.4897157 C59.1373295,79.8493311 59.0209128,79.958626 58.9503573,79.8176003 C58.8798017,79.683626 58.8798017,79.4615106 58.9503573,79.1512542 C59.0773573,78.6435619 58.9433017,78.2063824 58.5481906,77.8397157 C58.2024684,77.5294593 57.6733017,77.3390747 56.9606906,77.2685619 L55.3626073,77.3426003 C55.193274,77.384908 55.098024,77.3708055 55.0768573,77.3002926 C55.0627462,77.2368311 55.2038573,77.1486901 55.5001906,77.0358696 C55.9023573,76.8807414 56.4350517,76.834908 57.098274,76.8983696" id="Path" fill="#0D131A"></path>
                            <path d="M48.7691906,29.1329849 C48.3458573,29.4926003 47.9895517,29.8768952 47.700274,30.2858696 C47.2346073,30.9345875 47.001774,31.558626 47.001774,32.1579849 C47.001774,32.4047798 47.0441073,32.6551003 47.128774,32.9089465 C47.5238851,33.9877926 48.1976906,35.4121516 49.1501906,37.1820234 L49.6899406,38.2291388 C49.8381073,38.5252926 50.2684962,39.0929208 50.9811073,39.9320234 L53.0871906,42.322408 L55.352024,44.9560619 L55.5636906,45.2839465 L55.6801073,45.897408 C55.7224406,46.221767 55.8247462,46.5496516 55.987024,46.8810619 C56.1563573,47.2124721 56.3115795,47.3922798 56.4526906,47.4204849 L56.7278573,48.6156773 C56.6149684,48.6579849 56.4985517,48.7390747 56.3786073,48.8589465 C56.1528295,49.1057414 56.0469962,49.4301003 56.0611073,49.8320234 C56.0611073,49.9589465 56.0716906,50.0576644 56.0928573,50.1281773 C56.1704684,50.5230491 56.3786073,50.8051003 56.717274,50.9743311 C57.0206628,51.122408 57.3628573,51.1647157 57.7438573,51.1012542 L57.923774,50.9426003 L57.9449406,51.2387542 C58.050774,51.7111901 58.2624406,52.0320234 58.5799406,52.2012542 C59.1161628,52.4833055 59.7299962,52.4480491 60.4214406,52.0954849 C60.7601073,51.9262542 61.1516906,51.5313824 61.5961906,50.9108696 C62.0336351,50.297408 62.3758295,49.6733696 62.622774,49.0387542 C62.7356628,48.7426003 62.7921073,48.3829849 62.7921073,47.959908 C62.7921073,47.4381132 62.7321351,46.8986901 62.6121906,46.3416388 C62.4851906,45.7916388 62.337024,45.3756132 62.1676906,45.0935619 C61.8995795,44.6563824 61.0881906,44.0570234 59.733524,43.2954849 C58.2871351,42.5339465 57.4122462,42.0615106 57.1088573,41.8781773 C56.6996351,41.6384337 55.7294962,40.6054208 54.1984406,38.7791388 C52.8931628,37.2208055 51.8665795,35.9339465 51.1186906,34.9185619 C50.6106906,34.2345875 50.1344406,33.3179208 49.6899406,32.1685619 C49.2807184,31.1390747 48.9738017,30.1272157 48.7691906,29.1329849 M48.779774,28.6781773 L49.002024,28.5195234 L49.0549406,28.7945234 C49.2313295,29.7605491 49.5276628,30.7865106 49.9439406,31.872408 C50.4025517,33.071126 50.8858573,34.0159978 51.3938573,34.7070234 C52.0853017,35.6518952 53.0942462,36.9105491 54.4206906,38.4829849 C55.923524,40.2669593 56.8866073,41.3034978 57.3099406,41.5926003 C57.6274406,41.8111901 58.4353017,42.2201644 59.733524,42.8195234 C61.0105795,43.4893952 61.924274,44.1980491 62.4746073,44.9454849 C62.6580517,45.1922798 62.813274,45.6118311 62.940274,46.2041388 C63.067274,46.7893952 63.130774,47.3746516 63.130774,47.959908 C63.130774,48.4323439 63.067274,48.834267 62.940274,49.1656773 C62.6792184,49.8426003 62.3334962,50.4983696 61.9031073,51.1329849 C61.3951073,51.8874721 60.9294406,52.3422798 60.5061073,52.497408 C59.6241628,52.8358696 58.9221351,52.8640747 58.400024,52.5820234 C58.0684128,52.4057414 57.8179406,52.0284978 57.6486073,51.4502926 C57.2111628,51.4996516 56.8195795,51.4256132 56.4738573,51.2281773 C56.0716906,51.0025362 55.8176906,50.6605491 55.7118573,50.2022157 C55.6130795,49.8002926 55.6659962,49.4018952 55.8706073,49.0070234 L56.368024,48.3089465 L56.3151073,47.9176003 C55.9764406,47.5720875 55.7471351,47.2618311 55.6271906,46.9868311 C55.5001906,46.6906773 55.4014128,46.2358696 55.3308573,45.622408 L55.2144406,45.3262542 L55.066274,45.0935619 L54.2619406,44.247408 L52.748524,42.6502926 C51.9371351,41.733626 51.1786628,40.8381132 50.4731073,39.9637542 C49.6969962,39.0047798 49.1819406,38.3031773 48.9279406,37.8589465 C48.6598295,37.4006132 48.3141073,36.6813824 47.890774,35.7012542 C47.4744962,34.7563824 47.1146628,33.8643952 46.811274,33.0252926 C46.7054406,32.7573439 46.652524,32.4611901 46.652524,32.1368311 C46.652524,31.3541388 46.9947184,30.5538183 47.6791073,29.7358696 C48.0248295,29.3198439 48.3917184,28.9672798 48.779774,28.6781773" id="Shape" fill="#0D131A"></path>
                            <path d="M60.6013573,47.7906773 C60.6578017,47.734267 60.7142462,47.7272157 60.7706906,47.7695234 C60.8341906,47.8188824 60.8024406,47.921126 60.6754406,48.0762542 C60.5554962,48.2243311 60.4849406,48.3935619 60.463774,48.5839465 L60.463774,48.8272157 C60.273274,48.7919593 60.178024,48.7143952 60.178024,48.5945234 C60.178024,48.5169593 60.209774,48.4076644 60.273274,48.2666388 L60.3791073,48.0551003 C60.3720517,47.9281773 59.9416628,47.5015747 59.0879406,46.7752926 L58.8656906,46.6695234 L58.9503573,46.1935619 L59.5218573,46.6801003 C59.9663573,47.0749721 60.3261906,47.4451644 60.6013573,47.7906773" id="Path" fill="#0D131A"></path>
                            <path d="M60.717774,49.0916388 C60.8518295,49.3102285 60.9188573,49.5429208 60.9188573,49.7897157 C60.9188573,50.2057414 60.8094962,50.5653567 60.590774,50.8685619 C60.3720517,51.171767 60.0651351,51.3833055 59.670024,51.5031773 L58.9291906,51.5877926 C58.6187462,51.5595875 58.3471073,51.4714465 58.114274,51.3233696 C57.6909406,51.0483696 57.447524,50.6499721 57.384024,50.1281773 C57.0383017,49.8249721 56.7843017,49.4371516 56.622024,48.9647157 C56.5373573,48.7179208 56.4385795,48.2736901 56.3256906,47.6320234 L56.0928573,46.1406773 C56.0575795,45.9643952 56.0752184,45.8833055 56.145774,45.897408 C56.2233851,45.9115106 56.2939406,46.0172798 56.3574406,46.2147157 C56.463274,46.5320234 56.5655795,46.9868311 56.6643573,47.5791388 C56.7701906,48.1643952 56.8689684,48.5874721 56.9606906,48.8483696 C57.1229684,49.2714465 57.3663851,49.6204849 57.6909406,49.8954849 L57.7438573,50.0012542 C57.7720795,50.4454849 57.9908017,50.7804208 58.400024,51.0060619 C58.7528017,51.1964465 59.1091073,51.2528567 59.4689406,51.1752926 C59.9204962,51.0695234 60.2274128,50.8368311 60.3896906,50.4772157 C60.5025795,50.209267 60.5308017,49.9025362 60.4743573,49.5570234 C60.432024,49.2749721 60.2768017,49.0352285 60.0086906,48.8377926 C59.8040795,48.6826644 59.5641906,48.5768952 59.289024,48.5204849 L59.1196906,48.4676003 L58.9609406,48.2772157 C58.6998851,47.7413183 58.6116906,46.9515747 58.6963573,45.9079849 C58.7104684,45.6682414 58.7633851,45.4743311 58.8551073,45.3262542 C58.9468295,45.1640747 58.9962184,45.2874721 59.003274,45.6964465 L59.0244406,47.0714465 C59.0314962,47.4028567 59.1443851,47.7906773 59.3631073,48.234908 C60.0122184,48.3759337 60.463774,48.6615106 60.717774,49.0916388" id="Path" fill="#0D131A"></path>
                            <path d="M43.509274,26.7743311 C45.2731628,28.4031773 46.2468295,29.584267 46.430274,30.3176003 C46.6348851,31.1214465 46.7019128,31.9076644 46.6313573,32.6762542 C46.5960795,33.1134337 46.5078851,33.7163183 46.366774,34.484908 C46.176274,35.9022157 46.620774,37.4852285 47.700274,39.2339465 C49.8098851,42.6397157 51.065774,45.7634337 51.4679406,48.6051003 C51.8771628,51.4679208 51.4573573,54.3377926 50.208524,57.2147157 C49.7499128,58.2794593 48.8362184,59.3018952 47.4674406,60.2820234 C46.0281073,61.3185619 44.3488851,62.1188824 42.429774,62.6829849 C37.6813851,64.0579849 33.0282462,63.6595875 28.4703573,61.4877926 C24.110024,59.4076644 21.316024,55.4377926 20.0883573,49.5781773 C19.3757462,46.1653567 19.2064128,41.4833055 19.5803573,35.5320234 C19.8625795,31.0262542 19.760274,27.6451644 19.2734406,25.3887542 C18.6031628,22.2720875 17.0685795,19.8429208 14.6696906,18.1012542 C13.4067462,17.1845875 12.172024,16.7791388 10.965524,16.884908 C9.84369063,16.9906773 8.82769063,17.5195234 7.91752396,18.4714465 C7.03557951,19.3810619 6.34766285,20.5833055 5.85377396,22.0781773 C5.34577396,23.5871516 5.09530174,25.2089465 5.10235729,26.9435619 C5.12352396,31.1038183 6.05485729,34.6788183 7.89635729,37.6685619 C8.39730174,38.472408 9.31452396,39.7557414 10.648024,41.5185619 C11.9603573,43.2390747 12.9763573,44.6916388 13.696024,45.8762542 C14.6555795,47.4557414 15.1741628,48.8730491 15.251774,50.1281773 C15.3223295,51.2422798 15.0401073,52.1060619 14.4051073,52.7195234 C13.8053851,53.3047798 13.0116351,53.558626 12.0238573,53.4810619 C10.9937462,53.3964465 9.96010729,52.9663183 8.92294063,52.1906773 C6.95444063,50.7240106 5.12352396,48.0480491 3.43019063,44.1627926 C1.54635729,39.8685619 0.516246181,35.4791388 0.339857292,30.9945234 C0.170523958,26.8201644 1.16535729,23.1570234 3.32435729,20.0051003 C5.56802396,16.7262542 8.5454684,14.8294593 12.2566906,14.3147157 C15.4669684,13.8704849 18.3562184,14.6320234 20.9244406,16.5993311 C23.0340517,18.2140747 24.5157184,20.2307414 25.3694406,22.6493311 C25.6093295,23.3192029 25.8844962,24.4579849 26.1949406,26.0656773 L27.094524,30.7512542 C27.9270795,34.996126 28.777274,37.8942029 29.6451073,39.4454849 C29.9696628,40.0236901 30.3859406,40.5454849 30.8939406,41.0108696 C31.4936628,41.5538183 32.0969128,41.8958055 32.7036906,42.0368311 C34.2982462,42.3964465 35.571774,41.3105491 36.524274,38.7791388 C36.9334962,37.7002926 36.8135517,35.997408 36.1644406,33.6704849 L34.5134406,28.8791388 C33.2646073,25.3605491 33.0917462,23.1605491 33.9948573,22.2791388 C34.7356906,21.5458055 36.1291628,21.7291388 38.175274,22.8291388 C39.8968295,23.7528567 41.6748295,25.0679208 43.509274,26.7743311" id="Path" fill="#E6D4E7"></path>
                            <path d="M43.509274,26.7743311 C45.2731628,28.4031773 46.2468295,29.584267 46.430274,30.3176003 C46.6489962,31.1919593 46.7089684,32.0557414 46.6101906,32.9089465 L46.3138573,34.9185619 C45.5306906,34.4743311 44.3524128,34.4249721 42.779024,34.7704849 C41.318524,35.0948439 40.2566628,35.5496516 39.5934406,36.134908 C39.1066073,36.5650362 38.6903295,37.1361901 38.3446073,37.8483696 C38.1964406,38.1515747 37.9318573,38.8038183 37.5508573,39.8051003 C36.937024,41.4339465 36.1679684,42.459908 35.2436906,42.8829849 C34.3899684,43.2214465 33.7549684,42.9605491 33.3386906,42.1002926 C34.6439684,42.0509337 35.7058295,40.9438824 36.524274,38.7791388 C36.9334962,37.7002926 36.8135517,35.997408 36.1644406,33.6704849 L34.5134406,28.8791388 C33.2646073,25.3605491 33.0917462,23.1605491 33.9948573,22.2791388 C34.7356906,21.5458055 36.1291628,21.7291388 38.175274,22.8291388 C39.8968295,23.7528567 41.6748295,25.0679208 43.509274,26.7743311" id="Path" fill="#CEA6CC"></path>
                            <path d="M14.6696906,18.1012542 C13.4067462,17.1845875 12.172024,16.7791388 10.965524,16.884908 C9.84369063,16.9906773 8.82769063,17.5195234 7.91752396,18.4714465 C7.03557951,19.3810619 6.34766285,20.5833055 5.85377396,22.0781773 C5.34577396,23.5871516 5.09530174,25.2089465 5.10235729,26.9435619 C5.12352396,31.1038183 6.05485729,34.6788183 7.89635729,37.6685619 C8.39730174,38.472408 9.31452396,39.7557414 10.648024,41.5185619 C11.9603573,43.2390747 12.9763573,44.6916388 13.696024,45.8762542 C14.6555795,47.4557414 15.1741628,48.8730491 15.251774,50.1281773 C15.3223295,51.2422798 15.0401073,52.1060619 14.4051073,52.7195234 C13.8053851,53.3047798 13.0116351,53.558626 12.0238573,53.4810619 C10.9937462,53.3964465 9.96010729,52.9663183 8.92294063,52.1906773 C6.95444063,50.7240106 5.12352396,48.0480491 3.43019063,44.1627926 C1.54635729,39.8685619 0.516246181,35.4791388 0.339857292,30.9945234 C0.170523958,26.8201644 1.16535729,23.1570234 3.32435729,20.0051003 C5.56802396,16.7262542 8.5454684,14.8294593 12.2566906,14.3147157 C15.4669684,13.8704849 18.3562184,14.6320234 20.9244406,16.5993311 C23.0340517,18.2140747 24.5157184,20.2307414 25.3694406,22.6493311 C25.6093295,23.3192029 25.8844962,24.4579849 26.1949406,26.0656773 L27.094524,30.7512542 C27.9270795,34.996126 28.777274,37.8942029 29.6451073,39.4454849 C30.1460517,40.3480491 30.8057462,41.0567029 31.6241906,41.5714465 C32.6260795,42.2060619 33.5574128,42.2765747 34.4181906,41.7829849 L34.9156073,45.5272157 C35.1131628,46.8669593 35.4094962,48.097408 35.8046073,49.2185619 C35.8046073,49.3384337 36.0021628,49.7262542 36.397274,50.3820234 C36.8770517,51.1788183 37.3533017,51.7640747 37.826024,52.1377926 C39.286524,53.3083055 40.3236906,52.1624721 40.937524,48.7002926 C41.8476906,43.559908 43.414024,40.9544593 45.636524,40.8839465 C46.7936351,40.8416388 48.176524,41.5749721 49.7851906,43.0839465 C50.9846351,45.7140747 51.6337462,48.1397157 51.732524,50.3608696 C51.8454128,52.7512542 51.3374128,55.0358696 50.208524,57.2147157 C49.5876351,58.4134337 48.5857462,59.5134337 47.2028573,60.5147157 C45.7494128,61.5653567 44.0772462,62.3551003 42.1863573,62.8839465 C37.6496351,64.1531773 33.0776351,63.6877926 28.4703573,61.4877926 C24.110024,59.4076644 21.316024,55.4377926 20.0883573,49.5781773 C19.3757462,46.1653567 19.2064128,41.4833055 19.5803573,35.5320234 C19.8625795,31.0262542 19.760274,27.6451644 19.2734406,25.3887542 C18.6031628,22.2720875 17.0685795,19.8429208 14.6696906,18.1012542" id="Path" fill="#9B7FA6"></path>
                            <path d="M29.6874406,39.5195234 C30.2095517,40.4150362 30.8692462,41.1060619 31.666524,41.5926003 C32.6543017,42.1990106 33.571524,42.2624721 34.4181906,41.7829849 C34.5169684,42.4458055 34.4640517,42.9323439 34.2594406,43.2426003 C34.0689406,43.5317029 34.0336628,43.9512542 34.1536073,44.5012542 C32.2627184,43.9089465 30.999774,43.2390747 30.364774,42.4916388 C29.7650517,41.7865106 29.539274,40.7958055 29.6874406,39.5195234" id="Path" fill="#836B8D"></path>
                            <path d="M14.6696906,18.1012542 C13.4067462,17.1845875 12.172024,16.7791388 10.965524,16.884908 C9.84369062,16.9906773 8.82769062,17.5195234 7.91752396,18.4714465 C7.03557951,19.3810619 6.34766285,20.5833055 5.85377396,22.0781773 C5.34577396,23.5871516 5.09530174,25.2089465 5.10235729,26.9435619 C5.12352396,31.1038183 6.05485729,34.6788183 7.89635729,37.6685619 C8.39730174,38.472408 9.31452396,39.7557414 10.648024,41.5185619 C11.9603573,43.2390747 12.9763573,44.6916388 13.696024,45.8762542 C14.3521906,46.9621516 14.7367184,47.6355491 14.8496073,47.8964465 C15.1459406,48.5945234 15.2941073,49.4230491 15.2941073,50.3820234 C14.6520517,51.4820234 13.4561351,51.3233696 11.7063573,49.9060619 C10.330524,48.7919593 9.13460729,47.4451644 8.11860729,45.8656773 C6.6087184,43.5176003 5.35988507,40.5560619 4.37210729,36.9810619 C3.08799618,32.3272157 2.74932951,28.0083055 3.35610729,24.0243311 C3.68066285,21.8595875 4.39680174,20.1708055 5.50452396,18.9579849 C6.73924618,17.6041388 8.50313507,16.7897157 10.7961906,16.5147157 C14.3663017,16.0916388 17.2767184,17.9320234 19.5274406,22.0358696 C20.649274,24.0807414 21.3230795,27.4935619 21.5488573,32.2743311 C21.6758573,34.8762542 21.7252462,38.2855491 21.697024,42.5022157 C21.7887462,45.259267 22.6283573,48.2278567 24.2158573,51.4079849 C26.0291351,55.0393952 28.2410517,57.546126 30.8516073,58.9281773 C33.8149406,60.5006132 37.0393295,61.1740106 40.524774,60.9483696 C44.2571628,60.7156773 47.4850795,59.471126 50.208524,57.2147157 C49.5876351,58.4134337 48.5857462,59.5134337 47.2028573,60.5147157 C45.7494128,61.5653567 44.0772462,62.3551003 42.1863573,62.8839465 C37.6496351,64.1531773 33.0776351,63.6877926 28.4703573,61.4877926 C24.110024,59.4076644 21.316024,55.4377926 20.0883573,49.5781773 C19.3757462,46.1653567 19.2064128,41.4833055 19.5803573,35.5320234 C19.8625795,31.0262542 19.760274,27.6451644 19.2734406,25.3887542 C18.6031628,22.2720875 17.0685795,19.8429208 14.6696906,18.1012542" id="Path" fill="#836B8D"></path>
                            <path d="M38.4398573,18.2916388 L42.5038573,20.1108696 L42.9271906,21.3166388 C43.2376351,22.0499721 43.6398017,22.4765747 44.1336906,22.5964465 L45.3931073,22.1522157 C46.0351628,21.933626 46.5854962,21.7926003 47.0441073,21.7291388 C47.7567184,21.6374721 48.3564406,22.0111901 48.843274,22.8502926 C49.1748851,23.4284978 49.4359406,24.1865106 49.6264406,25.1243311 C49.8381073,26.1397157 49.5523573,27.7650362 48.7691906,30.0002926 C48.0071906,32.1932414 47.3016351,33.5012542 46.652524,33.9243311 C46.5043573,34.0230491 46.3385517,34.0018952 46.1551073,33.8608696 L45.5941906,33.3426003 C45.0085795,32.8419593 44.3453573,32.7784978 43.604524,33.1522157 L42.2816073,34.0089465 C41.6254406,34.4038183 41.1103851,34.5801003 40.7364406,34.5377926 C40.1649406,34.4743311 39.4629128,34.0089465 38.6303573,33.1416388 C37.6708017,32.1262542 37.127524,31.047408 37.000524,29.9051003 C37.3462462,28.847408 37.3921073,27.6627926 37.1381073,26.3512542 C36.8911628,25.1031773 36.4784128,24.2182414 35.8998573,23.6964465 C35.3989128,23.2381132 34.8626906,23.2204849 34.2911906,23.6435619 C33.8325795,23.9749721 33.412774,24.5179208 33.031774,25.272408 C32.5731628,23.996126 32.5414128,22.9454849 32.936524,22.1204849 C33.1552462,21.6551003 33.635024,21.1438824 34.3758573,20.5868311 C34.8203573,20.2483696 35.508274,20.2060619 36.4396073,20.459908 C37.0463851,20.6291388 37.8401351,20.9570234 38.8208573,21.4435619 C38.9972462,21.0134337 39.0219406,20.4281773 38.8949406,19.6877926 C38.7891073,19.0390747 38.6374128,18.5736901 38.4398573,18.2916388" id="Path" fill="#E6D4E7"></path>
                            <path d="M34.3758573,20.5868311 C34.8203573,20.2483696 35.508274,20.2060619 36.4396073,20.459908 C37.0463851,20.6291388 37.8401351,20.9570234 38.8208573,21.4435619 C38.9972462,21.0134337 39.0219406,20.4281773 38.8949406,19.6877926 C38.7891073,19.0390747 38.6374128,18.5736901 38.4398573,18.2916388 L42.7261073,19.3387542 L42.779024,20.0685619 C42.7931351,20.4493311 42.7754962,20.7631132 42.7261073,21.009908 C42.4862184,22.2227285 41.6607184,22.5964465 40.2496073,22.1310619 L38.746774,21.559908 C37.9988851,21.2778567 37.4026906,21.0945234 36.9581906,21.009908 C36.1679684,20.8618311 35.667024,20.8900362 35.4553573,21.0945234 C35.1801906,21.3624721 35.4624128,21.8913183 36.302024,22.6810619 C36.6689128,23.0265747 37.0146351,23.6259337 37.3391906,24.4791388 C37.7484128,25.5509337 37.9636073,26.7073439 37.984774,27.9483696 C38.0059406,28.8509337 38.3516628,29.947408 39.0219406,31.2377926 C39.6851628,32.5281773 40.2743017,33.2403567 40.7893573,33.3743311 C41.3255795,33.5083055 41.8441628,33.4730491 42.3451073,33.2685619 C42.6978851,33.1204849 43.0153851,32.9054208 43.2976073,32.6233696 C43.5516073,32.3695234 43.9361351,32.2143952 44.4511906,32.1579849 C45.0438573,32.0874721 45.509524,32.2284978 45.8481906,32.5810619 C46.0880795,32.8419593 46.3138573,33.0182414 46.525524,33.109908 C46.7936351,33.2297798 47.0688017,33.2297798 47.351024,33.109908 C47.097024,33.5118311 46.8641906,33.7833055 46.652524,33.9243311 C46.5043573,34.0230491 46.3385517,34.0018952 46.1551073,33.8608696 L45.5941906,33.3426003 C45.0085795,32.8419593 44.3453573,32.7784978 43.604524,33.1522157 L42.2816073,34.0089465 C41.6254406,34.4038183 41.1103851,34.5801003 40.7364406,34.5377926 C40.1649406,34.4743311 39.4629128,34.0089465 38.6303573,33.1416388 C37.6708017,32.1262542 37.127524,31.047408 37.000524,29.9051003 C37.3462462,28.847408 37.3921073,27.6627926 37.1381073,26.3512542 C36.8911628,25.1031773 36.4784128,24.2182414 35.8998573,23.6964465 C35.3989128,23.2381132 34.8626906,23.2204849 34.2911906,23.6435619 C33.8325795,23.9749721 33.412774,24.5179208 33.031774,25.272408 C32.5731628,23.996126 32.5414128,22.9454849 32.936524,22.1204849 C33.1552462,21.6551003 33.635024,21.1438824 34.3758573,20.5868311" id="Path" fill="#CEA6CC"></path>
                            <path d="M34.5346073,29.947408 L34.365274,28.9320234 C33.7232184,27.1127926 33.3669128,25.6390747 33.2963573,24.5108696 L33.5926906,24.3416388 C33.6420795,25.4768952 33.9983851,26.9752926 34.6616073,28.8368311 L34.9896906,29.7464465 L36.587774,34.4214465 C37.0816628,36.2406773 37.1098851,37.7108696 36.6724406,38.8320234 C35.8187184,41.0038183 34.7392184,42.1426003 33.4339406,42.2483696 C32.6719406,42.3047798 31.888774,42.0121516 31.0844406,41.3704849 C30.4353295,40.8486901 29.9096906,40.2317029 29.507524,39.5195234 C28.8866351,38.4054208 28.301024,36.734267 27.7506906,34.5060619 C27.412024,33.1451644 26.9886906,31.0897157 26.4806906,28.3397157 L25.8456906,25.0820234 C25.6199128,24.0313824 25.411774,23.2381132 25.221274,22.7022157 C24.395774,20.3611901 22.9458573,18.3868311 20.871524,16.7791388 C18.3174128,14.7977285 15.4528573,14.0256132 12.2778573,14.4627926 C10.4786906,14.7166388 8.82769063,15.3230491 7.32485729,16.2820234 C5.82907951,17.2339465 4.53791285,18.5067029 3.45135729,20.1002926 C2.41419063,21.609267 1.64160729,23.3015747 1.13360729,25.1772157 C0.625607292,27.0458055 0.410412847,28.9813824 0.488023958,30.9839465 C0.671468403,35.5602285 1.72627396,40.0025362 3.65244063,44.3108696 C5.3387184,48.0692029 7.12377396,50.6570234 9.00760729,52.0743311 C9.9742184,52.8006132 10.9408295,53.2166388 11.9074406,53.322408 C12.8669962,53.4352285 13.6466351,53.2201644 14.2463573,52.6772157 C14.9307462,52.0496516 15.2129684,51.1435619 15.093024,49.9589465 C14.966024,48.7743311 14.4544962,47.4416388 13.5584406,45.9608696 C13.0786628,45.1640747 12.5353851,44.3426003 11.9286073,43.4964465 L10.3093573,41.3176003 C8.46785729,38.8990106 7.22255174,36.9563824 6.57344063,35.4897157 C5.50805174,33.0922798 4.96830174,30.2435619 4.95419062,26.9435619 C4.94713507,24.6871516 5.31402396,22.7022157 6.05485729,20.9887542 C6.80274618,19.2541388 7.82932951,18.0518952 9.13460729,17.3820234 C7.6882184,17.7486901 7.26488507,17.7698439 7.86460729,17.4454849 C8.49255174,17.1140747 9.16988507,16.8708055 9.89660729,16.7156773 C10.7079962,16.5393952 11.4841073,16.5393952 12.2249406,16.7156773 C13.0504406,16.9060619 13.8971073,17.3256132 14.7649406,17.9743311 C17.1920517,19.8006132 18.744274,22.2826644 19.4216073,25.4204849 C19.9084406,27.6909978 20.0107462,31.0650362 19.728524,35.5426003 C19.3686906,41.3176003 19.5203851,45.8692029 20.1836073,49.197408 C21.3689406,55.2192029 24.1523573,59.2701644 28.5338573,61.3502926 C30.841024,62.4502926 33.095274,63.0708055 35.2966073,63.2118311 C37.2721628,63.3317029 39.6534128,63.0813824 42.4403573,62.4608696 C44.0984128,62.0871516 45.6400517,61.3855491 47.065274,60.3560619 C48.5046073,59.3195234 49.5206073,58.1666388 50.113274,56.897408 C51.4044406,54.1262542 51.8348295,51.3445234 51.4044406,48.5522157 C50.9952184,45.8515747 49.7181628,42.7736901 47.573274,39.3185619 C46.811274,38.0845875 46.3597184,36.9986901 46.2186073,36.0608696 C46.1268851,35.4685619 46.1586351,34.7176003 46.3138573,33.8079849 L46.9276906,33.7551003 C46.6172462,34.671767 46.5361073,35.5214465 46.684274,36.3041388 C46.8324406,37.1291388 47.2769406,38.1374721 48.017774,39.3291388 C50.2755517,42.9746516 51.6090517,46.133626 52.018274,48.8060619 C52.4768851,51.7958055 51.9018573,54.7643952 50.2931906,57.7118311 C49.7075795,58.783626 48.7621351,59.8166388 47.4568573,60.8108696 C46.0316351,61.8826644 44.5393851,62.6159978 42.9801073,63.0108696 C40.2143295,63.7018952 37.6849128,63.9522157 35.3918573,63.7618311 C33.0564684,63.5643952 30.682274,62.8909978 28.269274,61.7416388 C23.8031073,59.6121516 20.9456073,55.5400362 19.696774,49.5252926 C18.9912184,46.133626 18.8148295,41.5643952 19.1676073,35.8176003 C19.4568851,31.2906773 19.379274,27.9201644 18.934774,25.7060619 C18.299774,22.5188824 16.7934128,20.0615106 14.4156906,18.3339465 C13.5408017,17.7063824 12.7964406,17.3150362 12.1826073,17.159908 C11.5969962,17.0118311 10.9161351,17.022408 10.140024,17.1916388 C7.00030174,18.8627926 5.44102396,22.2650362 5.46219063,27.3983696 C5.46924618,30.6067029 6.05132951,33.3919593 7.20844063,35.7541388 C7.65999618,36.6778567 8.25266285,37.6579849 8.98644063,38.6945234 L11.0501906,41.4339465 L12.7858573,43.6762542 C13.4984684,44.6140747 14.0805517,45.4567029 14.5321073,46.2041388 C15.442274,47.6990106 15.8973573,49.0951644 15.8973573,50.3926003 C15.8903017,51.6054208 15.4987184,52.5643952 14.7226073,53.2695234 C14.0664406,53.8618311 13.1703851,54.0980491 12.0344406,53.9781773 C10.9055517,53.8653567 9.82605174,53.4246516 8.79594063,52.6560619 C6.62988507,51.0272157 4.74605174,48.4393952 3.14444063,44.8926003 C1.28882951,40.7958055 0.248135069,36.2371516 0.0223572917,31.2166388 C-0.0693649306,29.1365106 0.121135069,27.1374721 0.593857292,25.2195234 C1.08774618,23.2240106 1.8462184,21.4752926 2.86927396,19.9733696 C3.97699618,18.3515747 5.30344063,17.0365106 6.84860729,16.0281773 C8.41494063,15.0057414 10.0976906,14.3676003 11.8968573,14.1137542 C15.2411906,13.6483696 18.204524,14.3006132 20.7868573,16.0704849 C23.0093573,17.5935619 24.5933295,19.6490106 25.538774,22.2368311 C25.9762184,23.4426003 26.4630517,25.4522157 26.999274,28.2656773 C27.570774,31.3611901 27.9623573,33.3672798 28.174024,34.2839465 C28.6961351,36.5403567 29.2605795,38.2044593 29.8673573,39.2762542 C30.2201351,39.9038183 30.7104962,40.446767 31.3384406,40.9051003 C32.0651628,41.4409978 32.7848295,41.6807414 33.4974406,41.6243311 C34.0901073,41.5820234 34.5804684,41.359908 34.968524,40.9579849 C35.349524,40.5631132 35.7587462,39.8579849 36.1961906,38.8426003 C36.6477462,37.8060619 36.6089406,36.3147157 36.079774,34.3685619 C35.9245517,33.7762542 35.4094962,32.3025362 34.5346073,29.947408" id="Path" fill="#0D131A"></path>
                            <path d="M44.9168573,40.7358696 C45.9258017,40.446767 46.8853573,40.5525362 47.795524,41.0531773 C48.3317462,41.3493311 48.8362184,41.7794593 49.3089406,42.3435619 C49.6123295,42.7102285 49.8345795,43.0804208 49.9756906,43.4541388 C50.1168017,43.834908 50.0109684,43.7608696 49.6581906,43.2320234 C49.2348573,42.5833055 48.7021628,42.0544593 48.0601073,41.6454849 C47.1217184,41.0531773 46.1409962,40.8804208 45.1179406,41.1272157 C44.2218851,41.3458055 43.4246073,42.1108696 42.7261073,43.422408 C42.0346628,44.7339465 41.4913851,46.5002926 41.096274,48.7214465 C40.6094406,51.4784978 39.8192184,52.8076644 38.7256073,52.7089465 C38.0976628,52.6525362 37.4168017,52.1166388 36.683024,51.1012542 C36.1044684,50.297408 35.762274,49.6839465 35.6564406,49.2608696 L35.6564406,49.2714465 C35.3459962,48.3900362 35.1061073,47.4804208 34.936774,46.5426003 C34.8238851,45.9714465 34.6968851,45.1041388 34.555774,43.9406773 L34.2276906,41.9522157 L34.587524,41.7406773 L34.8521073,43.8983696 C34.9932184,45.0477285 35.1166906,45.9044593 35.222524,46.4685619 C35.3989128,47.3993311 35.6388017,48.2983696 35.9421906,49.1656773 L35.952774,49.197408 C36.0374406,49.5640747 36.3690517,50.1458055 36.9476073,50.9426003 C37.667274,51.9438824 38.3058017,52.4339465 38.8631906,52.4127926 C39.7169128,52.3775362 40.3589684,51.1294593 40.7893573,48.6685619 C41.1985795,46.3698439 41.7489128,44.5470875 42.4403573,43.2002926 C43.1459128,41.8323439 43.9714128,41.0108696 44.9168573,40.7358696" id="Path" fill="#0D131A"></path>
                            <path d="M42.9271906,25.7483696 C43.1247462,26.2278567 43.2658573,26.6192029 43.350524,26.922408 C43.4704684,27.3948439 43.5057462,27.8320234 43.4563573,28.2339465 C43.3999128,28.6922798 43.2482184,29.1858696 43.001274,29.7147157 C42.7261073,30.3140747 42.5426628,30.8252926 42.4509406,31.2483696 C42.366274,31.6361901 42.2957184,31.8442029 42.239274,31.872408 C42.175774,31.9006132 42.1581351,31.7031773 42.1863573,31.2801003 C42.2286906,30.7301003 42.3909684,30.1166388 42.6731906,29.4397157 C42.9342462,28.8121516 43.0612462,28.3573439 43.0541906,28.0752926 C43.0471351,27.2714465 42.9166073,26.5451644 42.6626073,25.8964465 C42.5426628,25.6073439 42.5285517,25.4451644 42.620274,25.409908 C42.7119962,25.3676003 42.8143017,25.4804208 42.9271906,25.7483696" id="Path" fill="#0D131A"></path>
                            <path d="M44.8533573,25.8012542 C44.9521351,25.321767 45.033274,25.3676003 45.096774,25.9387542 C45.1532184,26.4958055 45.1567462,27.0070234 45.1073573,27.472408 C45.0720795,27.8108696 45.160274,28.209267 45.3719406,28.6676003 L45.795274,29.4926003 L46.0281073,30.1589465 C46.1268851,30.5185619 46.1939128,30.9733696 46.2291906,31.5233696 C46.2362462,31.7067029 46.2009684,31.7595875 46.1233573,31.6820234 C46.0386906,31.6044593 45.985774,31.4775362 45.9646073,31.3012542 L45.7106073,30.2329849 C45.5342184,29.6618311 45.3613573,29.2740106 45.192024,29.0695234 C44.9944684,28.8227285 44.8568851,28.3749721 44.779274,27.7262542 C44.7016628,27.0422798 44.7263573,26.4006132 44.8533573,25.8012542" id="Path" fill="#0D131A"></path>
                            <path d="M51.9018573,2.3416388 C52.6003573,2.97625418 52.8649406,3.42401059 52.6956073,3.68490803 C52.4345517,4.09388239 52.1382184,4.6791388 51.8066073,5.44067726 C51.4044406,6.39260033 51.192774,7.12240803 51.1716073,7.63010033 C51.446774,8.29997213 51.6161073,8.81824136 51.6796073,9.18490803 C51.7572184,9.65029264 51.7113573,10.0663183 51.542024,10.4329849 C51.3938573,10.7432414 51.1504406,11.0993311 50.811774,11.5012542 L50.1026906,12.3262542 C50.2790795,12.8762542 50.3602184,13.6518952 50.3461073,14.6531773 C50.3390517,15.7108696 50.2191073,16.4442029 49.986274,16.8531773 C49.7816628,17.2057414 49.3653851,17.6182414 48.7374406,18.0906773 L47.636774,18.8627926 C47.4039406,19.6313824 47.1852184,20.1567029 46.9806073,20.4387542 C46.7618851,20.7208055 46.4161628,20.9252926 45.9434406,21.0522157 L44.1548573,21.422408 C43.414024,21.5352285 42.9413017,21.5458055 42.7366906,21.4541388 C42.5461906,21.3695234 42.3521628,21.2567029 42.1546073,21.1156773 L41.9111906,20.9252926 L41.6571906,21.0839465 C41.4596351,21.1615106 41.2832462,21.1227285 41.128024,20.9676003 L40.302524,19.909908 C39.9003573,19.3740106 39.6534128,19.0813824 39.5616906,19.0320234 L38.9901906,18.3445234 C38.0588573,17.9355491 37.2651073,17.5618311 36.6089406,17.2233696 C35.3671628,16.5887542 34.5839962,16.0387542 34.2594406,15.5733696 C33.8502184,14.9951644 33.6173851,14.2618311 33.5609406,13.3733696 C33.4974406,12.4355491 33.6456073,11.5083055 34.0054406,10.5916388 C34.9226628,8.25061315 35.1978295,6.42785674 34.8309406,5.12336957 C34.6616073,4.51695931 34.3441073,3.81535674 33.8784406,3.01856187 L33.0211906,1.62240803 C32.8800795,1.36151059 32.8659684,1.11471572 32.9788573,0.882023411 C33.0846906,0.649331104 33.3034128,0.473049052 33.635024,0.353177258 C34.0230795,0.205100334 34.651024,0.134587514 35.5188573,0.141638796 C36.4501906,0.148690078 36.9617184,0.272087514 37.0534406,0.511831104 C37.2016073,0.885549052 37.4309128,1.35445931 37.7413573,1.91856187 C38.1294128,2.60958751 38.4504406,3.07497213 38.7044406,3.31471572 C39.5652184,2.91279264 40.842274,2.68362598 42.5356073,2.62721572 C44.7369406,2.54965162 46.4655517,2.95510033 47.7214406,3.84356187 C48.0601073,3.78715162 48.4269962,3.61086957 48.8221073,3.31471572 C49.2101628,3.03266444 49.446524,2.771767 49.5311906,2.53202341 C49.6299684,2.15830546 49.7216906,1.8868311 49.8063573,1.71760033 C49.954524,1.40734392 50.1520795,1.28042085 50.399024,1.3368311 C50.7518017,1.41439521 51.2527462,1.7493311 51.9018573,2.3416388" id="Path" fill="#E6D4E7"></path>
                            <path d="M34.2911906,1.27336957 C34.3829128,1.56247213 34.6086906,2.04195931 34.968524,2.7118311 C35.7658017,4.19260033 36.1185795,5.28554905 36.0268573,5.99067726 L35.4659406,9.96760033 C35.2472184,11.7163183 35.2084128,13.0067029 35.349524,13.8387542 C35.4976906,14.7201644 36.0938851,15.6192029 37.1381073,16.5358696 C37.794274,17.121126 38.7644128,17.808626 40.048524,18.5983696 C40.9304684,19.1413183 41.6289684,19.7406773 42.144024,20.3964465 C42.6308573,21.0169593 43.0471351,21.4188824 43.3928573,21.6022157 C42.9836351,21.6445234 42.6132184,21.5422798 42.2816073,21.2954849 L41.9111906,20.9252926 L41.6571906,21.0839465 C41.4596351,21.1615106 41.2832462,21.1227285 41.128024,20.9676003 L40.302524,19.909908 C39.9003573,19.3740106 39.6534128,19.0813824 39.5616906,19.0320234 L38.873774,19.1272157 C38.8455517,19.1131132 38.7996906,18.9544593 38.7361906,18.6512542 C38.6726906,18.3409978 38.6091906,18.171767 38.5456906,18.1435619 C37.4520795,17.6429208 36.6759684,17.2692029 36.2173573,17.022408 C35.2013573,16.472408 34.5487184,15.9893952 34.2594406,15.5733696 C33.8502184,14.9951644 33.6173851,14.2618311 33.5609406,13.3733696 C33.4974406,12.4355491 33.6456073,11.5083055 34.0054406,10.5916388 C34.9226628,8.25061315 35.1978295,6.42785674 34.8309406,5.12336957 C34.6616073,4.51695931 34.3441073,3.81535674 33.8784406,3.01856187 L33.0211906,1.62240803 C32.8800795,1.36151059 32.8659684,1.11471572 32.9788573,0.882023411 C33.0846906,0.649331104 33.3034128,0.473049052 33.635024,0.353177258 C33.7973017,0.289715719 34.0442462,0.240356745 34.3758573,0.205100334 C34.1783017,0.451895206 34.1500795,0.80798495 34.2911906,1.27336957" id="Path" fill="#CEA6CC"></path>
                            <path d="M49.5311906,2.53202341 C49.6299684,2.15830546 49.7216906,1.8868311 49.8063573,1.71760033 C49.954524,1.40734392 50.1520795,1.28042085 50.399024,1.3368311 C50.6248017,1.38619008 50.9493573,1.57657469 51.3726906,1.90798495 C51.1116351,1.82336957 50.8999684,1.86215162 50.7376906,2.0243311 C50.6459684,2.11599777 50.5119128,2.34516444 50.335524,2.7118311 C49.9121906,3.5791388 49.3689128,4.15381828 48.7056906,4.43586957 C48.5363573,4.51343367 48.2682462,4.40061315 47.9013573,4.09740803 C47.3086906,3.60381828 47.2487184,3.5192029 47.7214406,3.84356187 C48.0601073,3.78715162 48.4269962,3.61086957 48.8221073,3.31471572 C49.2101628,3.03266444 49.446524,2.771767 49.5311906,2.53202341" id="Path" fill="#CEA6CC"></path>
                            <path d="M49.7428573,12.7704849 C49.9192462,12.5942029 49.9368851,12.946767 49.795774,13.8281773 C49.6476073,14.6884337 49.510024,15.2278567 49.383024,15.4464465 L48.8644406,16.197408 C48.5751628,16.521767 48.2329684,16.7368311 47.8378573,16.8426003 C47.7179128,15.5169593 48.3529128,14.1595875 49.7428573,12.7704849" id="Path" fill="#FFFFFF"></path>
                            <path d="M49.7851906,13.5954849 C49.4535795,13.9692029 48.9173573,14.4134337 48.176524,14.9281773 C48.3599684,14.6038183 48.589274,14.2477285 48.8644406,13.859908 C49.1960517,13.3874721 49.4888573,13.0243311 49.7428573,12.7704849 C49.8486906,12.6647157 49.8628017,12.9397157 49.7851906,13.5954849" id="Path" fill="#DBDCDC"></path>
                            <path d="M38.6938573,10.8877926 C39.1383573,10.9018952 39.7274962,11.5153567 40.461274,12.7281773 C41.2162184,13.9692029 41.6501351,15.0797798 41.763024,16.059908 C41.4525795,16.3701644 40.7964128,16.2820234 39.794524,15.7954849 C38.8349684,15.3230491 38.238774,14.8576644 38.0059406,14.3993311 C37.8154406,14.0044593 37.8401351,13.309908 38.080024,12.3156773 C38.3128573,11.3496516 38.5174684,10.8736901 38.6938573,10.8877926" id="Path" fill="#FFFFFF"></path>
                            <path d="M38.6938573,10.8877926 C39.1030795,10.9018952 39.6428295,11.4695234 40.3131073,12.5906773 C40.9904406,13.7188824 41.4173017,14.7801003 41.5936906,15.7743311 C41.3679128,14.9563824 40.8775517,14.184267 40.1226073,13.4579849 L38.270524,11.6387542 C38.4398573,11.1240106 38.5809684,10.8736901 38.6938573,10.8877926" id="Path" fill="#DBDCDC"></path>
                            <path d="M39.2441906,11.2897157 L39.794524,12.0301003 C40.1966906,12.6083055 40.4859684,13.1230491 40.6623573,13.5743311 C40.6411906,14.2301003 40.5177184,14.7554208 40.2919406,15.1502926 C40.0308851,15.608626 39.7239684,15.6897157 39.3711906,15.3935619 C38.9831351,15.0762542 38.7820517,14.5438824 38.7679406,13.7964465 C38.7538295,13.0701644 38.9125795,12.2345875 39.2441906,11.2897157" id="Path" fill="#A586BC"></path>
                            <path d="M40.6623573,13.5743311 L40.620024,14.0608696 C40.3589684,13.722408 40.0449962,13.3698439 39.6781073,13.0031773 L38.9478573,12.2733696 C39.0254684,11.9278567 39.1242462,11.5999721 39.2441906,11.2897157 L39.794524,12.0301003 C40.1966906,12.6083055 40.4859684,13.1230491 40.6623573,13.5743311" id="Path" fill="#8F75A3"></path>
                            <path d="M49.160774,13.4368311 C49.160774,14.0573439 49.0443573,14.7025362 48.811524,15.372408 C48.5363573,16.1833055 48.2259128,16.4159978 47.8801906,16.0704849 C47.9719128,15.5204849 48.2118017,14.9176003 48.5998573,14.2618311 C48.7974128,13.9304208 48.9843851,13.6554208 49.160774,13.4368311" id="Path" fill="#A586BC"></path>
                            <path d="M49.0866906,14.2301003 L48.3141073,14.7801003 C48.4763851,14.4557414 48.6668851,14.134908 48.8856073,13.8176003 L49.160774,13.4368311 L49.0866906,14.2301003" id="Path" fill="#8F75A3"></path>
                            <path d="M43.3611073,12.6329849 C43.3258295,12.4214465 43.3540517,12.308626 43.445774,12.2945234 C43.5304406,12.2874721 43.5868851,12.3756132 43.6151073,12.5589465 C43.7068295,13.0877926 43.7385795,13.5602285 43.7103573,13.9762542 C43.6609684,14.5192029 43.509274,15.097408 43.255274,15.7108696 C43.2058851,15.8377926 43.1529684,15.8871516 43.096524,15.8589465 C43.033024,15.8236901 43.033024,15.7355491 43.096524,15.5945234 C43.2799684,15.1643952 43.3858017,14.6002926 43.414024,13.9022157 C43.4351906,13.3733696 43.4175517,12.9502926 43.3611073,12.6329849" id="Path" fill="#0D131A"></path>
                            <path d="M37.8471906,13.6695234 C37.8330795,13.1195234 37.9036351,12.4954849 38.0588573,11.797408 C38.1999684,11.1698439 38.3446073,10.7291388 38.492774,10.4752926 L38.7996906,10.7714465 C38.6797462,10.9759337 38.524524,11.4413183 38.334024,12.1676003 C38.1505795,12.8868311 38.0553295,13.3839465 38.048274,13.6589465 C38.0412184,13.9127926 38.0059406,14.0326644 37.9424406,14.0185619 C37.8859962,13.997408 37.8542462,13.8810619 37.8471906,13.6695234" id="Path" fill="#0D131A"></path>
                            <path d="M38.2916906,14.8964465 C38.1717462,14.7554208 38.1294128,14.6637542 38.1646906,14.6214465 C38.1929128,14.5791388 38.2846351,14.6426003 38.4398573,14.8118311 C38.7291351,15.1291388 39.0148851,15.3688824 39.2971073,15.5310619 C39.6004962,15.7002926 40.0344128,15.8695234 40.5988573,16.0387542 L41.032774,16.2079849 L40.5988573,16.1868311 C40.0838017,16.0881132 39.6463573,15.9400362 39.286524,15.7426003 C38.9125795,15.5381132 38.5809684,15.2560619 38.2916906,14.8964465" id="Path" fill="#0D131A"></path>
                            <path d="M43.699774,20.5339465 C43.636274,20.4845875 43.6151073,20.4317029 43.636274,20.3752926 C43.6574406,20.3188824 43.7209406,20.3083055 43.826774,20.3435619 C43.9326073,20.3858696 44.0102184,20.4352285 44.0596073,20.4916388 L44.1654406,20.6820234 C44.2007184,20.7525362 44.2007184,20.7913183 44.1654406,20.7983696 C44.1301628,20.8124721 44.0843017,20.7983696 44.0278573,20.7560619 L43.699774,20.5339465" id="Path" fill="#0D131A"></path>
                            <path d="M49.5629406,14.7272157 C49.6617184,14.2829849 49.7111073,13.6377926 49.7111073,12.7916388 C49.7111073,12.6858696 49.7463851,12.5977285 49.8169406,12.5272157 L49.954524,12.5377926 L49.9439406,13.4262542 C49.8945517,13.9692029 49.827524,14.3993311 49.7428573,14.7166388 C49.6864128,14.8999721 49.6334962,14.9951644 49.5841073,15.0022157 C49.5276628,15.009267 49.5206073,14.9176003 49.5629406,14.7272157" id="Path" fill="#0D131A"></path>
                            <path d="M47.8061073,16.8108696 C47.9613295,16.7685619 48.1553573,16.6733696 48.3881906,16.5252926 C48.6492462,16.3560619 48.8468017,16.1833055 48.9808573,16.0070234 C49.1219684,15.8166388 49.2031073,15.7320234 49.224274,15.7531773 L49.097274,16.0387542 C48.9632184,16.2784978 48.7515517,16.5006132 48.462274,16.7051003 C48.2364962,16.8602285 48.0248295,16.9659978 47.827274,17.022408 L47.8061073,16.8108696" id="Path" fill="#0D131A"></path>
                            <path d="M48.779774,15.1820234 C48.9208851,14.7025362 49.0090795,14.2230491 49.0443573,13.7435619 C48.4587462,14.596767 48.1059684,15.3583055 47.986024,16.0281773 C48.0777462,16.1057414 48.1659406,16.1304208 48.2506073,16.1022157 C48.4340517,16.0246516 48.6104406,15.7179208 48.779774,15.1820234 M49.0866906,13.3733696 L49.256024,13.1618311 L49.256024,13.4368311 C49.256024,14.0009337 49.2031073,14.5227285 49.097274,15.0022157 C48.9349962,15.7073439 48.6774684,16.1339465 48.3246906,16.2820234 C48.1412462,16.3454849 47.9719128,16.296126 47.8166906,16.1339465 L47.7849406,16.1022157 L47.7849406,16.0493311 C47.8766628,15.4993311 48.1165517,14.8964465 48.5046073,14.2406773 C48.6951073,13.909267 48.8891351,13.6201644 49.0866906,13.3733696" id="Shape" fill="#0D131A"></path>
                            <path d="M37.9636073,10.0839465 C37.9283295,9.94997213 38.0835517,9.99227982 38.429274,10.2108696 C38.9231628,10.521126 39.5228851,11.2121516 40.2284406,12.2839465 C41.0680517,13.5602285 41.5831073,14.7589465 41.7736073,15.8801003 C41.8371073,16.2326644 41.7524406,16.1198439 41.5196073,15.5416388 C41.0186628,14.2865106 40.4083573,13.1512542 39.6886906,12.1358696 C39.1877462,11.4307414 38.7044406,10.8736901 38.238774,10.4647157 C38.0835517,10.3236901 37.9918295,10.196767 37.9636073,10.0839465" id="Path" fill="#0D131A"></path>
                            <path d="M40.1014406,13.6483696 C40.1014406,13.9304208 40.0591073,14.1701644 39.9744406,14.3676003 C39.8827184,14.5720875 39.7733573,14.6743311 39.6463573,14.6743311 C39.5193573,14.6743311 39.413524,14.5720875 39.3288573,14.3676003 C39.2371351,14.1701644 39.191274,13.9304208 39.191274,13.6483696 C39.191274,13.3663183 39.2371351,13.1230491 39.3288573,12.9185619 C39.413524,12.721126 39.5193573,12.622408 39.6463573,12.622408 C39.7733573,12.622408 39.8827184,12.721126 39.9744406,12.9185619 C40.0591073,13.1230491 40.1014406,13.3663183 40.1014406,13.6483696" id="Path" fill="#0D131A"></path>
                            <path d="M48.621024,15.0127926 L48.4411073,15.5945234 C48.3705517,15.7567029 48.3070517,15.8307414 48.2506073,15.8166388 C48.1941628,15.8095875 48.1624128,15.7179208 48.1553573,15.5416388 C48.1483017,15.3653567 48.1694684,15.1608696 48.2188573,14.9281773 C48.2753017,14.6954849 48.3388017,14.5015747 48.4093573,14.3464465 C48.4869684,14.1913183 48.5504684,14.1172798 48.5998573,14.1243311 C48.6563017,14.1384337 48.6880517,14.2301003 48.6951073,14.3993311 L48.621024,15.0127926" id="Path" fill="#0D131A"></path>
                            <path d="M39.6781073,13.0877926 C39.6781073,13.2288183 39.6463573,13.3451644 39.5828573,13.4368311 C39.5123017,13.5355491 39.4311628,13.584908 39.3394406,13.584908 C39.2477184,13.584908 39.1701073,13.5355491 39.1066073,13.4368311 C39.0360517,13.3381132 39.000774,13.221767 39.000774,13.0877926 C39.000774,12.9538183 39.0360517,12.8374721 39.1066073,12.7387542 C39.1701073,12.6400362 39.2477184,12.5906773 39.3394406,12.5906773 C39.4311628,12.5906773 39.5123017,12.6400362 39.5828573,12.7387542 C39.6463573,12.8304208 39.6781073,12.946767 39.6781073,13.0877926" id="Path" fill="#FFFFFF"></path>
                            <path d="M52.2511073,4.09740803 C52.5333295,3.74484392 52.5615517,3.3817029 52.335774,3.00798495 C52.2017184,2.78234392 51.9089128,2.48971572 51.4573573,2.13010033 C50.9987462,1.77048495 50.6636073,1.56952341 50.4519406,1.52721572 C50.1697184,1.4567029 49.9404128,1.71407469 49.764024,2.2993311 L49.668774,2.58490803 C49.5629406,2.89516444 49.3794962,3.17369008 49.1184406,3.42048495 C48.7868295,3.73074136 48.4199406,3.88586957 48.017774,3.88586957 C48.5469406,4.36535674 48.8185795,4.65798495 48.8326906,4.76375418 C48.8468017,4.86952341 48.7550795,4.84484392 48.557524,4.68971572 L48.049524,4.24548495 C47.8237462,4.05510033 47.5556351,3.88234392 47.2451906,3.72721572 C45.8764128,3.05029264 44.2536351,2.74003623 42.3768573,2.79644649 C40.8881351,2.8317029 39.7416073,3.03619008 38.937274,3.40990803 L39.0536906,3.5791388 L39.572274,4.02336957 C39.699274,4.11503623 39.7521906,4.18554905 39.731024,4.23490803 C39.7169128,4.27721572 39.6463573,4.27721572 39.5193573,4.23490803 C39.1665795,4.11503623 38.8032184,3.8118311 38.429274,3.32529264 C37.9283295,2.67657469 37.5896628,2.084267 37.413274,1.54836957 C37.2580517,1.08298495 37.0922462,0.755100334 36.9158573,0.564715719 C36.7818017,0.423690078 36.302024,0.342600334 35.476524,0.321446488 C34.651024,0.300292642 34.0548295,0.356702899 33.6879406,0.490677258 C33.3704406,0.610549052 33.1693573,0.779779822 33.0846906,0.998369565 C33.0211906,1.17465162 33.0458851,1.36151059 33.158774,1.55894649 L33.476274,2.07721572 L34.2806073,3.43106187 C34.6051628,4.03747213 34.8379962,4.58747213 34.9791073,5.08106187 C35.1837184,5.80029264 35.159024,6.73458751 34.905024,7.88394649 L34.079524,10.7185619 C33.7055795,11.9525362 33.5433017,12.9397157 33.5926906,13.6801003 C33.635024,14.3429208 33.8678573,14.9775362 34.2911906,15.5839465 C34.7568573,16.246767 36.1503295,17.0470875 38.4716073,17.984908 C38.6621073,18.0554208 38.8067462,18.2775362 38.905524,18.6512542 C39.0395795,19.1801003 39.1171906,20.0756132 39.1383573,21.3377926 L39.7416073,21.6656773 C40.1508295,21.9054208 40.3695517,22.0746516 40.397774,22.1733696 C40.4259962,22.2791388 40.2884128,22.2685619 39.985024,22.1416388 L38.7573573,21.559908 C36.6689128,20.5163183 35.0214406,20.3893952 33.8149406,21.1791388 C33.285774,21.5317029 32.936524,22.0252926 32.7671906,22.659908 C32.5978573,23.3156773 32.6366628,24.034908 32.8836073,24.8176003 C33.0811628,24.4650362 33.3563295,24.1371516 33.7091073,23.8339465 C34.111274,23.4743311 34.4993295,23.259267 34.873274,23.1887542 C35.2824962,23.1111901 35.6599684,23.2345875 36.0056906,23.5589465 C36.4149128,23.9326644 36.7571073,24.5284978 37.032274,25.3464465 C37.3074406,26.1714465 37.445024,27.0317029 37.445024,27.9272157 C37.445024,28.1246516 37.3921073,28.4384337 37.286274,28.8685619 C37.1804406,29.2634337 37.1381073,29.6054208 37.159274,29.8945234 C37.2298295,30.7829849 37.7448851,31.7384337 38.7044406,32.7608696 C39.5652184,33.6775362 40.2354962,34.1570234 40.715274,34.1993311 C40.9833851,34.2275362 41.3291073,34.1605491 41.7524406,33.9983696 C42.112274,33.8643952 42.4650517,33.6810619 42.810774,33.4483696 C43.1706073,33.208626 43.414024,33.0570234 43.541024,32.9935619 C44.0913573,32.7397157 44.5429128,32.6551003 44.8956906,32.7397157 C45.0791351,32.7890747 45.3437184,32.9547798 45.6894406,33.2368311 C45.9646073,33.4554208 46.2044962,33.5823439 46.4091073,33.6176003 C46.6278295,33.659908 46.7936351,33.5858696 46.906524,33.3954849 C47.5838573,32.2884337 48.1624128,31.0544593 48.6421906,29.6935619 C49.0584684,28.5089465 49.3265795,27.4442029 49.446524,26.4993311 C49.5664684,25.6390747 49.3724406,24.6483696 48.8644406,23.5272157 C48.3282184,22.3284978 47.732024,21.7714465 47.0758573,21.8560619 C46.6948573,21.9054208 46.3244406,21.9865106 45.9646073,22.0993311 L45.0121073,22.4272157 C44.5041073,22.6387542 44.1089962,22.7656773 43.826774,22.8079849 L43.318774,22.8291388 C43.2341073,22.7868311 43.3716906,22.6951644 43.731524,22.5541388 C43.4634128,22.4906773 43.2094128,22.2156773 42.969524,21.7291388 C42.6167462,21.6374721 42.2569128,21.4435619 41.890024,21.147408 L41.286774,21.0839465 C41.0609962,20.9922798 40.8775517,20.8618311 40.7364406,20.6926003 L40.2178573,19.9627926 C39.9638573,19.5890747 39.7804128,19.3493311 39.667524,19.2435619 C39.5052462,19.0884337 39.413524,18.9650362 39.3923573,18.8733696 C39.3782462,18.7817029 39.4593851,18.7887542 39.635774,18.8945234 C39.7768851,18.9861901 40.0308851,19.2682414 40.397774,19.7406773 L41.001024,20.5233696 C41.2620795,20.784267 41.4949128,20.8970875 41.699524,20.8618311 L41.5196073,20.5551003 C41.1456628,19.9768952 40.8634406,19.6525362 40.6729406,19.5820234 C40.5388851,19.5326644 40.4683295,19.4762542 40.461274,19.4127926 C40.4542184,19.3493311 40.5106628,19.3352285 40.6306073,19.3704849 C40.8493295,19.4480491 41.0504128,19.5714465 41.2338573,19.7406773 L41.6466073,20.2377926 C42.1334406,20.9147157 42.6943573,21.3025362 43.3293573,21.4012542 C43.9502462,21.4929208 44.811024,21.3272157 45.9116906,20.9041388 C46.3209128,20.7419593 46.6595795,20.4775362 46.9276906,20.1108696 C47.1534684,19.7865106 47.3404406,19.3563824 47.4886073,18.8204849 C47.7073295,18.0377926 47.827274,17.7557414 47.8484406,17.9743311 C47.8625517,18.1012542 47.8378573,18.3127926 47.7743573,18.6089465 C48.7903573,18.171767 49.4818017,17.5618311 49.8486906,16.7791388 C50.0603573,16.3278567 50.1626628,15.5698439 50.1556073,14.5051003 C50.1414962,13.3063824 50.1556073,12.6083055 50.1979406,12.4108696 C48.8009406,13.8563824 48.0389406,15.3547798 47.9119406,16.9060619 C47.8978295,17.1034978 47.859024,17.2268952 47.795524,17.2762542 C47.7179128,17.3256132 47.6755795,17.1810619 47.668524,16.8426003 C47.6332462,15.7073439 48.0918573,14.5121516 49.0443573,13.2570234 C49.1784128,13.0807414 49.6123295,12.5906773 50.3461073,11.7868311 C50.8893851,11.1945234 51.2421628,10.7220875 51.4044406,10.3695234 C51.5526073,10.0522157 51.5631906,9.57625418 51.4361906,8.9416388 C51.3374128,8.41984392 51.2033573,8.00381828 51.034024,7.69356187 L50.589524,6.98490803 C50.4343017,6.74516444 50.3954962,6.63234392 50.4731073,6.64644649 C50.684774,6.67465162 50.875274,6.86151059 51.0446073,7.20702341 C51.1645517,6.53010033 51.3726906,5.84965162 51.669024,5.16567726 C51.9018573,4.62977982 52.0958851,4.27369008 52.2511073,4.09740803 M52.8331906,3.24067726 C52.9108017,3.41695931 52.9108017,3.60734392 52.8331906,3.8118311 L52.494524,4.37240803 C52.304024,4.64740803 52.0853017,5.0916388 51.8383573,5.70510033 C51.5208573,6.48074136 51.351524,7.11535674 51.3303573,7.60894649 C51.7184128,8.33522854 51.9300795,8.98042085 51.9653573,9.54452341 C51.986524,9.9041388 51.9406628,10.2038183 51.827774,10.4435619 C51.700774,10.7044593 51.5032184,11.0041388 51.2351073,11.3426003 C50.9811073,11.659908 50.748274,11.9067029 50.5366073,12.0829849 C50.4448851,12.5413183 50.4272462,13.3839465 50.4836906,14.6108696 C50.5401351,15.6685619 50.4554684,16.4512542 50.2296906,16.9589465 C50.0109684,17.4595875 49.7040517,17.8685619 49.3089406,18.1858696 C48.9208851,18.496126 48.4058295,18.7534978 47.763774,18.9579849 C47.5521073,19.6772157 47.3263295,20.184908 47.0864406,20.4810619 C46.8606628,20.7631132 46.493774,21.0028567 45.985774,21.2002926 C44.8498295,21.6304208 43.9749406,21.8243311 43.3611073,21.7820234 C43.5939406,22.1204849 43.8514684,22.3284978 44.1336906,22.4060619 L44.5358573,22.2685619 L45.7741073,21.8137542 C46.3456073,21.6304208 46.8218573,21.5246516 47.2028573,21.4964465 C48.0142462,21.4329849 48.7198017,22.0570234 49.319524,23.3685619 C49.9121906,24.6730491 50.0709406,25.8999721 49.795774,27.0493311 C49.3653851,28.8192029 48.9208851,30.2470875 48.462274,31.3329849 C48.1729962,32.009908 47.7849406,32.7326644 47.2981073,33.5012542 C46.9806073,33.9877926 46.6701628,34.1781773 46.366774,34.072408 L45.731774,33.7127926 L45.1496906,33.3002926 C44.9591906,33.1522157 44.8004406,33.0605491 44.6734406,33.0252926 C44.461774,32.9759337 44.1266351,33.0570234 43.668024,33.2685619 C43.5198573,33.3390747 43.2905517,33.483626 42.9801073,33.7022157 C42.4862184,34.033626 42.1087462,34.2627926 41.8476906,34.3897157 C41.4031906,34.6153567 41.0292462,34.7105491 40.7258573,34.6752926 C40.1825795,34.6188824 39.4664406,34.1570234 38.5774406,33.2897157 C37.6319962,32.3589465 37.0393295,31.4634337 36.7994406,30.6031773 C36.7006628,30.271767 36.6794962,29.9791388 36.7359406,29.7252926 L36.9581906,28.9426003 C37.1063573,28.2374721 37.0675517,27.3419593 36.841774,26.2560619 C36.6018851,25.1278567 36.2561628,24.3028567 35.8046073,23.7810619 C35.7552184,23.7317029 35.5929406,23.6752926 35.317774,23.6118311 L34.6616073,23.5483696 C34.4217184,23.5906773 34.0019128,23.9361901 33.4021906,24.584908 L32.587274,25.5368311 C32.2203851,24.5214465 32.0933851,23.6012542 32.206274,22.7762542 C32.3121073,21.9653567 32.6331351,21.334267 33.1693573,20.8829849 C34.3899684,19.8746516 36.2420517,19.9804208 38.7256073,21.2002926 C38.7961628,20.9534978 38.7961628,20.4810619 38.7256073,19.7829849 C38.6550517,19.0919593 38.556274,18.5913183 38.429274,18.2810619 C37.5543851,18.0201644 36.6548017,17.6464465 35.730524,17.159908 C34.7215795,16.6310619 34.0513017,16.1409978 33.7196906,15.6897157 C33.2399128,15.0480491 32.9964962,14.3922798 32.9894406,13.722408 C32.9753295,13.1089465 33.1658295,12.1605491 33.5609406,10.8772157 L34.5134406,7.63010033 C34.7815517,6.53010033 34.8379962,5.70862598 34.682774,5.16567726 C34.5487184,4.69324136 34.3194128,4.17144649 33.9948573,3.60029264 L33.2011073,2.32048495 L32.7248573,1.66471572 C32.5908017,1.43202341 32.5696351,1.17465162 32.6613573,0.892600334 C32.7319128,0.688113155 32.8342184,0.53298495 32.968274,0.427215719 C33.0670517,0.356702899 33.2328573,0.275613155 33.4656906,0.183946488 C33.8466906,0.0429208473 34.4887462,-0.0170150502 35.3918573,0.00413879599 C36.3725795,0.0252926421 36.9828851,0.152215719 37.222774,0.384908027 C37.4414962,0.596446488 37.6461073,0.991318283 37.8366073,1.56952341 C38.0341628,2.16888239 38.3375517,2.69067726 38.746774,3.13490803 C39.7909962,2.70477982 40.9904406,2.45798495 42.3451073,2.39452341 C44.3912184,2.28875418 46.2115517,2.70477982 47.8061073,3.64260033 C48.1094962,3.5791388 48.4128851,3.43811315 48.716274,3.21952341 C48.9914406,3.02208751 49.160774,2.84227982 49.224274,2.68010033 L49.4888573,1.84452341 C49.6511351,1.30862598 49.9651073,1.09003623 50.430774,1.18875418 C50.7764962,1.26631828 51.1786628,1.4743311 51.637274,1.81279264 C52.1946628,2.22881828 52.5933017,2.70477982 52.8331906,3.24067726" id="Shape" fill="#0D131A"></path>
                            <path d="M35.0426073,40.7358696 C36.0727184,40.1083055 37.0040517,40.1294593 37.8366073,40.7993311 C38.6056628,41.4127926 39.2159684,42.4986901 39.667524,44.0570234 C40.1049684,45.5730491 40.334274,47.3076644 40.3554406,49.2608696 C40.3695517,51.2916388 40.1543573,53.2518952 39.7098573,55.1416388 C39.4205795,56.3685619 38.8314406,57.6025362 37.9424406,58.8435619 L36.7253573,60.472408 C36.2103017,61.1634337 35.7834406,61.7874721 35.444774,62.3445234 C32.8977184,66.5259337 31.4901351,70.7813824 31.222024,75.1108696 C31.0879684,77.2403567 31.2784684,79.5143952 31.793524,81.9329849 C33.0211906,82.5746516 33.4233573,83.5159978 33.000024,84.7570234 C32.6966351,85.6384337 32.0122462,86.1884337 30.9468573,86.4070234 C29.8955795,86.6185619 29.0594962,86.4140747 28.4386073,85.7935619 L27.3696906,85.909908 L26.078524,86.1954849 C25.7328017,86.9499721 25.0413573,87.4047798 24.0041906,87.559908 C22.8541351,87.7291388 21.8769406,87.3518952 21.0726073,86.4281773 C20.458774,85.7230491 20.3176628,84.8980491 20.649274,83.9531773 C20.9808851,83.0012542 21.6123573,82.4301003 22.5436906,82.2397157 C23.3127462,80.8647157 24.014774,79.4192029 24.649774,77.9031773 C25.348274,76.246126 25.8386351,75.1496516 26.1208573,74.6137542 C26.713524,73.4855491 27.2885517,71.4759337 27.8459406,68.584908 C28.4033295,65.6656773 28.5903017,63.6701644 28.4068573,62.5983696 C28.3363017,62.1823439 28.0681906,61.4736901 27.602524,60.472408 C27.1298017,59.4429208 26.7840795,58.3358696 26.5653573,57.1512542 C26.0573573,54.4576644 26.7629128,51.3692029 28.682024,47.8858696 C30.4811906,44.6070234 32.6013851,42.2236901 35.0426073,40.7358696" id="Path" fill="#E6D4E7"></path>
                            <path d="M31.8993573,43.3906773 C30.8198573,46.3310619 30.1460517,49.0669593 29.8779406,51.5983696 C29.6239406,54.0522157 29.6803851,56.9538183 30.047274,60.3031773 C30.301274,62.5948439 30.2977462,64.4493311 30.0366906,65.8666388 C29.761524,67.3192029 28.9395517,69.8083055 27.570774,73.3339465 C27.1121628,74.5185619 26.4701073,76.5845875 25.6446073,79.5320234 C25.0519406,81.647408 24.6215517,82.7438824 24.3534406,82.8214465 C23.5491073,83.0611901 22.8999962,83.5089465 22.4061073,84.1647157 C21.6511628,85.1589465 21.7887462,86.2730491 22.8188573,87.5070234 C22.1556351,87.3589465 21.5735517,86.9993311 21.0726073,86.4281773 C20.4093851,85.6666388 20.1765517,84.947408 20.3741073,84.2704849 C20.5928295,83.4807414 21.4042184,82.6381132 22.808274,81.7426003 C22.9634962,81.6438824 23.4221073,80.6990106 24.1841073,78.9079849 C25.1224962,76.7079849 25.7680795,75.2765747 26.1208573,74.6137542 C26.713524,73.4855491 27.2885517,71.4759337 27.8459406,68.584908 C28.4033295,65.6656773 28.5903017,63.6701644 28.4068573,62.5983696 C28.3363017,62.1823439 28.0681906,61.4736901 27.602524,60.472408 C27.1298017,59.4429208 26.7840795,58.3358696 26.5653573,57.1512542 C26.1702462,55.0781773 26.5300795,52.7018952 27.6448573,50.022408 C28.6608573,47.5685619 30.079024,45.3579849 31.8993573,43.3906773" id="Path" fill="#CEA6CC"></path>
                            <path d="M32.2803573,85.7829849 C31.7370795,86.234267 31.0773851,86.4634337 30.301274,86.4704849 C29.5181073,86.4775362 28.8972184,86.2518952 28.4386073,85.7935619 L27.3696906,85.909908 L26.078524,86.1954849 L26.015024,85.6454849 C25.9585795,85.2083055 25.8809684,84.8980491 25.7821906,84.7147157 C25.9444684,84.5595875 26.3854406,84.4220875 27.1051073,84.3022157 C27.888274,84.1611901 28.332774,84.221126 28.4386073,84.4820234 C28.6714406,85.0390747 29.1441628,85.4339465 29.856774,85.6666388 C30.5411628,85.8922798 31.349024,85.9310619 32.2803573,85.7829849" id="Path" fill="#CEA6CC"></path>
                            <path d="M31.190274,76.2743311 C31.444274,76.3166388 31.7018017,76.4788183 31.9628573,76.7608696 C32.2450795,77.0640747 32.4461628,77.4166388 32.5661073,77.8185619 C32.8694962,78.8621516 32.523774,79.7858696 31.5289406,80.5897157 L31.190274,76.2743311" id="Path" fill="#E6D4E7"></path>
                            <path d="M31.5289406,80.5897157 L31.4654406,79.7858696 C31.8817184,79.6448439 32.2450795,79.4438824 32.555524,79.1829849 C32.4003017,79.683626 32.0581073,80.1525362 31.5289406,80.5897157" id="Path" fill="#CEA6CC"></path>
                            <path d="M37.635524,40.8522157 C36.8876351,40.3163183 36.0515517,40.3268952 35.127274,40.8839465 C32.6789962,42.371767 30.5658573,44.7409978 28.7878573,47.9916388 C26.9181351,51.4256132 26.2337462,54.4682414 26.7346906,57.1195234 C26.8828573,57.9163183 27.0768851,58.646126 27.316774,59.3089465 C27.4508295,59.6826644 27.6519128,60.158626 27.920024,60.7368311 L28.3116073,61.6252926 C28.4386073,61.9426003 28.5268017,62.2563824 28.5761906,62.5666388 C28.7596351,63.6666388 28.5761906,65.6692029 28.0258573,68.5743311 C27.475524,71.4865106 26.8899128,73.5243311 26.269024,74.6877926 C25.951524,75.3012542 25.5528851,76.1861901 25.0731073,77.3426003 L23.983024,79.8176003 C23.5103017,80.8400362 23.1681073,81.4887542 22.9564406,81.7637542 L21.855774,82.7051003 C21.3124962,83.1422798 20.9632462,83.5829849 20.808024,84.0272157 C20.6528017,84.4502926 20.5963573,84.8768952 20.6386906,85.3070234 C20.6880795,85.7583055 20.839774,86.1320234 21.093774,86.4281773 C21.7993295,87.2390747 22.7518295,87.559908 23.951274,87.3906773 C24.3746073,87.3272157 24.7556073,87.1756132 25.094274,86.9358696 C25.3976628,86.7243311 25.6410795,86.4563824 25.824524,86.1320234 C25.9585795,85.9063824 25.9656351,85.5855491 25.8456906,85.1695234 C25.7469128,84.8522157 25.729274,84.7006132 25.792774,84.7147157 C25.9973851,84.771126 26.1455517,84.9897157 26.237274,85.3704849 L26.300774,85.9204849 C26.935774,85.7371516 27.5496073,85.6454849 28.142274,85.6454849 C27.8529962,85.2788183 27.7401073,85.0496516 27.8036073,84.9579849 C27.8459406,84.9015747 27.9235517,84.9368311 28.0364406,85.0637542 L28.555024,85.6666388 C28.8019684,85.9345875 29.1547462,86.1214465 29.6133573,86.2272157 C30.0719684,86.3329849 30.5341073,86.3294593 30.999774,86.2166388 C32.0510517,85.9698439 32.6719406,85.5044593 32.8624406,84.8204849 C33.0247184,84.2563824 33.0141351,83.7275362 32.8306906,83.2339465 C32.6331351,82.6980491 32.2591906,82.3137542 31.7088573,82.0810619 C31.412524,81.9541388 31.0279962,81.9118311 30.555274,81.9541388 C30.2307184,81.9893952 30.0896073,81.9682414 30.1319406,81.8906773 C30.237774,81.7073439 30.4882462,81.608626 30.8833573,81.5945234 L31.444274,81.6262542 C30.8304406,78.2134337 30.8304406,74.909908 31.444274,71.7156773 C32.0722184,68.4579849 33.349274,65.2496516 35.2754406,62.0906773 C35.508274,61.7028567 35.8716351,61.2022157 36.365524,60.5887542 L37.445024,59.234908 C38.0870795,58.3887542 38.5139406,57.7682414 38.7256073,57.3733696 C39.0572184,56.7740106 39.3288573,56.0159978 39.540524,55.0993311 C40.2249128,52.2294593 40.3730795,49.3490106 39.985024,46.4579849 C39.5969684,43.5740106 38.8138017,41.7054208 37.635524,40.8522157 M34.9473573,40.5877926 C35.9986351,39.946126 36.9617184,39.9426003 37.8366073,40.5772157 C38.7256073,41.2188824 39.4064684,42.2518952 39.8791906,43.6762542 C40.3801351,45.1922798 40.6164962,47.0679208 40.588274,49.3031773 C40.5600517,51.7006132 40.5036073,53.2060619 40.4189406,53.8195234 C40.1014406,56.1182414 39.3323851,57.9198439 38.111774,59.2243311 C37.667274,59.696767 37.2333573,60.197408 36.810024,60.7262542 C36.2244128,61.4384337 35.8187184,62.0095875 35.5929406,62.4397157 C34.3370517,64.8159978 33.3633851,67.1429208 32.6719406,69.4204849 C31.8958295,71.9801003 31.507774,74.3881132 31.507774,76.6445234 C31.507774,77.6669593 31.5289406,78.5095875 31.571274,79.172408 C31.634774,80.0820234 31.7511906,80.9281773 31.920524,81.7108696 L31.9416906,81.8272157 C32.9929684,82.3913183 33.5362462,83.1034978 33.571524,83.9637542 C33.5997462,84.8028567 33.3422184,85.4515747 32.7989406,85.909908 C32.3685517,86.2765747 31.7829406,86.509267 31.0421073,86.6079849 C29.8920517,86.7560619 29.0065795,86.5409978 28.3856906,85.9627926 L27.3696906,86.0791388 L26.1949406,86.3435619 C26.0114962,86.7031773 25.7398573,87.0134337 25.380024,87.2743311 C25.0060795,87.5422798 24.5792184,87.7220875 24.0994406,87.8137542 C22.6742184,88.109908 21.5206351,87.8031773 20.6386906,86.8935619 C20.363524,86.6115106 20.1765517,86.2413183 20.077774,85.7829849 C19.9578295,85.1906773 20.0389684,84.584267 20.3211906,83.9637542 C20.554024,83.4631132 20.8750517,83.0259337 21.284274,82.6522157 L22.5331073,81.6897157 C22.7729962,81.5063824 23.0516906,80.9986901 23.3691906,80.1666388 L24.173524,78.0089465 L25.9409406,73.9156773 C26.5688851,72.3079849 27.0980517,70.4182414 27.5284406,68.2464465 C27.9588295,66.0676003 28.174024,64.1954849 28.174024,62.6301003 C28.174024,62.446767 28.0399684,62.0801003 27.7718573,61.5301003 L26.9146073,59.784908 C26.0961628,58.0432414 25.7398573,56.6153567 25.8456906,55.5012542 C26.1208573,52.6031773 27.1721351,49.7015747 28.999524,46.7964465 C30.7493017,44.0111901 32.7319128,41.9416388 34.9473573,40.5877926" id="Shape" fill="#0D131A"></path>
                            <path d="M31.1691073,76.4329849 L31.222024,76.1262542 C31.5254128,76.1826644 31.8217462,76.3307414 32.111024,76.5704849 C32.4496906,76.8595875 32.7001628,77.2192029 32.8624406,77.6493311 C33.0247184,78.0794593 33.0388295,78.5730491 32.904774,79.1301003 C32.7283851,79.8634337 32.301524,80.3887542 31.6241906,80.7060619 L31.4336906,80.4627926 C31.9628573,80.0397157 32.2979962,79.5637542 32.4391073,79.034908 C32.5378851,78.6682414 32.5378851,78.3015747 32.4391073,77.934908 C32.3403295,77.5470875 32.1568851,77.2051003 31.888774,76.9089465 C31.6418295,76.6339465 31.4019406,76.4752926 31.1691073,76.4329849" id="Path" fill="#0D131A"></path>
                            <path d="M35.6881906,29.0695234 L35.603524,29.122408 C34.7215795,29.6794593 33.5574128,30.9240106 32.111024,32.8560619 C30.8057462,34.5977285 29.9484962,35.9445234 29.539274,36.8964465 C29.1794406,37.7284978 28.6855517,39.5618311 28.0576073,42.3964465 C27.4296628,45.2381132 27.1368573,46.9762542 27.1791906,47.6108696 C27.2144684,48.1326644 27.5566628,48.647408 28.205774,49.1551003 L29.602774,50.2445234 C29.8285517,50.5265747 29.9873017,51.0765747 30.079024,51.8945234 C30.1778017,52.7900362 30.2413017,53.2659978 30.269524,53.322408 C30.4811906,53.7595875 30.6117184,54.0804208 30.6611073,54.284908 C30.7246073,54.5669593 30.7246073,54.8913183 30.6611073,55.2579849 C30.5905517,55.6317029 30.301274,55.9208055 29.793274,56.1252926 C29.3134962,56.3156773 28.8478295,56.3544593 28.396274,56.2416388 C28.5373851,56.7140747 28.5938295,57.0983696 28.5656073,57.3945234 C28.523274,57.8246516 28.3186628,58.1983696 27.951774,58.5156773 C27.507274,58.9034978 27.0028017,59.0445234 26.4383573,58.9387542 C25.9444684,58.8470875 25.5740517,58.6214465 25.3271073,58.2618311 C24.7838295,57.9797798 24.1876351,57.3768952 23.538524,56.4531773 C22.9246906,57.6166388 21.9474962,57.9268952 20.6069406,57.3839465 C20.141274,57.2006132 19.7391073,56.7775362 19.4004406,56.1147157 C19.2452184,55.797408 19.0229684,55.208626 18.7336906,54.3483696 C18.5431906,53.784267 18.4514684,53.3118311 18.458524,52.9310619 C18.458524,52.5009337 18.5784684,52.1166388 18.8183573,51.7781773 L20.1836073,50.0858696 C20.903274,49.1480491 21.379524,48.2983696 21.6123573,47.5368311 C21.8734128,46.683626 22.6248295,44.6951644 23.8666073,41.5714465 C25.0025517,38.7227285 25.8456906,36.6672798 26.396024,35.4051003 C26.7840795,34.4954849 27.5848851,33.159267 28.7984406,31.3964465 L31.6771073,27.334908 C32.0651628,26.4817029 32.6049128,25.6531773 33.2963573,24.8493311 C33.9878017,24.0454849 34.5275517,23.6118311 34.9156073,23.5483696 C35.3530517,23.4778567 35.667024,23.6118311 35.857524,23.9502926 C36.048024,24.2817029 36.238524,25.0185619 36.429024,26.1608696 C36.5913017,27.1057414 36.5172184,27.8743311 36.206774,28.4666388 C36.0515517,28.7627926 35.8786906,28.9637542 35.6881906,29.0695234 M21.951024,52.084908 C21.4924128,52.4656773 21.2807462,52.7371516 21.316024,52.8993311 L21.5806073,53.6820234 L22.1838573,53.7666388 C22.6283573,53.872408 22.9599684,54.0522157 23.1786906,54.3060619 L23.0411073,52.5397157 L22.9246906,51.5983696 C22.7412462,51.534908 22.4166906,51.6970875 21.951024,52.084908 M26.2901906,53.7137542 C26.1561351,54.5317029 26.237274,55.0817029 26.5336073,55.3637542 L27.158024,55.3531773 C27.4402462,55.3954849 27.634274,55.4624721 27.7401073,55.5541388 C27.570774,55.1240106 27.4790517,54.8313824 27.4649406,54.6762542 C27.4367184,54.2108696 27.6413295,53.8089465 28.078774,53.4704849 C27.7330517,52.9698439 27.4261351,52.6595875 27.158024,52.5397157 L26.7029406,52.5185619 C26.5618295,52.5538183 26.4242462,52.9522157 26.2901906,53.7137542" id="Shape" fill="#E6D4E7"></path>
                            <path d="M36.524274,27.3137542 C36.4325517,26.5804208 36.1256351,26.0374721 35.603524,25.684908 C35.0814128,25.3464465 34.5769406,25.3323439 34.0901073,25.6426003 C33.5609406,25.9740106 32.4249962,27.3595875 30.682274,29.7993311 C28.8689962,32.3377926 27.7753851,34.1499721 27.4014406,35.2358696 C26.8228851,36.9140747 26.2443295,39.1246516 25.665774,41.8676003 C24.9531628,45.2522157 24.7626628,47.3570234 25.094274,48.1820234 C25.4188295,48.9788183 25.6763573,49.4688824 25.8668573,49.6522157 C26.0220795,49.8073439 26.4454128,50.1387542 27.1368573,50.6464465 C27.8212462,51.2246516 28.3363017,51.9297798 28.682024,52.7618311 C29.0136351,53.5515747 29.0383295,54.0240106 28.7561073,54.1791388 C28.4456628,54.3413183 28.2269406,54.5458055 28.0999406,54.7926003 C27.9376628,55.1169593 27.9164962,55.5365106 28.0364406,56.0512542 C27.6624962,55.7903567 27.4719962,55.384908 27.4649406,54.834908 C27.4578851,54.284908 27.6378017,53.8442029 28.0046906,53.5127926 C27.9623573,53.371767 27.9094406,53.2695234 27.8459406,53.2060619 L27.4966906,52.8041388 C27.3132462,52.5714465 27.0557184,52.3775362 26.7241073,52.222408 C26.3995517,52.0813824 26.0961628,52.0143952 25.8139406,52.0214465 C25.5034962,52.0426003 25.2142184,52.2858696 24.9461073,52.7512542 C24.6427184,53.2871516 24.4839684,53.9499721 24.4698573,54.7397157 C24.4628017,55.5576644 24.5051351,56.0829849 24.5968573,56.3156773 C24.6744684,56.4990106 24.935524,56.7881132 25.380024,57.1829849 C25.9233017,57.6624721 26.3043017,57.9656773 26.523024,58.0926003 C26.9251906,58.3323439 27.4296628,58.4874721 28.0364406,58.5579849 C27.0909962,58.9176003 26.2619684,58.8999721 25.5493573,58.5051003 C25.3659128,58.4063824 24.9708017,58.0608696 24.364024,57.4685619 C24.0888573,57.1935619 23.8348573,56.8656773 23.602024,56.484908 C23.3339128,56.033626 23.1998573,55.6704849 23.1998573,55.3954849 L23.221024,53.3541388 C23.2351351,53.1426003 23.1751628,52.7865106 23.0411073,52.2858696 C22.9141073,51.8063824 22.7800517,51.4185619 22.6389406,51.122408 C22.5260517,50.8826644 22.1944406,51.0201644 21.6441073,51.534908 C21.157274,51.9932414 20.8538851,52.3528567 20.7339406,52.6137542 C20.6563295,52.7829849 20.7057184,53.1813824 20.8821073,53.8089465 C21.0584962,54.422408 21.2278295,54.8102285 21.3901073,54.972408 C21.4536073,55.0358696 21.6546906,55.0358696 21.9933573,54.972408 C22.3390795,54.9089465 22.6953851,55.0323439 23.062274,55.3426003 C23.1187184,55.6669593 23.2457184,56.0653567 23.443274,56.5377926 L23.2739406,56.8762542 C23.0763851,57.1301003 22.7800517,57.3310619 22.3849406,57.4791388 C21.919274,57.6554208 21.379524,57.5990106 20.7656906,57.309908 C20.173024,57.0419593 19.7814406,56.6999721 19.5909406,56.2839465 C19.3933851,55.8538183 19.1852462,55.3179208 18.966524,54.6762542 C18.7336906,53.9781773 18.585524,53.4493311 18.522024,53.0897157 C18.4232462,52.4339465 18.8218851,51.6829849 19.7179406,50.8368311 C20.0213295,50.5477285 20.3705795,50.0435619 20.7656906,49.3243311 L21.5806073,47.7272157 C21.6723295,47.5509337 22.0321628,46.5073439 22.6601073,44.5964465 C23.2809962,42.7137542 23.7572462,41.4621516 24.0888573,40.8416388 C24.3287462,40.3903567 24.7661906,39.3220875 25.4011906,37.6368311 C25.9585795,36.134908 26.4136628,35.133626 26.7664406,34.6329849 L28.6608573,31.7454849 C29.5639684,30.3493311 30.206024,29.4150362 30.587024,28.9426003 C30.9327462,28.5124721 31.444274,27.6698439 32.1216073,26.4147157 C32.7707184,25.2089465 33.2011073,24.4861901 33.412774,24.2464465 C33.7584962,23.858626 34.1712462,23.6153567 34.651024,23.5166388 C35.1449128,23.4179208 35.5364962,23.5131132 35.825774,23.8022157 C36.0021628,23.9784978 36.1961906,24.3839465 36.4078573,25.0185619 C36.6900795,25.8858696 36.7288851,26.6509337 36.524274,27.3137542" id="Path" fill="#CEA6CC"></path>
                            <path d="M35.5294406,28.9954849 C35.7834406,28.8333055 35.9069128,28.8121516 35.8998573,28.9320234 C35.8857462,29.0518952 35.8151906,29.1576644 35.6881906,29.2493311 C34.714524,29.9615106 33.5433017,31.2272157 32.174524,33.0464465 C30.9256906,34.7034978 30.0931351,36.0079849 29.6768573,36.959908 C29.317024,37.7778567 28.8266628,39.6006132 28.205774,42.4281773 C27.5848851,45.2486901 27.2920795,46.9727285 27.3273573,47.6002926 C27.348524,47.9458055 27.539024,48.2877926 27.8988573,48.6262542 L28.9466073,49.4089465 C29.3769962,49.7121516 29.698024,49.9977285 29.9096906,50.2656773 C30.079024,50.4701644 30.1813295,50.7909978 30.2166073,51.2281773 L30.2801073,52.4022157 C30.3083295,52.7195234 30.3894684,53.0403567 30.523524,53.3647157 C30.7351906,53.7948439 30.8586628,54.1051003 30.8939406,54.2954849 C30.9433295,54.5352285 30.9327462,54.8525362 30.8621906,55.247408 C30.8339684,55.4025362 30.7528295,55.5682414 30.618774,55.7445234 L30.174274,56.1676003 C29.729774,56.4567029 29.2076628,56.5659978 28.6079406,56.4954849 C28.7702184,56.8762542 28.8125517,57.2640747 28.7349406,57.6589465 C28.650274,58.0397157 28.4774128,58.3464465 28.2163573,58.5791388 C27.9270795,58.8329849 27.4825795,58.9775362 26.8828573,59.0127926 C26.1702462,59.0621516 25.6199128,58.8752926 25.2318573,58.4522157 L24.5756906,57.9233696 L23.538524,56.7176003 C23.2139684,57.2393952 22.8012184,57.5708055 22.300274,57.7118311 C21.792274,57.8458055 21.2101906,57.7823439 20.554024,57.5214465 C20.0601351,57.3240106 19.6509128,56.9220875 19.3263573,56.3156773 C19.0864684,55.8643952 18.8289406,55.1381132 18.553774,54.1368311 C18.363274,53.4387542 18.2715517,52.9663183 18.2786073,52.7195234 C18.2786073,52.3669593 18.4161906,52.0214465 18.6913573,51.6829849 L20.1836073,49.7262542 C20.903274,48.7108696 21.3301351,47.9669593 21.4641906,47.4945234 C21.7040795,46.6272157 22.4343295,44.6317029 23.6549406,41.5079849 C24.776774,38.6310619 25.6128573,36.5685619 26.1631906,35.3204849 C26.4665795,34.6153567 27.3979128,33.1557414 28.9571906,30.9416388 L31.5501073,27.1656773 C32.2203851,25.8329849 32.6684128,25.0009337 32.8941906,24.6695234 C33.5644684,23.6752926 34.2347462,23.1817029 34.905024,23.1886797 L35.159024,23.209908 C35.2436906,23.2310619 35.3601073,23.2909978 35.508274,23.3897157 C35.6141073,23.4602285 35.603524,23.484908 35.476524,23.4637542 L34.8838573,23.4954849 C34.2629684,23.7140747 33.6420795,24.3063824 33.0211906,25.272408 C32.6895795,25.7942029 32.2874128,26.5028567 31.8146906,27.3983696 L29.2323573,31.1426003 C27.7436351,33.3002926 26.8440517,34.7387542 26.5336073,35.4579849 C26.0185517,36.6426003 25.189524,38.6980491 24.046524,41.6243311 C22.840024,44.7198439 22.1027184,46.7012542 21.8346073,47.5685619 C21.5171073,48.6051003 20.6422184,49.9977285 19.2099406,51.7464465 C18.9559406,52.0567029 18.807774,52.3387542 18.7654406,52.5926003 C18.7019406,52.909908 18.7548573,53.3294593 18.9241906,53.8512542 C19.2981351,54.9935619 19.569774,55.7409978 19.7391073,56.0935619 C19.9931073,56.622408 20.2964962,56.9643952 20.649274,57.1195234 C21.1854962,57.359267 21.697024,57.4297798 22.1838573,57.3310619 C22.7271351,57.2111901 23.1328295,56.897408 23.4009406,56.3897157 L23.665524,56.3685619 C24.2088017,57.0313824 24.8049962,57.634267 25.4541073,58.1772157 C25.7998295,58.4240106 26.2161073,58.5685619 26.7029406,58.6108696 C27.1968295,58.6531773 27.5601906,58.5685619 27.793024,58.3570234 C28.1387462,58.0608696 28.3363017,57.7259337 28.3856906,57.3522157 C28.4209684,57.0701644 28.3751073,56.7140747 28.2481073,56.2839465 L28.428024,56.0935619 C28.9713017,56.2275362 29.4581351,56.1570234 29.888524,55.8820234 C30.1072462,55.7409978 30.2765795,55.5083055 30.396524,55.1839465 C30.5940795,54.6621516 30.5341073,54.0698439 30.2166073,53.4070234 C30.0896073,53.1390747 30.0084684,52.8111901 29.9731906,52.4233696 L29.8356073,51.2810619 C29.7509406,50.8368311 29.634524,50.5230491 29.4863573,50.3397157 C29.3029128,50.1140747 28.9959962,49.8531773 28.5656073,49.5570234 C28.0223295,49.1692029 27.6554406,48.8801003 27.4649406,48.6897157 C27.0909962,48.3089465 26.8899128,47.9105491 26.8616906,47.4945234 C26.8264128,46.8810619 27.1474406,45.1570234 27.824774,42.322408 C28.5021073,39.5230491 29.0242184,37.696767 29.3911073,36.8435619 C29.8638295,35.7647157 30.6893295,34.4214465 31.8676073,32.8137542 C33.2646073,30.909908 34.4852184,29.6371516 35.5294406,28.9954849" id="Path" fill="#0D131A"></path>
                            <path d="M21.601774,52.8147157 L21.7181906,53.5022157 L22.2791073,53.6185619 C22.5472184,53.7031773 22.7871073,53.8159978 22.998774,53.9570234 C22.8999962,52.9063824 22.8047462,52.1942029 22.713024,51.8204849 C22.4096351,51.996767 22.1450517,52.1906773 21.919274,52.4022157 C21.6934962,52.5996516 21.5876628,52.7371516 21.601774,52.8147157 M22.6389406,51.3445234 C22.6742184,50.9708055 22.7200795,50.808626 22.776524,50.8579849 C22.8118017,50.8861901 22.8753017,51.0413183 22.967024,51.3233696 L23.1469406,51.9156773 L23.2951073,52.8781773 L23.3691906,54.7608696 C23.3833017,55.2121516 23.3374406,55.2897157 23.2316073,54.9935619 L23.062274,54.4118311 C22.7588851,54.0522157 22.3108573,53.872408 21.7181906,53.872408 C21.6899684,54.1403567 21.6405795,54.3060619 21.570024,54.3695234 C21.4994684,54.4259337 21.4677184,54.3413183 21.474774,54.1156773 C21.4818295,53.9252926 21.4324406,53.6608696 21.3266073,53.322408 L21.1678573,52.8781773 C21.1396351,52.7371516 21.2983851,52.5044593 21.6441073,52.1801003 L22.6389406,51.3445234" id="Shape" fill="#0D131A"></path>
                            <path d="M26.808774,52.634908 C26.5971073,52.9663183 26.459524,53.3893952 26.396024,53.9041388 C26.332524,54.4682414 26.4030795,54.884267 26.6076906,55.1522157 C26.8123017,55.1240106 27.0663017,55.159267 27.3696906,55.2579849 C27.1509684,54.5034978 27.3308851,53.9006132 27.9094406,53.4493311 C27.7471628,53.2518952 27.5319684,53.0615106 27.2638573,52.8781773 C27.031024,52.7230491 26.8793295,52.6419593 26.808774,52.634908 M28.301024,53.5445234 C28.4068573,53.7419593 28.4139128,53.8794593 28.3221906,53.9570234 C28.237524,54.0345875 28.1458017,53.9605491 28.047024,53.734908 C27.7859684,54.0451644 27.6624962,54.3730491 27.6766073,54.7185619 C27.6836628,54.8948439 27.7436351,55.1416388 27.856524,55.4589465 L27.634274,55.6704849 C27.5496073,55.5929208 27.3979128,55.5329849 27.1791906,55.4906773 L26.6606073,55.4801003 C26.8793295,55.7339465 26.9393017,55.8679208 26.840524,55.8820234 C26.7205795,55.9031773 26.523024,55.6916388 26.2478573,55.247408 C26.1067462,55.0147157 26.0185517,54.7855491 25.983274,54.559908 C25.9409406,54.284908 25.9691628,53.9781773 26.0679406,53.6397157 C26.2090517,53.1320234 26.3360517,52.7829849 26.4489406,52.5926003 C26.5406628,52.4374721 26.650024,52.3458055 26.777024,52.3176003 C26.9534128,52.2682414 27.1686073,52.3281773 27.4226073,52.497408 C27.7471628,52.7089465 28.0399684,53.0579849 28.301024,53.5445234" id="Shape" fill="#0D131A"></path>
                            <path d="M27.5284406,55.0041388 C27.5778295,54.8983696 27.6378017,54.9301003 27.7083573,55.0993311 C27.8424128,55.3813824 27.9658851,55.5929208 28.078774,55.7339465 C28.332774,56.0512542 28.6220517,56.2063824 28.9466073,56.1993311 C29.1512184,56.1922798 29.2746906,56.2134337 29.317024,56.2627926 C29.3593573,56.3051003 29.3311351,56.3544593 29.2323573,56.4108696 C28.9642462,56.5518952 28.6608573,56.5554208 28.3221906,56.4214465 C28.110524,56.3368311 27.9235517,56.1817029 27.761274,55.9560619 C27.6131073,55.758626 27.5284406,55.5752926 27.507274,55.4060619 C27.4861073,55.2438824 27.4931628,55.109908 27.5284406,55.0041388" id="Path" fill="#0D131A"></path>
                            <path d="M23.3374406,54.2426003 L23.379774,55.2579849 C23.3938851,55.5752926 23.4468017,55.8291388 23.538524,56.0195234 C23.6866906,56.3368311 23.8807184,56.6365106 24.1206073,56.9185619 C24.3111073,57.2429208 24.3146351,57.3698439 24.1311906,57.2993311 C23.9477462,57.2358696 23.7431351,57.0419593 23.5173573,56.7176003 C23.3127462,56.4355491 23.1751628,56.1817029 23.1046073,55.9560619 C23.0552184,55.8079849 23.0269962,55.6422798 23.0199406,55.4589465 L22.998774,53.9570234 C23.0128851,53.5551003 23.0481628,53.3083055 23.1046073,53.2166388 C23.1822184,53.0897157 23.2598295,53.4317029 23.3374406,54.2426003" id="Path" fill="#0D131A"></path>
                        </g>
                    </g>
                </g>
            </g>
        </g>
    </g>
</svg>