<svg id="mewtwo-icon" xmlns="http://www.w3.org/2000/svg" viewBox="0 0 298.26 415.64">
        <path id="Path" d="M175.8,81.45a4.19,4.19,0,0,1,3.2-.6,6.5,6.5,0,0,1,3.35,1.45q3.71,3,.3,7.35c-2.27,2.87-3.42,5.53-3.45,8,0,1.83.68,4.52,2.15,8q2.06,4.76-1.4,4.9t-7.1-4.9q-3.6-5.06-2.45-13.25,1.09-8,5.4-11" transform="translate(-0.99 -0.03)" style="fill: #e6d4e7"/>
        <path id="Path-2" data-name="Path" d="M225.4,187.2q10.5,6.86,17.8,20.6a91.27,91.27,0,0,1,9.65,33.65q1.8,18.41-3,33.75a59,59,0,0,1-10.2,19.6q-4.46,5.59-5.2,16a69.93,69.93,0,0,0,.45,14q.65,4.76,5.35,9a106.33,106.33,0,0,0,9.8,7.05l15.55,9.65,13,7.5a10.11,10.11,0,0,1,10.6,0q5,2.89,4.8,7.95a7.78,7.78,0,0,1-5.2,7.55,16.26,16.26,0,0,1-8.45.85q-.49,3.34-4.4,5.25-4.45,2.2-12.2,1.8a38.6,38.6,0,0,1-12.3-2.4,15.36,15.36,0,0,1-7.15-5.05,114.39,114.39,0,0,0-9.2-11.15q-7.61-8.25-10.85-8.65-5.44,2.14-9.3,1.1a11,11,0,0,1-6-4.65,7.89,7.89,0,0,1-1.15-5.2,8,8,0,0,1,2.45-5.75,17.41,17.41,0,0,1,2-6.55l3.45-8a34.88,34.88,0,0,0,1.25-16.55q-1.54-9.75-7.45-14.55-4.5-3.71-5.15-22.55a237.71,237.71,0,0,1,2.2-38.8q2.9-22,7.7-34.8,5.44-14.44,11.25-10.65" transform="translate(-0.99 -0.03)" style="fill: #e6d4e7"/>
        <path id="Path-3" data-name="Path" d="M227.2,346.1q.56,4-3,8l-14-14.5a7.72,7.72,0,0,1,6.4-2.25,11.93,11.93,0,0,1,6.9,2.65,9.06,9.06,0,0,1,3.7,6.05" transform="translate(-0.99 -0.03)" style="fill: #e6d4e7"/>
        <path id="Path-4" data-name="Path" d="M232,136.25a87.9,87.9,0,0,0,4.2,14.65,56.66,56.66,0,0,0,7,13.7q4.2,5.66,14,17.15,10.2,12,14,15.55a135.89,135.89,0,0,1,14,7.4q9,5.45,10.3,8.15a35.86,35.86,0,0,1,2.6,9.05q1.05,6.49-.45,10.25a43.49,43.49,0,0,1-4.8,9q-3.35,4.9-6.1,5.95c-3.13,1.17-5.73,1.48-7.8,1-2.6-.63-4.25-2.52-4.95-5.65a8.07,8.07,0,0,1-5.45-.75,6.24,6.24,0,0,1-3.3-4.5,8,8,0,0,1,.85-5.55l2.3-3.2a35.31,35.31,0,0,1-3.6-6.4,17.2,17.2,0,0,1-1.7-7.6q-2-2.66-15.05-17.35-11.35-12.8-12.95-16l-5.7-10.85a120.83,120.83,0,0,1-6.45-14.35q-2.35-6.45,3.1-13.7a29.66,29.66,0,0,1,5.95-5.95" transform="translate(-0.99 -0.03)" style="fill: #e6d4e7"/>
        <path id="Path-5" data-name="Path" d="M286.1,230l-6.85-10.55,4.95,4.15c2.13,1.93,3.07,3.23,2.8,3.9l-.9,2.5" transform="translate(-0.99 -0.03)" style="fill: #e6d4e7"/>
        <path id="Path-6" data-name="Path" d="M287,239.15a6.72,6.72,0,0,1-4.35,3.55,7.67,7.67,0,0,1-5.9-.35A6.78,6.78,0,0,1,273,236.5a14.23,14.23,0,0,1-4.45-8,66.49,66.49,0,0,0-2.05-9.75L279,216a31.56,31.56,0,0,0,.1,6.6q.4,4.45,1.35,5.85a9.41,9.41,0,0,1,4.05,1.3,5.61,5.61,0,0,1,3.15,4,8.58,8.58,0,0,1-.6,5.45" transform="translate(-0.99 -0.03)" style="fill: #e6d4e7"/>
        <path id="Path-7" data-name="Path" d="M184,86.9q-6.7.15-9.35,5.85-1.8,3.94-2.15,12.4-3.25-5.15-2.05-13.05,1.16-7.69,5.35-10.65,1.3-.9,4.2,1.35a23.28,23.28,0,0,1,4,4.1" transform="translate(-0.99 -0.03)" style="fill: #cea6cc"/>
        <path id="Path-8" data-name="Path" d="M214.15,197.85q5.44-14.44,11.25-10.65l4.7,3.6q-3,16.3.2,40.55,1.09,8.35,3.35,20.7l3.6,19.8q-3.1,6-9.6,16.65-5,8.81-5.15,13.85-.65,18.56-2.85,24l-1.7,3.8a30.85,30.85,0,0,0-1.45,7.1,6.26,6.26,0,0,0-2.85,4.45,7,7,0,0,0,1.1,4.7c1.67,2.53,3.72,4,6.15,4.3a8.88,8.88,0,0,0,6.45-1.8l9.9,9.75,11.1,10.65q4.91,4.95,14.75,5.65,10.9.75,17.2-5.6l7.45.25q1-.3,6.1-2.6a7.93,7.93,0,0,1-5.55,6.6,17.43,17.43,0,0,1-8,.7q-.49,3.34-4.4,5.25-4.45,2.2-12.2,1.8a38.6,38.6,0,0,1-12.3-2.4,15.36,15.36,0,0,1-7.15-5.05,114.39,114.39,0,0,0-9.2-11.15q-7.61-8.25-10.85-8.65-5.44,2.14-9.3,1.1a11,11,0,0,1-6-4.65,7.89,7.89,0,0,1-1.15-5.2,8,8,0,0,1,2.45-5.75,17.41,17.41,0,0,1,2-6.55l3.45-8a34.88,34.88,0,0,0,1.25-16.55q-1.54-9.75-7.45-14.55-4.5-3.71-5.15-22.55a237.71,237.71,0,0,1,2.2-38.8q2.9-22,7.7-34.8" transform="translate(-0.99 -0.03)" style="fill: #cea6cc"/>
        <path id="Path-9" data-name="Path" d="M235.05,181.1l-5.7-10.85a120.83,120.83,0,0,1-6.45-14.35q-2.21-6.1,2.55-12.85,3.7,17.5,16.2,36.8,9.79,15.1,17.55,21.65a31.77,31.77,0,0,1,7.05,7.9l2.5,5.5,2.25,8.25q1.8,6.71,3.75,9.45,0,5.51,4.9,7.3,4.61,1.75,6.75-1.1a5.41,5.41,0,0,0-.25-6.5,6.6,6.6,0,0,0-4.95-3.2q-2.29-.15-2.7-5.75c-.23-3.53.08-6.15.95-7.85q3.9,0,8.3,5.4t4.1,9.8q-.25,3.15-6.2,11-5.06,6.56-3.75,6.6-6.5.56-7.95-5.85a8.07,8.07,0,0,1-5.45-.75,6.24,6.24,0,0,1-3.3-4.5,8,8,0,0,1,.85-5.55l2.3-3.2a35.31,35.31,0,0,1-3.6-6.4,17.2,17.2,0,0,1-1.7-7.6q-2-2.66-15.05-17.35-11.35-12.8-12.95-16" transform="translate(-0.99 -0.03)" style="fill: #cea6cc"/>
        <path id="Path-10" data-name="Path" d="M287,227.45l-.9,2.5-6.85-10.55,4.95,4.15c2.13,1.93,3.07,3.23,2.8,3.9" transform="translate(-0.99 -0.03)" style="fill: #cea6cc"/>
        <path id="Shape" d="M182.35,83.3a5.6,5.6,0,0,0-3.1-1.65,3.81,3.81,0,0,0-3.05.4q-2.4,1.65-4.15,6.15a21,21,0,0,0-1.65,7.6,15.71,15.71,0,0,0,3,9.45,13.46,13.46,0,0,0,4.25,4c1.27.67,2.23.82,2.9.45q1.31-.75.1-3.75-2.5-6-1.9-10.15.55-3.9,4.35-8.7c1-1.2,1.23-2.08.8-2.65l-1.6-1.15m-6.95-2.45a5.23,5.23,0,0,1,4-.7,7.18,7.18,0,0,1,4,2.15,6.37,6.37,0,0,1,1.85,3.8,4.54,4.54,0,0,1-1.6,3.9q-5.85,5.3-1.65,15.4a5.84,5.84,0,0,1,.5,4.1,2.69,2.69,0,0,1-1.2,1.45c-1,.57-2.37.47-4-.3a13.88,13.88,0,0,1-5.05-4.55,18.69,18.69,0,0,1-2.8-6.95,23.73,23.73,0,0,1-.25-8.5,14.69,14.69,0,0,1,6.2-9.8" transform="translate(-0.99 -0.03)" style="fill: #0d131a"/>
        <path id="Shape-2" data-name="Shape" d="M225,187.85q-3-1.9-6,2.35-4.4,6-8.05,22.05A247.44,247.44,0,0,0,206,245a206.28,206.28,0,0,0-.65,31.15q.94,14.25,4.6,17.2,6,4.9,7.65,14.7a35.64,35.64,0,0,1-1.25,17.3,31.33,31.33,0,0,1-2.85,5,11.75,11.75,0,0,0-1.5,7.5c1.4,0,1.65.2.75.7a7.79,7.79,0,0,0-4.3,6.45,8.42,8.42,0,0,0,1.2,5.4,10.3,10.3,0,0,0,6,4.45A10,10,0,0,0,224.1,353c1.57-1.1,2.22-1.33,2-.7l-.9,1.3q3.9.45,12.2,10.15a120.78,120.78,0,0,1,7.55,9.75q2.15,3,7.15,4.9a39.13,39.13,0,0,0,11.65,2.2q7.55.34,11.8-1.7,3.6-1.75,4-4.65l.15-.8.75.1a18.35,18.35,0,0,0,5.4-.1,9.71,9.71,0,0,0,4.9-2.05,7.09,7.09,0,0,0,2.45-5.45,6.8,6.8,0,0,0-1-3.95,8.8,8.8,0,0,0-3.15-3.15q-3.6-2.25-10-.15a9.07,9.07,0,0,0-1.5.65l-1.25.3c-.3,0-.28-.32.05-.85l.6-.8q-2.7-1.31-12.3-7.1-9.9-6-15.05-9.4l-1.7-1.15a69,69,0,0,1-8.9-6.65,15.08,15.08,0,0,1-4.85-8.8,67.46,67.46,0,0,1-.45-15.15q.94-9.94,5.35-15.45a58.19,58.19,0,0,0,9.85-18.65q5.05-15.4,3.2-34.1a90.41,90.41,0,0,0-8.95-32.3Q235.9,195,225,187.85m-7.4,1.35q4-5.44,8.3-2.7,11.35,7.4,19,22a90.2,90.2,0,0,1,9.5,33.1q.49,5,.5,9.85,0,15.49-4.2,26.45a68.32,68.32,0,0,1-9.45,16.35q-6,8.14-6.05,20.2a78,78,0,0,0,.55,10.25q.49,4.1,5,7.95,1.84,1.61,9.1,6.35l6.1,3.85,12.45,8,10.3,6.2a12.77,12.77,0,0,1,6-1.35,11.56,11.56,0,0,1,6,1.6,10.69,10.69,0,0,1,3.75,3.75,8.58,8.58,0,0,1,1.3,4.8,9,9,0,0,1-3.25,6.7q-3.64,3.11-10.75,2.5-.25,2.81-4.5,4.9-5.36,2.6-14.45,2.2a45.68,45.68,0,0,1-11.85-1.8,13.3,13.3,0,0,1-7-4.8q-4.61-6.41-9.6-12.1-7-8.06-9.95-8.5a13.29,13.29,0,0,1-8.9,1.6,11.5,11.5,0,0,1-7.15-4.85,9.17,9.17,0,0,1-1.45-4.65,10.33,10.33,0,0,1,2.7-7.8l0-3.3a9.92,9.92,0,0,1,1-3.65l2.1-3.35a16.13,16.13,0,0,0,1.95-3.55,36.31,36.31,0,0,0,2-11.2,28.11,28.11,0,0,0-2.4-11.25,22.27,22.27,0,0,0-6.3-8.7Q204.95,292.05,204,284a175.85,175.85,0,0,1-.65-18q0-10,1-21a261.51,261.51,0,0,1,4.6-31.6q3.79-17.4,8.65-24.1" transform="translate(-0.99 -0.03)" style="fill: #0d131a"/>
        <path id="Path-11" data-name="Path" d="M209.75,339.15a8.33,8.33,0,0,1,7.35-2.4,13,13,0,0,1,7.55,3.4A10.73,10.73,0,0,1,227.9,348q.15,5.14-3.05,6.6c-1.63.8-2.72,1-3.25.7s-.32-.72.65-1.15a6.49,6.49,0,0,0,3.95-6.5,8.79,8.79,0,0,0-2.45-6.5,10.71,10.71,0,0,0-6.55-3.1,7.38,7.38,0,0,0-6.5,2.05l-.95-1" transform="translate(-0.99 -0.03)" style="fill: #0d131a"/>
        <path id="Path-12" data-name="Path" d="M270.75,363.55c3.67.33,6.45,1.37,8.35,3.1a8.05,8.05,0,0,1,2.45,3.9,7.52,7.52,0,0,1-.4,5.25c-.77,1.7-1.32,2.22-1.65,1.55a4.94,4.94,0,0,1,0-3.15,6,6,0,0,0-1.9-6.2q-2.44-2.21-7.5-2.7l-7.55.35c-.8.2-1.25.13-1.35-.2s.6-.72,2-1.25a16.92,16.92,0,0,1,7.55-.65" transform="translate(-0.99 -0.03)" style="fill: #0d131a"/>
        <path id="Shape-3" data-name="Shape" d="M231.4,137.75a29.85,29.85,0,0,0-5.05,5.45,15.32,15.32,0,0,0-3.3,8.85,11.16,11.16,0,0,0,.6,3.55,166.81,166.81,0,0,0,9.55,20.2l2.55,4.95q1,2.1,6.1,8.05l10,11.3,10.7,12.45,1,1.55.55,2.9a14.94,14.94,0,0,0,1.45,4.65c.8,1.57,1.53,2.42,2.2,2.55l1.3,5.65a4.82,4.82,0,0,0-1.65,1.15,6.19,6.19,0,0,0-1.5,4.6A5.08,5.08,0,0,0,266,237a5.37,5.37,0,0,0,2.95,4,7.85,7.85,0,0,0,4.85.6l.85-.75.1,1.4a6.36,6.36,0,0,0,3,4.55q3.79,2,8.7-.5,2.4-1.2,5.55-5.6a40.68,40.68,0,0,0,4.85-8.85,14.45,14.45,0,0,0,.8-5.1,36.07,36.07,0,0,0-.85-7.65,21,21,0,0,0-2.1-5.9q-1.9-3.1-11.5-8.5Q273,199.3,270.8,198q-2.9-1.69-13.75-14.65Q247.8,172.3,242.5,165.1a55.64,55.64,0,0,1-6.75-13,86.33,86.33,0,0,1-4.35-14.35m0-2.15,1.05-.75.25,1.3A81.36,81.36,0,0,0,237,150.7a57.85,57.85,0,0,0,6.85,13.4q4.9,6.71,14.3,17.85,10.65,12.65,13.65,14.7a103.57,103.57,0,0,0,11.45,5.8q9,4.76,12.95,10.05a16.08,16.08,0,0,1,2.2,5.95,39.06,39.06,0,0,1,.9,8.3,16,16,0,0,1-.9,5.7,46.13,46.13,0,0,1-4.9,9.3q-3.6,5.35-6.6,6.45-6.25,2.4-10,.4c-1.57-.83-2.75-2.62-3.55-5.35a8.93,8.93,0,0,1-5.55-1.05,7.17,7.17,0,0,1-3.6-4.85,7.83,7.83,0,0,1,.75-5.65l2.35-3.3-.25-1.85a15.66,15.66,0,0,1-3.25-4.4,24.42,24.42,0,0,1-1.4-6.45l-.55-1.4-.7-1.1-3.8-4-7.15-7.55q-5.74-6.5-10.75-12.7a87.78,87.78,0,0,1-7.3-9.95,101.94,101.94,0,0,1-4.9-10.2q-3-6.7-5.1-12.65a11.37,11.37,0,0,1-.75-4.2q0-5.55,4.85-11.35a30.46,30.46,0,0,1,5.2-5" transform="translate(-0.99 -0.03)" style="fill: #0d131a"/>
        <path id="Path-13" data-name="Path" d="M287.3,226a.55.55,0,0,1,.8-.1c.3.23.15.72-.45,1.45a4.51,4.51,0,0,0-1,2.4v1.15c-.9-.17-1.35-.53-1.35-1.1a4.16,4.16,0,0,1,.45-1.55l.5-1q0-.9-6.1-6l-1-.5.4-2.25,2.7,2.3a43.75,43.75,0,0,1,5.1,5.25" transform="translate(-0.99 -0.03)" style="fill: #0d131a"/>
        <path id="Path-14" data-name="Path" d="M287.85,232.1a6.22,6.22,0,0,1,.95,3.3,8.5,8.5,0,0,1-1.55,5.1,8.07,8.07,0,0,1-4.35,3l-3.5.4a8.44,8.44,0,0,1-3.85-1.25A7.47,7.47,0,0,1,272.1,237a12.65,12.65,0,0,1-3.6-5.5,48,48,0,0,1-1.4-6.3l-1.1-7c-.17-.83-.08-1.22.25-1.15s.7.57,1,1.5A45.45,45.45,0,0,1,268.7,225a43.44,43.44,0,0,0,1.4,6,12,12,0,0,0,3.45,5l.25.5a5.57,5.57,0,0,0,3.1,4.75,7.15,7.15,0,0,0,5.05.8,5.91,5.91,0,0,0,4.35-3.3,7.81,7.81,0,0,0,.4-4.35,5.1,5.1,0,0,0-2.2-3.4,8.41,8.41,0,0,0-3.4-1.5l-.8-.25-.75-.9q-1.85-3.8-1.25-11.2a5.93,5.93,0,0,1,.75-2.75c.43-.77.67-.18.7,1.75l.1,6.5a13.48,13.48,0,0,0,1.6,5.5q4.6,1,6.4,4" transform="translate(-0.99 -0.03)" style="fill: #0d131a"/>
        <path id="Path-15" data-name="Path" d="M206.55,126.6q12.49,11.55,13.8,16.75a32.82,32.82,0,0,1,1,11.15c-.17,2.07-.58,4.92-1.25,8.55q-1.35,10,6.3,22.45,15,24.15,17.8,44.3t-6,40.7Q234.95,278,225.25,285a78,78,0,0,1-23.8,11.35q-33.64,9.75-65.95-5.65Q104.6,276,95.9,234.4q-5.06-24.19-2.4-66.4,2-32-1.45-47.95Q87.29,98,70.3,85.6q-9-6.5-17.5-5.75-7.95.75-14.4,7.5-6.26,6.45-9.75,17.05a70.84,70.84,0,0,0-3.55,23q.15,29.5,13.2,50.7,3.56,5.7,13,18.2a246.25,246.25,0,0,1,14.4,20.6q6.8,11.21,7.35,20.1.49,7.91-4,12.25-4.24,4.16-11.25,3.6-7.3-.6-14.65-6.1Q29.2,236.36,17.2,208.8A170.52,170.52,0,0,1,2.6,146.55Q1.4,117,16.7,94.6,32.6,71.35,58.9,67.7A52.88,52.88,0,0,1,99.85,78.5a61,61,0,0,1,21,28.6,124.76,124.76,0,0,1,3.9,16.15L129,145.4q5.9,30.1,12.05,41.1a29.73,29.73,0,0,0,5.9,7.4,19.48,19.48,0,0,0,8.55,4.85q11.3,2.55,18.05-15.4,2.89-7.65-1.7-24.15l-7.8-22.65q-8.85-24.95-2.45-31.2,5.25-5.2,19.75,2.6a123.51,123.51,0,0,1,25.2,18.65" transform="translate(-0.99 -0.03)" style="fill: #e6d4e7"/>
        <path id="Path-16" data-name="Path" d="M206.55,126.6q12.49,11.55,13.8,16.75a34,34,0,0,1,.85,12.25l-1.4,9.5q-5.55-3.15-16.7-.7-10.35,2.29-15,6.45a25.34,25.34,0,0,0-5.9,8.1q-1.05,2.15-3.75,9.25-4.35,11.55-10.9,14.55-6,2.4-9-3.7,9.25-.35,15.05-15.7,2.89-7.65-1.7-24.15l-7.8-22.65q-8.85-24.95-2.45-31.2,5.25-5.2,19.75,2.6a123.51,123.51,0,0,1,25.2,18.65" transform="translate(-0.99 -0.03)" style="fill: #cea6cc"/>
        <path id="Path-17" data-name="Path" d="M70.3,85.6q-9-6.5-17.5-5.75-7.95.75-14.4,7.5-6.26,6.45-9.75,17.05a70.84,70.84,0,0,0-3.55,23q.15,29.5,13.2,50.7,3.56,5.7,13,18.2a246.25,246.25,0,0,1,14.4,20.6q6.8,11.21,7.35,20.1.49,7.91-4,12.25-4.24,4.16-11.25,3.6-7.3-.6-14.65-6.1Q29.2,236.36,17.2,208.8A170.52,170.52,0,0,1,2.6,146.55Q1.4,117,16.7,94.6,32.6,71.35,58.9,67.7A52.88,52.88,0,0,1,99.85,78.5a61,61,0,0,1,21,28.6,124.76,124.76,0,0,1,3.9,16.15L129,145.4q5.9,30.1,12.05,41.1a27.14,27.14,0,0,0,9.35,10.05q7.09,4.5,13.2,1l2.35,17.7a93.09,93.09,0,0,0,4.2,17.45q0,.86,2.8,5.5a30.85,30.85,0,0,0,6.75,8.3q10.35,8.3,14.7-16.25,6.45-36.45,22.2-36.95,8.21-.3,19.6,10.4,8.51,18.65,9.2,34.4a63,63,0,0,1-7.2,32.4q-4.39,8.5-14.2,15.6a74.11,74.11,0,0,1-23.7,11.2q-32.15,9-64.8-6.6Q104.6,276,95.9,234.4q-5.06-24.19-2.4-66.4,2-32-1.45-47.95Q87.29,98,70.3,85.6" transform="translate(-0.99 -0.03)" style="fill: #9b7fa6"/>
        <path id="Path-18" data-name="Path" d="M141.25,186.85a27.31,27.31,0,0,0,9.35,9.8q7,4.31,13,.9.71,4.69-.75,6.9t-.5,6q-13.4-4.2-17.9-9.5-4.24-5-3.2-14.05" transform="translate(-0.99 -0.03)" style="fill: #836b8d"/>
        <path id="Path-19" data-name="Path" d="M70.3,85.6q-9-6.5-17.5-5.75-7.95.75-14.4,7.5-6.26,6.45-9.75,17.05a70.84,70.84,0,0,0-3.55,23q.15,29.5,13.2,50.7,3.56,5.7,13,18.2a246.25,246.25,0,0,1,14.4,20.6q4.65,7.69,5.45,9.55a30,30,0,0,1,2.1,11.75q-4.55,7.8-17-2.25a80.07,80.07,0,0,1-16.95-19.1q-10.7-16.65-17.7-42-9.1-33-4.8-61.25Q19.14,98.26,27,89.65q8.74-9.6,25-11.55,25.31-3,41.25,26.1,7.95,14.51,9.55,48.4.9,18.45.7,48.35.65,19.55,11.9,42.1,12.85,25.76,31.35,35.55a84,84,0,0,0,45.7,9.55q26.45-1.65,45.75-17.65-4.39,8.5-14.2,15.6a74.11,74.11,0,0,1-23.7,11.2q-32.15,9-64.8-6.6Q104.6,276,95.9,234.4q-5.06-24.19-2.4-66.4,2-32-1.45-47.95Q87.29,98,70.3,85.6" transform="translate(-0.99 -0.03)" style="fill: #836b8d"/>
        <path id="Path-20" data-name="Path" d="M182.6,86.5l19.2,8.6,2,5.7c1.47,3.47,3.37,5.48,5.7,6l5.95-2.1a43.5,43.5,0,0,1,7.8-2q5.06-.65,8.5,5.3a36.22,36.22,0,0,1,3.7,10.75q1.5,7.2-4,23-5.4,15.56-10,18.55a1.88,1.88,0,0,1-2.35-.3l-2.65-2.45q-4.16-3.56-9.4-.9l-6.25,4.05q-4.65,2.8-7.3,2.5-4-.45-9.95-6.6-6.8-7.2-7.7-15.3a33.24,33.24,0,0,0,.65-16.8q-1.75-8.85-5.85-12.55-3.56-3.26-7.6-.25a20.89,20.89,0,0,0-5.95,7.7q-3.26-9-.45-14.9,1.54-3.3,6.8-7.25,3.15-2.4,9.75-.6a68.05,68.05,0,0,1,11.25,4.65q1.24-3,.35-8.3a16.68,16.68,0,0,0-2.15-6.6" transform="translate(-0.99 -0.03)" style="fill: #e6d4e7"/>
        <path id="Path-21" data-name="Path" d="M163.4,97.35q3.15-2.4,9.75-.6a68.05,68.05,0,0,1,11.25,4.65q1.24-3,.35-8.3a16.68,16.68,0,0,0-2.15-6.6l20.25,5,.25,3.45a19.63,19.63,0,0,1-.25,4.45q-1.69,8.59-11.7,5.3l-7.1-2.7a54.65,54.65,0,0,0-8.45-2.6q-5.59-1-7.1.4-2,1.91,4,7.5,2.59,2.44,4.9,8.5a48,48,0,0,1,3,16.4q.15,6.4,4.9,15.55t8.35,10.1a11.56,11.56,0,0,0,7.35-.5,14,14,0,0,0,4.5-3.05,8.87,8.87,0,0,1,5.45-2.2c2.8-.33,5,.33,6.6,2a10,10,0,0,0,3.2,2.5,4.66,4.66,0,0,0,3.9,0,13,13,0,0,1-3.3,3.85,1.88,1.88,0,0,1-2.35-.3l-2.65-2.45q-4.16-3.56-9.4-.9l-6.25,4.05q-4.65,2.8-7.3,2.5-4-.45-9.95-6.6-6.8-7.2-7.7-15.3a33.24,33.24,0,0,0,.65-16.8q-1.75-8.85-5.85-12.55-3.56-3.26-7.6-.25a20.89,20.89,0,0,0-5.95,7.7q-3.26-9-.45-14.9,1.54-3.3,6.8-7.25" transform="translate(-0.99 -0.03)" style="fill: #cea6cc"/>
        <path id="Path-22" data-name="Path" d="M164.15,141.6l-.8-4.8q-4.54-12.9-5-20.9l1.4-.8q.35,8.06,5.05,21.25l1.55,4.3,7.55,22.1q3.5,12.9.4,20.85-6,15.41-15.3,16.15-5.4.41-11.1-4.15a30.14,30.14,0,0,1-7.45-8.75q-4.4-7.9-8.3-23.7-2.4-9.65-6-29.15l-3-15.4a96.92,96.92,0,0,0-2.95-11.25,60.31,60.31,0,0,0-20.55-28Q81.5,65.3,59,68.4A58.09,58.09,0,0,0,35.6,77a63.2,63.2,0,0,0-18.3,18,78,78,0,0,0-11,24,90.57,90.57,0,0,0-3,27.45,170,170,0,0,0,15,63q12,26.66,25.3,36.7,6.86,5.15,13.7,5.9t11-3q4.85-4.45,4-12.85t-7.25-18.9q-3.4-5.66-7.7-11.65l-7.65-10.3Q36.65,178.21,32.05,167.8q-7.54-17-7.65-40.4,0-16,5.2-28.15,5.3-12.3,14.55-17-10.24,2.6-6,.3a36.84,36.84,0,0,1,9.6-3.45,24.6,24.6,0,0,1,11,0,32.45,32.45,0,0,1,12,6q17.2,12.94,22,35.2,3.45,16.1,1.45,47.85Q91.65,209,96.35,232.6q8.4,42.71,39.45,57.45a87.12,87.12,0,0,0,31.95,8.8q14,.86,33.75-3.55a59.24,59.24,0,0,0,21.85-9.95q10.2-7.35,14.4-16.35,9.15-19.65,6.1-39.45-2.9-19.16-18.1-43.65-5.4-8.75-6.4-15.4a34.37,34.37,0,0,1,.45-10.65l2.9-.25a23.59,23.59,0,0,0-1.15,12.05q1,5.85,6.3,14.3,16,25.85,18.9,44.8,3.25,21.19-8.15,42.1-4.15,7.61-13.4,14.65a59.26,59.26,0,0,1-21.15,10.4q-19.61,4.91-35.85,3.55a97.14,97.14,0,0,1-33.65-9.55q-31.65-15.11-40.5-57.75-5-24-2.5-64.8,2.06-32.1-1.1-47.8Q86,98.95,69.1,86.7q-6.19-4.45-10.55-5.55a21.07,21.07,0,0,0-9.65.15Q26.66,93.15,26.8,129.55q0,22.75,8.25,39.5a100.63,100.63,0,0,0,8.4,13.9l9.75,13,8.2,10.6a137.39,137.39,0,0,1,8.25,11.95q6.45,10.61,6.45,19.8,0,8.59-5.55,13.6-4.65,4.2-12.7,3.35A30.45,30.45,0,0,1,42.55,249q-15.34-11.55-26.7-36.7Q2.7,183.2,1.1,147.6a99.88,99.88,0,0,1,2.7-28.35,76.15,76.15,0,0,1,10.75-24.8A67.11,67.11,0,0,1,33.35,75.8a58,58,0,0,1,23.85-9q23.7-3.3,42,9.25a59,59,0,0,1,22.45,29.15q3.1,8.55,6.9,28.5,4,21.94,5.55,28.45,3.71,16,8,23.6a24.16,24.16,0,0,0,7,7.7q5.14,3.79,10.2,3.4a10.32,10.32,0,0,0,6.95-3.15q2.7-2.81,5.8-10,3.19-7.35-.55-21.15-1.09-4.2-7.3-20.9" transform="translate(-0.99 -0.03)" style="fill: #0d131a"/>
        <path id="Path-23" data-name="Path" d="M213.2,192.6a17.26,17.26,0,0,1,13.6,1.5,25.53,25.53,0,0,1,7.15,6.1,18.68,18.68,0,0,1,3.15,5.25q1,2.7-1.5-1a24.89,24.89,0,0,0-7.55-7.5,17.43,17.43,0,0,0-13.9-2.45q-6.35,1.55-11.3,10.85t-7.7,25Q191.7,249.9,184,249.2q-4.45-.4-9.65-7.6-4.1-5.7-4.85-8.7v0a83.2,83.2,0,0,1-3.4-12.9q-.8-4.05-1.8-12.3l-1.55-9.4,1.7-1,1.25,10.2q1,8.14,1.75,12.15a88.45,88.45,0,0,0,3.4,12.75l0,.15q.6,2.6,4.7,8.25,5.1,7.1,9,7,6-.26,9.1-17.7,2.9-16.31,7.8-25.85,5-9.7,11.7-11.65" transform="translate(-0.99 -0.03)" style="fill: #0d131a"/>
        <path id="Path-24" data-name="Path" d="M203.8,121.75a53.47,53.47,0,0,1,2,5.55,16.84,16.84,0,0,1,.5,6.2,23.47,23.47,0,0,1-2.15,7,36.4,36.4,0,0,0-2.6,7.25c-.4,1.83-.73,2.82-1,2.95s-.38-.8-.25-2.8a28.77,28.77,0,0,1,2.3-8.7q1.85-4.45,1.8-6.45a28.71,28.71,0,0,0-1.85-10.3c-.57-1.37-.63-2.13-.2-2.3s.92.33,1.45,1.6" transform="translate(-0.99 -0.03)" style="fill: #0d131a"/>
        <path id="Path-25" data-name="Path" d="M212.9,122q.71-3.41,1.15.65a35.28,35.28,0,0,1,0,7.25,11,11,0,0,0,1.25,5.65l2,3.9,1.1,3.15a32.88,32.88,0,0,1,1,6.45c0,.87-.13,1.12-.5.75a2.84,2.84,0,0,1-.75-1.8L217,143a17.3,17.3,0,0,0-2.45-5.5c-.93-1.17-1.58-3.28-1.95-6.35a28.23,28.23,0,0,1,.35-9.1" transform="translate(-0.99 -0.03)" style="fill: #0d131a"/>
        <path id="Path-26" data-name="Path" d="M246.2,11.1q5,4.5,3.75,6.35a63,63,0,0,0-4.2,8.3q-2.85,6.75-3,10.35a38.62,38.62,0,0,1,2.4,7.35,9.88,9.88,0,0,1-.65,5.9,24.73,24.73,0,0,1-3.45,5l-3.35,3.9a36,36,0,0,1,1.15,11q0,7.5-1.7,10.4c-1,1.67-2.93,3.62-5.9,5.85l-5.2,3.65a27.42,27.42,0,0,1-3.1,7.45,8.89,8.89,0,0,1-4.9,2.9l-8.45,1.75q-5.25.8-6.7.15a15.48,15.48,0,0,1-2.75-1.6L199,99l-1.2.75a2.16,2.16,0,0,1-2.5-.55l-3.9-5c-1.9-2.53-3.07-3.92-3.5-4.15l-2.7-3.25q-6.6-2.9-11.25-5.3-8.8-4.5-11.1-7.8a19.89,19.89,0,0,1-3.3-10.4,30.06,30.06,0,0,1,2.1-13.15q6.49-16.6,3.9-25.85a43.7,43.7,0,0,0-4.5-9.95L157,7.7a3.66,3.66,0,0,1-.2-3.5,5,5,0,0,1,3.1-2.5q2.74-1,8.9-1c4.4,0,6.82.62,7.25,1.75A60.79,60.79,0,0,0,179.3,9.1a29.71,29.71,0,0,0,4.55,6.6q6.1-2.85,18.1-3.25,15.6-.55,24.5,5.75a12.37,12.37,0,0,0,5.2-2.5A8.9,8.9,0,0,0,235,12a21.93,21.93,0,0,1,1.3-3.85c.7-1.47,1.63-2.07,2.8-1.8,1.67.37,4,2,7.1,4.75" transform="translate(-0.99 -0.03)" style="fill: #e6d4e7"/>
        <path id="Path-27" data-name="Path" d="M163,6.05a47,47,0,0,0,3.2,6.8q5.66,10.5,5,15.5l-2.65,18.8Q167,59.56,168,65.45q1,6.26,8.45,12.75A99.71,99.71,0,0,0,190.2,88a37.13,37.13,0,0,1,9.9,8.5q3.45,4.39,5.9,5.7a7.25,7.25,0,0,1-5.25-1.45L199,99l-1.2.75a2.16,2.16,0,0,1-2.5-.55l-3.9-5c-1.9-2.53-3.07-3.92-3.5-4.15l-3.25.45A7,7,0,0,1,184,88.2q-.45-2.2-.9-2.4-7.75-3.55-11-5.3-7.2-3.9-9.25-6.85a19.89,19.89,0,0,1-3.3-10.4,30.06,30.06,0,0,1,2.1-13.15q6.49-16.6,3.9-25.85a43.7,43.7,0,0,0-4.5-9.95L157,7.7a3.66,3.66,0,0,1-.2-3.5,5,5,0,0,1,3.1-2.5,14.61,14.61,0,0,1,3.5-.7c-.93,1.17-1.07,2.85-.4,5.05" transform="translate(-0.99 -0.03)" style="fill: #cea6cc"/>
        <path id="Path-28" data-name="Path" d="M235,12a21.93,21.93,0,0,1,1.3-3.85c.7-1.47,1.63-2.07,2.8-1.8a13.39,13.39,0,0,1,4.6,2.7,2.74,2.74,0,0,0-3,.55,14.21,14.21,0,0,0-1.9,3.25q-3,6.15-7.7,8.15c-.8.37-2.07-.17-3.8-1.6q-4.2-3.49-.85-1.2a12.37,12.37,0,0,0,5.2-2.5A8.9,8.9,0,0,0,235,12" transform="translate(-0.99 -0.03)" style="fill: #cea6cc"/>
        <path id="Path-29" data-name="Path" d="M236,60.4c.83-.83.92.83.25,5S234.9,72,234.3,73.05l-2.45,3.55A9.82,9.82,0,0,1,227,79.65q-.85-9.41,9-19.25" transform="translate(-0.99 -0.03)" style="fill: #fff"/>
        <path id="Path-30" data-name="Path" d="M236.2,64.3a44.09,44.09,0,0,1-7.6,6.3c.87-1.53,2-3.22,3.25-5A40.22,40.22,0,0,1,236,60.4q.75-.75.2,3.9" transform="translate(-0.99 -0.03)" style="fill: #dbdcdc"/>
        <path id="Path-31" data-name="Path" d="M183.8,51.5q3.15.11,8.35,8.7Q197.51,69,198.3,76q-2.2,2.2-9.3-1.25-6.8-3.35-8.45-6.6-1.35-2.8.35-9.85,1.65-6.86,2.9-6.75" transform="translate(-0.99 -0.03)" style="fill: #fff"/>
        <path id="Path-32" data-name="Path" d="M183.8,51.5q2.89.11,7.65,8a44.82,44.82,0,0,1,6.05,15,24.26,24.26,0,0,0-6.95-10.95l-8.75-8.6c.8-2.43,1.47-3.62,2-3.55" transform="translate(-0.99 -0.03)" style="fill: #dbdcdc"/>
        <path id="Path-33" data-name="Path" d="M186.4,53.4l2.6,3.5a36.36,36.36,0,0,1,4.1,7.3,16,16,0,0,1-1.75,7.45Q189.51,74.9,187,72.8q-2.75-2.25-2.85-7.55A34.25,34.25,0,0,1,186.4,53.4" transform="translate(-0.99 -0.03)" style="fill: #a586bc"/>
        <path id="Path-34" data-name="Path" d="M193.1,64.2l-.2,2.3a52,52,0,0,0-4.45-5L185,58.05a33.12,33.12,0,0,1,1.4-4.65l2.6,3.5a36.36,36.36,0,0,1,4.1,7.3" transform="translate(-0.99 -0.03)" style="fill: #8f75a3"/>
        <path id="Path-35" data-name="Path" d="M233.25,63.55a27.87,27.87,0,0,1-1.65,9.15q-1.95,5.74-4.4,3.3a25.33,25.33,0,0,1,3.4-8.55,33.39,33.39,0,0,1,2.65-3.9" transform="translate(-0.99 -0.03)" style="fill: #a586bc"/>
        <path id="Path-36" data-name="Path" d="M232.9,67.3l-3.65,2.6a39.09,39.09,0,0,1,2.7-4.55l1.3-1.8-.35,3.75" transform="translate(-0.99 -0.03)" style="fill: #8f75a3"/>
        <path id="Path-37" data-name="Path" d="M205.85,59.75c-.17-1,0-1.53.4-1.6s.67.38.8,1.25a28.71,28.71,0,0,1,.45,6.7,28.12,28.12,0,0,1-2.15,8.2c-.23.6-.48.83-.75.7s-.3-.58,0-1.25a22.91,22.91,0,0,0,1.5-8,28.86,28.86,0,0,0-.25-6" transform="translate(-0.99 -0.03)" style="fill: #0d131a"/>
        <path id="Path-38" data-name="Path" d="M179.8,64.65a36.88,36.88,0,0,1,1-8.85,24.07,24.07,0,0,1,2-6.25L184.3,51a32.41,32.41,0,0,0-2.2,6.6,37.88,37.88,0,0,0-1.35,7c0,1.2-.2,1.77-.5,1.7s-.42-.65-.45-1.65" transform="translate(-0.99 -0.03)" style="fill: #0d131a"/>
        <path id="Path-39" data-name="Path" d="M181.9,70.45c-.57-.67-.77-1.1-.6-1.3s.57.1,1.3.9a17.49,17.49,0,0,0,4.05,3.4,31.76,31.76,0,0,0,6.15,2.4l2,.8-2-.1a21.37,21.37,0,0,1-6.2-2.1,15.72,15.72,0,0,1-4.7-4" transform="translate(-0.99 -0.03)" style="fill: #0d131a"/>
        <path id="Path-40" data-name="Path" d="M207.45,97.1a.63.63,0,0,1-.3-.75q.15-.41.9-.15a2.78,2.78,0,0,1,1.1.7l.5.9c.17.33.17.52,0,.55s-.38,0-.65-.2l-1.55-1.05" transform="translate(-0.99 -0.03)" style="fill: #0d131a"/>
        <path id="Path-41" data-name="Path" d="M235.15,69.65a44.82,44.82,0,0,0,.7-9.15,1.7,1.7,0,0,1,.5-1.25l.65,0L237,63.5a37.66,37.66,0,0,1-.95,6.1q-.41,1.31-.75,1.35c-.27,0-.3-.4-.1-1.3" transform="translate(-0.99 -0.03)" style="fill: #0d131a"/>
        <path id="Path-42" data-name="Path" d="M226.85,79.5a10.8,10.8,0,0,0,2.75-1.35,11,11,0,0,0,2.8-2.45c.67-.9,1-1.3,1.15-1.2l-.6,1.35A9.84,9.84,0,0,1,230,79a10.76,10.76,0,0,1-3,1.5l-.1-1" transform="translate(-0.99 -0.03)" style="fill: #0d131a"/>
        <path id="Shape-4" data-name="Shape" d="M231.45,71.8A32.49,32.49,0,0,0,232.7,65q-4.15,6-5,10.8a1.27,1.27,0,0,0,1.25.35q1.31-.56,2.5-4.35m1.45-8.55.8-1v1.3A34.35,34.35,0,0,1,233,71c-.77,3.33-2,5.35-3.65,6a2.15,2.15,0,0,1-2.4-.7l-.15-.15V75.9a25.33,25.33,0,0,1,3.4-8.55,32.77,32.77,0,0,1,2.75-4.1" transform="translate(-0.99 -0.03)" style="fill: #0d131a"/>
        <path id="Path-43" data-name="Path" d="M180.35,47.7c-.17-.63.57-.43,2.2.6q3.49,2.21,8.5,9.8,6,9,7.3,17c.3,1.67-.1,1.13-1.2-1.6a77.44,77.44,0,0,0-8.65-16.1,46,46,0,0,0-6.85-7.9,4,4,0,0,1-1.3-1.8" transform="translate(-0.99 -0.03)" style="fill: #0d131a"/>
        <path id="Path-44" data-name="Path" d="M190.45,64.55a8.62,8.62,0,0,1-.6,3.4c-.43,1-.95,1.45-1.55,1.45s-1.1-.48-1.5-1.45a8.09,8.09,0,0,1-.65-3.4,8.46,8.46,0,0,1,.65-3.45c.4-.93.9-1.4,1.5-1.4s1.12.47,1.55,1.4a9,9,0,0,1,.6,3.45" transform="translate(-0.99 -0.03)" style="fill: #0d131a"/>
        <path id="Path-45" data-name="Path" d="M230.7,71l-.85,2.75q-.49,1.16-.9,1c-.27,0-.42-.47-.45-1.3a12.25,12.25,0,0,1,.3-2.9,16.13,16.13,0,0,1,.9-2.75q.56-1.09.9-1c.27.07.42.5.45,1.3L230.7,71" transform="translate(-0.99 -0.03)" style="fill: #0d131a"/>
        <path id="Path-46" data-name="Path" d="M188.45,61.9a2.82,2.82,0,0,1-.45,1.65,1.41,1.41,0,0,1-1.15.7,1.3,1.3,0,0,1-1.1-.7,3,3,0,0,1,0-3.3,1.3,1.3,0,0,1,1.1-.7,1.41,1.41,0,0,1,1.15.7,2.82,2.82,0,0,1,.45,1.65" transform="translate(-0.99 -0.03)" style="fill: #fff"/>
        <path id="Shape-5" data-name="Shape" d="M247.85,19.4a4.15,4.15,0,0,0,.4-5.15,18.1,18.1,0,0,0-4.15-4.15q-3.25-2.55-4.75-2.85c-1.33-.33-2.42.88-3.25,3.65l-.45,1.35a9.76,9.76,0,0,1-2.6,3.95,7.44,7.44,0,0,1-5.2,2.2q3.75,3.41,3.85,4.15c.07.5-.37.38-1.3-.35L228,20.1a19,19,0,0,0-3.8-2.45q-9.7-4.8-23-4.4-10.55.25-16.25,2.9l.55.8,2.45,2.1c.6.43.85.77.75,1s-.4.2-1,0c-1.67-.57-3.38-2-5.15-4.3a29.12,29.12,0,0,1-4.8-8.4A13.18,13.18,0,0,0,175.4,2.7q-.94-1-6.8-1.15t-8.45.8a4.51,4.51,0,0,0-2.85,2.4,3.08,3.08,0,0,0,.35,2.65l1.5,2.45,3.8,6.4a41,41,0,0,1,3.3,7.8q1.45,5.1-.35,13.25L162,50.7q-2.66,8.74-2.3,14a17.53,17.53,0,0,0,3.3,9q3.3,4.69,19.75,11.35c.9.33,1.58,1.38,2.05,3.15q.94,3.75,1.1,12.7l2.85,1.55c1.93,1.13,3,1.93,3.1,2.4s-.52.45-1.95-.15L184.1,102q-14.81-7.4-23.35-1.8a11.77,11.77,0,0,0-4.95,7,18.29,18.29,0,0,0,.55,10.2,17.14,17.14,0,0,1,3.9-4.65,11.73,11.73,0,0,1,5.5-3,5.91,5.91,0,0,1,5.35,1.75q2.9,2.66,4.85,8.45a38.34,38.34,0,0,1,2,12.2,21.12,21.12,0,0,1-.75,4.45,14.89,14.89,0,0,0-.6,4.85q.49,6.3,7.3,13.55,6.1,6.49,9.5,6.8a11.1,11.1,0,0,0,4.9-.95,23.64,23.64,0,0,0,5-2.6c1.7-1.13,2.85-1.85,3.45-2.15q3.9-1.8,6.4-1.2a11.92,11.92,0,0,1,3.75,2.35,8.11,8.11,0,0,0,3.4,1.8,2.05,2.05,0,0,0,2.35-1,92.32,92.32,0,0,0,8.2-17.5,74.55,74.55,0,0,0,3.8-15.1q.85-6.1-2.75-14-3.79-8.5-8.45-7.9a30.68,30.68,0,0,0-5.25,1.15l-4.5,1.55a26,26,0,0,1-5.6,1.8l-2.4.1c-.4-.2.25-.63,1.95-1.3q-1.9-.45-3.6-3.9a13.66,13.66,0,0,1-5.1-2.75l-2.85-.3a6.46,6.46,0,0,1-2.6-1.85L191,94.4a24,24,0,0,0-2.6-3.4,4.27,4.27,0,0,1-1.3-1.75c-.07-.43.32-.4,1.15.1a21.4,21.4,0,0,1,3.6,4l2.85,3.7c1.23,1.23,2.33,1.77,3.3,1.6l-.85-1.45c-1.77-2.73-3.1-4.27-4-4.6-.63-.23-1-.5-1-.8s.23-.37.8-.2a8.36,8.36,0,0,1,2.85,1.75l1.95,2.35q3.45,4.8,7.95,5.5t12.2-2.35a10.85,10.85,0,0,0,4.8-3.75,20,20,0,0,0,2.65-6.1q1.54-5.55,1.7-4a10.64,10.64,0,0,1-.35,3q7.2-3.1,9.8-8.65Q238,76.16,238,68.6a78,78,0,0,1,.2-9.9q-9.9,10.24-10.8,21.25c-.07.93-.25,1.52-.55,1.75s-.57-.45-.6-2q-.25-8.06,6.5-17,.95-1.25,6.15-7a29.58,29.58,0,0,0,5-6.7q1.05-2.25.15-6.75a20.53,20.53,0,0,0-1.9-5.9L240,33.05c-.73-1.13-.92-1.67-.55-1.6,1,.13,1.9,1,2.7,2.65a43.37,43.37,0,0,1,2.95-9.65,21.61,21.61,0,0,1,2.75-5.05m2.75-4a3.42,3.42,0,0,1,0,2.7L249,20.7a34.52,34.52,0,0,0-3.1,6.3,28.39,28.39,0,0,0-2.4,9,23.1,23.1,0,0,1,3,9.15,8.77,8.77,0,0,1-.65,4.25,24.08,24.08,0,0,1-2.8,4.25,24.38,24.38,0,0,1-3.3,3.5q-.65,3.26-.25,11.95.41,7.5-1.2,11.1A14.89,14.89,0,0,1,234,86a22.62,22.62,0,0,1-7.3,3.65,21.78,21.78,0,0,1-3.2,7.2,12.17,12.17,0,0,1-5.2,3.4q-8.06,3-12.4,2.75a6.82,6.82,0,0,0,3.65,3l1.9-.65,5.85-2.15a30,30,0,0,1,6.75-1.5q5.75-.45,10,8.85t2.25,17.4a135.38,135.38,0,0,1-6.3,20.25,73.11,73.11,0,0,1-5.5,10.25q-2.25,3.45-4.4,2.7l-3-1.7-2.75-2a7.18,7.18,0,0,0-2.25-1.3q-1.5-.35-4.75,1.15a26.1,26.1,0,0,0-3.25,2,49.18,49.18,0,0,1-5.35,3.25,9.66,9.66,0,0,1-5.3,1.35q-3.85-.4-10.15-6.55-6.7-6.6-8.4-12.7a8.2,8.2,0,0,1-.3-4.15l1-3.7q1.05-5-.55-12.7-1.7-8-4.9-11.7a6.29,6.29,0,0,0-2.3-.8l-3.1-.3c-1.13.2-3.12,1.83-5.95,4.9l-3.85,4.5a27.61,27.61,0,0,1-1.8-13,13.48,13.48,0,0,1,4.55-9q8.66-7.16,26.25,1.5.5-1.75,0-6.7a27.7,27.7,0,0,0-1.4-7.1,71,71,0,0,1-12.75-5.3q-7.16-3.75-9.5-7a15.63,15.63,0,0,1-3.45-9.3q-.1-4.35,2.7-13.45l4.5-15.35q1.9-7.8.8-11.65a34.22,34.22,0,0,0-3.25-7.4L157.85,11,155.6,7.9a4.36,4.36,0,0,1-.3-3.65,4.62,4.62,0,0,1,1.45-2.2A11.86,11.86,0,0,1,159.1.9q2.7-1,9.1-.85c4.63.1,7.52.7,8.65,1.8s2,2.87,2.9,5.6a20.06,20.06,0,0,0,4.3,7.4,50.7,50.7,0,0,1,17-3.5q14.5-.75,25.8,5.9a11.42,11.42,0,0,0,4.3-2,6.54,6.54,0,0,0,2.4-2.55l1.25-3.95c.77-2.53,2.25-3.57,4.45-3.1A16.19,16.19,0,0,1,245,8.6a17.36,17.36,0,0,1,5.65,6.75" transform="translate(-0.99 -0.03)" style="fill: #0d131a"/>
        <path id="Path-47" data-name="Path" d="M166.55,192.6q7.3-4.46,13.2.3,5.44,4.35,8.65,15.4a92.48,92.48,0,0,1,3.25,24.6,117.31,117.31,0,0,1-3.05,27.8,50,50,0,0,1-8.35,17.5l-5.75,7.7q-3.65,4.91-6.05,8.85-18,29.65-19.95,60.35a119.3,119.3,0,0,0,2.7,32.25q8.7,4.54,5.7,13.35-2.15,6.26-9.7,7.8t-11.85-2.9l-5,.55-6.1,1.35q-2.45,5.36-9.8,6.45-8.15,1.2-13.85-5.35-4.35-5-2-11.7t9-8.1a201.56,201.56,0,0,0,10-20.5q5-11.74,7-15.55,4.2-8,8.15-28.5,3.94-20.7,2.65-28.3-.49-3-3.8-10.05a66.39,66.39,0,0,1-4.9-15.7q-3.6-19.09,10-43.8,12.75-23.25,30.05-33.8" transform="translate(-0.99 -0.03)" style="fill: #e6d4e7"/>
        <path id="Path-48" data-name="Path" d="M151.7,205.15Q144.05,226,142.15,244q-1.8,17.4.8,41.15,1.8,16.25,0,26.3-2,10.31-11.65,35.3-3.25,8.4-9.1,29.3-4.2,15-6.1,15.55a17.42,17.42,0,0,0-9.2,6.35q-5.35,7.05,2,15.8a15.31,15.31,0,0,1-8.25-5.1q-4.69-5.4-3.3-10.2,1.55-5.59,11.5-11.95,1.09-.7,6.5-13.4,6.65-15.6,9.15-20.3,4.2-8,8.15-28.5,3.94-20.7,2.65-28.3-.49-3-3.8-10.05a66.39,66.39,0,0,1-4.9-15.7q-2.81-14.7,5.1-33.7a104.94,104.94,0,0,1,20.1-31.35" transform="translate(-0.99 -0.03)" style="fill: #cea6cc"/>
        <path id="Path-49" data-name="Path" d="M153.5,405.55a14.36,14.36,0,0,1-9.35,3.25q-5.55,0-8.8-3.2l-5,.55-6.1,1.35-.3-2.6a13.75,13.75,0,0,0-1.1-4.4q1.15-1.1,6.25-1.95c3.7-.67,5.8-.38,6.3.85q1.65,3.94,6.7,5.6a24.24,24.24,0,0,0,11.45.55" transform="translate(-0.99 -0.03)" style="fill: #cea6cc"/>
        <path id="Path-50" data-name="Path" d="M148.35,360.6a6.7,6.7,0,0,1,3.65,2.3,12.53,12.53,0,0,1,2.85,5Q157,375.29,150,381l-1.6-20.4" transform="translate(-0.99 -0.03)" style="fill: #e6d4e7"/>
        <path id="Path-51" data-name="Path" d="M150,381l-.3-3.8a15.91,15.91,0,0,0,5.15-2.85A14.28,14.28,0,0,1,150,381" transform="translate(-0.99 -0.03)" style="fill: #cea6cc"/>
        <path id="Shape-6" data-name="Shape" d="M178.8,193.15q-5.3-3.79-11.85.15Q149.6,203.85,137,226.9q-13.25,24.35-9.7,43.15a65.94,65.94,0,0,0,2.75,10.35q.94,2.66,2.85,6.75l1.85,4.2A20.52,20.52,0,0,1,136,295.8q1.31,7.8-2.6,28.4t-8.3,28.9q-2.25,4.35-5.65,12.55l-5.15,11.7a60.13,60.13,0,0,1-4.85,9.2l-5.2,4.45a14.62,14.62,0,0,0-5,6.25,13.58,13.58,0,0,0-.8,6.05,9.5,9.5,0,0,0,2.15,5.3q5,5.75,13.5,4.55a12.42,12.42,0,0,0,5.4-2.15,11.54,11.54,0,0,0,3.45-3.8c.63-1.07.67-2.58.1-4.55-.47-1.5-.55-2.22-.25-2.15,1,.27,1.67,1.3,2.1,3.1l.3,2.6a31.18,31.18,0,0,1,8.7-1.3c-1.37-1.73-1.9-2.82-1.6-3.25.2-.27.57-.1,1.1.5L135.9,405a9.47,9.47,0,0,0,5,2.65,14.08,14.08,0,0,0,6.55,0q7.45-1.75,8.8-6.6a11.69,11.69,0,0,0-.15-7.5,9.19,9.19,0,0,0-5.3-5.45,11.36,11.36,0,0,0-5.45-.6c-1.53.17-2.2.07-2-.3.5-.87,1.68-1.33,3.55-1.4l2.65.15a127.2,127.2,0,0,1,0-46.85q4.45-23.1,18.1-45.5a68.58,68.58,0,0,1,5.15-7.1l5.1-6.4a78.26,78.26,0,0,0,6-8.8,41.63,41.63,0,0,0,3.85-10.75,111.2,111.2,0,0,0,2.1-40.85q-2.75-20.44-11.1-26.5m-12.7-1.25q7.46-4.54,13.65-.05t9.65,14.65q3.56,10.75,3.35,26.6-.19,17-.8,21.35-2.25,16.31-10.9,25.55-3.15,3.35-6.15,7.1a52.67,52.67,0,0,0-5.75,8.1,187.59,187.59,0,0,0-13.8,33,117.86,117.86,0,0,0-5.5,34.15q0,7.25.3,11.95a84.77,84.77,0,0,0,1.65,12l.1.55q7.46,4,7.7,10.1t-3.65,9.2a15.75,15.75,0,0,1-8.3,3.3q-8.15,1.05-12.55-3.05l-4.8.55-5.55,1.25a12.37,12.37,0,0,1-3.85,4.4,15,15,0,0,1-6.05,2.55q-10.09,2.1-16.35-4.35a10.49,10.49,0,0,1-2.65-5.25A13.78,13.78,0,0,1,97,397a19.44,19.44,0,0,1,4.55-6.2l5.9-4.55q1.69-1.31,4-7.2l3.8-10.2,8.35-19.35a158.58,158.58,0,0,0,7.5-26.8,140.47,140.47,0,0,0,3-26.55q0-1.31-1.9-5.2l-4-8.25q-5.81-12.34-5.05-20.25,2-20.55,14.9-41.15,12.41-19.75,28.1-29.35" transform="translate(-0.99 -0.03)" style="fill: #0d131a"/>
        <path id="Path-52" data-name="Path" d="M148.25,361.35l.25-1.45a9.36,9.36,0,0,1,4.2,2.1,12.36,12.36,0,0,1,3.55,5.1,11.77,11.77,0,0,1,.2,7,10.54,10.54,0,0,1-6,7.45l-.9-1.15a13,13,0,0,0,4.75-6.75,9.76,9.76,0,0,0,0-5.2,11.28,11.28,0,0,0-2.6-4.85,6.38,6.38,0,0,0-3.4-2.25" transform="translate(-0.99 -0.03)" style="fill: #0d131a"/>
        <path id="Shape-7" data-name="Shape" d="M169.6,137.45l-.4.25q-6.25,3.95-16.5,17.65-9.25,12.35-12.15,19.1-2.55,5.9-7,26T129.4,225.1q.25,3.71,4.85,7.3l6.6,5.15q1.6,2,2.25,7.8a67.14,67.14,0,0,0,.9,6.75,25.88,25.88,0,0,1,1.85,4.55,11.82,11.82,0,0,1,0,4.6c-.33,1.77-1.7,3.13-4.1,4.1a10.6,10.6,0,0,1-6.6.55,15,15,0,0,1,.8,5.45,7.91,7.91,0,0,1-2.9,5.3,8.11,8.11,0,0,1-7.15,2,7.77,7.77,0,0,1-5.25-3.2q-3.86-2-8.45-8.55-4.35,8.25-13.85,4.4-3.3-1.31-5.7-6A82,82,0,0,1,89.5,257a20.66,20.66,0,0,1-1.3-6.7,9.23,9.23,0,0,1,1.7-5.45l6.45-8a39.62,39.62,0,0,0,6.75-12.05q1.84-6,10.65-28.2,8.06-20.2,12-29.15,2.74-6.45,11.35-19l13.6-19.2a49.39,49.39,0,0,1,7.65-11.75q4.9-5.7,7.65-6.15,3.11-.5,4.45,1.9t2.7,10.45q1.16,6.7-1,10.9a6.63,6.63,0,0,1-2.45,2.85m-64.9,108.8q-3.26,2.7-3,3.85l1.25,3.7,2.85.4a8.62,8.62,0,0,1,4.7,2.55l-.65-8.35L109.3,244q-1.3-.45-4.6,2.3m20.5,7.7q-.95,5.81,1.15,7.8l3-.05a5.68,5.68,0,0,1,2.75.95,19.24,19.24,0,0,1-1.3-4.15,6.51,6.51,0,0,1,2.9-5.7c-1.63-2.37-3.08-3.83-4.35-4.4l-2.15-.1q-1,.25-2,5.65" transform="translate(-0.99 -0.03)" style="fill: #e6d4e7"/>
        <path id="Path-53" data-name="Path" d="M173.55,129.15a10.27,10.27,0,0,0-4.35-7.7,6.14,6.14,0,0,0-7.15-.2Q158.3,123.6,146,140.9q-12.85,18-15.5,25.7a271.2,271.2,0,0,0-8.2,31.35q-5.06,24-2.7,29.85c1.53,3.77,2.75,6.08,3.65,6.95a70.16,70.16,0,0,0,6,4.7,25.93,25.93,0,0,1,7.3,10c1.57,3.73,1.68,6,.35,6.7a6.92,6.92,0,0,0-3.1,2.9,8.72,8.72,0,0,0-.3,5.95,6.62,6.62,0,0,1-2.7-5.75A7.9,7.9,0,0,1,133.3,253a3.42,3.42,0,0,0-.75-1.45l-1.65-1.9a9.82,9.82,0,0,0-3.65-2.75,10.18,10.18,0,0,0-4.3-1c-1.47.1-2.83,1.25-4.1,3.45a19.66,19.66,0,0,0-2.25,9.4q0,5.81.6,7.45c.37.87,1.6,2.23,3.7,4.1a43.11,43.11,0,0,0,5.4,4.3,17.88,17.88,0,0,0,7.15,2.2q-6.7,2.55-11.75-.25a38.41,38.41,0,0,1-5.6-4.9,24.89,24.89,0,0,1-3.6-4.65,11,11,0,0,1-1.9-5.15l.1-9.65a18.11,18.11,0,0,0-.85-5.05,32,32,0,0,0-1.9-5.5q-.8-1.69-4.7,2a20,20,0,0,0-4.3,5.1c-.37.8-.13,2.68.7,5.65s1.63,4.73,2.4,5.5q.45.45,2.85,0c1.63-.3,3.32.28,5,1.75a27.89,27.89,0,0,0,1.8,5.65l-.8,1.6a9.25,9.25,0,0,1-4.2,2.85c-2.2.83-4.75.57-7.65-.8s-4.65-2.88-5.55-4.85-1.92-4.57-3-7.6a58,58,0,0,1-2.1-7.5q-.7-4.65,5.65-10.65a31,31,0,0,0,4.95-7.15l3.85-7.55q.64-1.25,5.1-14.8,4.4-13.35,6.75-17.75,1.7-3.19,6.2-15.15,3.94-10.65,6.45-14.2l9-13.65q6.4-9.9,9.1-13.25a91.08,91.08,0,0,0,7.25-11.95q4.6-8.55,6.1-10.25a10.55,10.55,0,0,1,5.85-3.45,5.76,5.76,0,0,1,5.55,1.35q1.25,1.24,2.75,5.75,2,6.15.55,10.85" transform="translate(-0.99 -0.03)" style="fill: #cea6cc"/>
        <path id="Path-54" data-name="Path" d="M168.85,137.1c1.2-.77,1.78-.87,1.75-.3a2.18,2.18,0,0,1-1,1.5q-6.9,5.05-16.6,17.95-8.85,11.75-11.8,18.5-2.55,5.81-6.95,25.85t-4.15,24.45a7.47,7.47,0,0,0,2.7,4.85l4.95,3.7a21.73,21.73,0,0,1,4.55,4.05,8.17,8.17,0,0,1,1.45,4.55l.3,5.55a15.46,15.46,0,0,0,1.15,4.55,20.23,20.23,0,0,1,1.75,4.4,12.53,12.53,0,0,1-.15,4.5,5.66,5.66,0,0,1-1.15,2.35l-2.1,2a10.83,10.83,0,0,1-7.4,1.55,9.16,9.16,0,0,1,.6,5.5A8,8,0,0,1,134.3,277q-2.06,1.8-6.3,2.05-5.06.35-7.8-2.65l-3.1-2.5-4.9-5.7a10.07,10.07,0,0,1-5.85,4.7,13.2,13.2,0,0,1-8.25-.9,11.65,11.65,0,0,1-5.8-5.7A54.68,54.68,0,0,1,88.65,256a28.82,28.82,0,0,1-1.3-6.7,7.72,7.72,0,0,1,2-4.9l7-9.25q5.1-7.2,6.05-10.55,1.69-6.15,10.35-28.3,7.95-20.4,11.85-29.25,2.15-5,13.2-20.7l12.25-17.85q4.75-9.45,6.35-11.8,4.75-7.05,9.5-7l1.2.1a5.85,5.85,0,0,1,1.65.85c.5.33.45.45-.15.35l-2.8.15q-4.4,1.55-8.8,8.4-2.35,3.7-5.7,10.05l-12.2,17.7q-10.54,15.3-12.75,20.4-3.64,8.4-11.75,29.15-8.55,21.94-10.45,28.1-2.25,7.35-12.4,19.75a9,9,0,0,0-2.1,4,12.31,12.31,0,0,0,.75,5.95,109.67,109.67,0,0,0,3.85,10.6q1.8,3.75,4.3,4.85a11.76,11.76,0,0,0,7.25,1,8.28,8.28,0,0,0,5.75-4.45l1.25-.1a64.43,64.43,0,0,0,8.45,8.55,11.64,11.64,0,0,0,5.9,2.05q3.49.3,5.15-1.2a7.51,7.51,0,0,0,2.8-4.75,12.77,12.77,0,0,0-.65-5l.85-.9a8.52,8.52,0,0,0,6.9-1,6.45,6.45,0,0,0,2.4-3.3q1.4-3.7-.85-8.4a13.9,13.9,0,0,1-1.15-4.65l-.65-5.4A10.44,10.44,0,0,0,140.3,238a21.38,21.38,0,0,0-4.35-3.7,46,46,0,0,1-5.2-4.1,8.91,8.91,0,0,1-2.85-5.65q-.25-4.35,4.55-24.45,4.8-19.84,7.4-25.9,3.35-7.65,11.7-19,9.9-13.5,17.3-18.05" transform="translate(-0.99 -0.03)" style="fill: #0d131a"/>
        <path id="Shape-8" data-name="Shape" d="M103.05,249.7l.55,3.25,2.65.55a13.16,13.16,0,0,1,3.4,1.6A85.22,85.22,0,0,0,108.3,245a20.64,20.64,0,0,0-3.75,2.75q-1.6,1.4-1.5,1.95m4.9-6.95c.17-1.77.38-2.53.65-2.3a7.58,7.58,0,0,1,.9,2.2l.85,2.8.7,4.55.35,8.9q.1,3.19-.65,1.1l-.8-2.75q-2.15-2.55-6.35-2.55a4.07,4.07,0,0,1-.7,2.35q-.5.4-.45-1.2a12.14,12.14,0,0,0-.7-3.75L101,250q-.19-1,2.25-3.3l4.7-3.95" transform="translate(-0.99 -0.03)" style="fill: #0d131a"/>
        <path id="Shape-9" data-name="Shape" d="M127.65,248.85a14.35,14.35,0,0,0-2,6c-.3,2.67,0,4.63,1,5.9a8.29,8.29,0,0,1,3.6.5q-1.55-5.35,2.55-8.55a14.71,14.71,0,0,0-3-2.7,7.11,7.11,0,0,0-2.15-1.15m7,4.3c.5.93.53,1.58.1,1.95s-.83,0-1.3-1a6.69,6.69,0,0,0-1.75,4.65,12.92,12.92,0,0,0,.85,3.5l-1,1a4.52,4.52,0,0,0-2.15-.85L127,262.3c1,1.2,1.32,1.83.85,1.9s-1.5-.9-2.8-3a8.93,8.93,0,0,1-1.25-3.25,10,10,0,0,1,.4-4.35,23.3,23.3,0,0,1,1.8-4.95,2.48,2.48,0,0,1,1.55-1.3,3.83,3.83,0,0,1,3.05.85,13.15,13.15,0,0,1,4.15,5" transform="translate(-0.99 -0.03)" style="fill: #0d131a"/>
        <path id="Path-55" data-name="Path" d="M131.05,260.05c.23-.5.52-.35.85.45a16.09,16.09,0,0,0,1.75,3,5.06,5.06,0,0,0,4.1,2.2c1,0,1.55.07,1.75.3s.07.43-.4.7a5,5,0,0,1-4.3.05,6.08,6.08,0,0,1-2.65-2.2A5.62,5.62,0,0,1,131,262a4.26,4.26,0,0,1,.1-1.9" transform="translate(-0.99 -0.03)" style="fill: #0d131a"/>
        <path id="Path-56" data-name="Path" d="M111.25,256.45l.2,4.8a9.48,9.48,0,0,0,.75,3.6A18.92,18.92,0,0,0,115,269.1c.9,1.53.92,2.13,0,1.8a7,7,0,0,1-2.9-2.75,12.69,12.69,0,0,1-1.95-3.6,8.42,8.42,0,0,1-.4-2.35l-.1-7.1a9.42,9.42,0,0,1,.5-3.5c.37-.6.73,1,1.1,4.85" transform="translate(-0.99 -0.03)" style="fill: #0d131a"/>
</svg>
