<?xml version="1.0" encoding="UTF-8"?>
<svg width="86px" height="82px" viewBox="0 0 86 82" version="1.1" xmlns="http://www.w3.org/2000/svg" xmlns:xlink="http://www.w3.org/1999/xlink">
    <title>Layer1000</title>
    <defs>
        <filter x="-17.9%" y="-19.5%" width="136.0%" height="138.5%" filterUnits="objectBoundingBox" id="filter-1">
            <feOffset dx="0" dy="2" in="SourceAlpha" result="shadowOffsetOuter1"></feOffset>
            <feGaussianBlur stdDeviation="2" in="shadowOffsetOuter1" result="shadowBlurOuter1"></feGaussianBlur>
            <feColorMatrix values="0 0 0 0 0   0 0 0 0 0   0 0 0 0 0  0 0 0 0.5 0" type="matrix" in="shadowBlurOuter1" result="shadowMatrixOuter1"></feColorMatrix>
            <feMerge>
                <feMergeNode in="shadowMatrixOuter1"></feMergeNode>
                <feMergeNode in="SourceGraphic"></feMergeNode>
            </feMerge>
        </filter>
    </defs>
    <g id="PokeGoals" stroke="none" stroke-width="1" fill="none" fill-rule="evenodd">
        <g id="Start-1" transform="translate(-19.000000, -468.000000)">
            <g id="USP-group" transform="translate(28.070423, 246.000000)">
                <g id="professor_oak" transform="translate(0.000000, 231.500000)" filter="url(#filter-1)">
                    <g id="Layer1000">
                        <path d="M13.9932731,10.4029775 L16.0307777,10.8189818 L17.8918448,11.3148419 L18.4855039,12.9944989 L19.4801836,15.1860557 L19.5122423,13.618391 L19.5122423,12.3385844 L19.5282717,11.5707918 L20.9562022,13.4424112 L20.2181643,11.6187396 L24.4215229,10.4189601 C24.4215229,10.4189601 26.796045,9.73119465 27.0206852,9.84312993 C27.2452109,9.9550652 28.6089667,11.1868669 29.0421604,11.7146923 C29.4752397,12.2427459 30.5502951,13.4103319 30.5662673,13.9383855 C30.5821821,14.4662679 30.3255977,19.745092 30.3255977,19.745092 C30.3255977,19.745092 31.0315197,20.2890141 31.0635784,20.800971 C31.0956372,21.3127567 30.9192569,24.1602279 30.9192569,24.1602279 C30.9192569,24.1602279 31.7855298,20.9130205 33.0691388,20.8489759 C34.3525188,20.7849884 35.1387022,22.3206879 35.2350501,23.2485348 C35.3312836,24.1762676 35.2671661,25.3119454 34.9300914,25.9360659 C34.5933029,26.5598439 33.0050213,28.7034529 33.0050213,28.7034529 C33.0050213,28.7034529 32.0422287,29.4872282 31.6251789,29.5032108 C31.2079,29.5192504 30.806994,29.2633576 30.806994,29.2633576 C30.806994,29.2633576 31.1117238,31.4230063 30.534094,31.7908344 C29.956636,32.1588337 26.7800157,34.6543453 26.7800157,34.6543453 L26.6034064,36.3659104 L26.5072874,37.6297345 L26.6836105,38.7014248 L24.967094,41.3410652 L22.1916087,44.6843395 L20.1379602,46.9398838 C20.1379602,46.9398838 18.5817374,44.7322873 17.9720489,44.1883652 C17.3625321,43.644386 16.5121168,42.9727173 16.0469216,42.5087082 C15.5815546,42.0446991 14.5548163,41.004974 14.5548163,41.004974 C14.5548163,41.004974 14.6831085,39.3733218 14.6670791,38.653477 C14.6510497,37.9336322 14.6670791,35.5021081 14.6670791,35.5021081 C14.6670791,35.5021081 13.3514686,34.3822416 12.5652853,33.9184037 C11.7792165,33.4543946 9.64536388,31.9987224 9.45289695,31.7588121 C9.26037278,31.5189019 9.06790585,31.4067954 9.1160512,31.006945 C9.16413931,30.6070946 9.42083821,28.2394438 9.42083821,28.2394438 C9.42083821,28.2394438 7.94476227,28.1594738 7.28698565,27.4717083 C6.62926627,26.7838857 5.93920191,26.1119887 5.97148964,24.3042426 C5.97148964,24.3042426 6.16389932,21.9367059 7.11049084,21.0729035 C8.05702511,20.2091011 8.4742467,20.1770789 9.01981774,20.7690058 C9.56515979,21.3607616 9.62933451,21.7767658 9.62933451,21.7767658 L9.46892632,17.5055304 C9.46892632,17.5055304 9.29243152,13.9863333 9.43686758,13.5864259 C9.58118916,13.1864613 10.7364487,9.85911253 11.1214398,9.77914245 L13.9932731,10.4029775 Z" id="path2" fill="#FAC670"></path>
                        <path d="M56.6425618,42.7650576 C56.6425618,42.7650576 56.5316095,41.985527 56.975249,41.3968058 C57.4191146,40.8080845 58.2590607,39.9012153 58.5125205,39.5671714 C58.766263,39.2329571 59.9864553,37.3396818 59.9864553,37.3396818 L61.1117557,35.1440978 L61.4762243,34.0622586 L61.6505132,31.5165643 L61.4920585,29.2254337 L61.0642532,27.4117521 C61.0642532,27.4117521 60.7788423,26.616212 60.1449101,26.7434371 C59.5111475,26.8707758 58.9722203,27.268631 59.0197793,28.3185645 C59.0672819,29.3687252 59.2732957,30.6096951 59.1306751,31.0710777 C58.9880545,31.5324035 58.0054878,34.5076316 57.8787579,34.1735877 C57.7518583,33.8394301 57.3240531,31.0392856 57.0545329,30.3869234 C56.7851258,29.734618 55.2003518,26.504883 54.0274924,27.1730844 C52.8548026,27.8413427 54.3286809,30.7688826 54.5505289,31.3256415 C54.7723203,31.8825139 55.2953568,33.7279875 55.1211244,34.3804065 C54.9468355,35.0327687 54.7564862,35.3986048 54.6772588,35.2554268 C54.598088,35.1122489 54.4871922,32.5825642 54.2494535,31.914306 C54.0118279,31.2461045 52.6962913,27.7299001 51.4917635,28.0799536 C50.2872923,28.4299504 50.2238991,29.7028259 50.5884242,30.48247 C50.9528928,31.2620005 51.3808678,32.5825642 51.3808678,32.5825642 L51.7453364,34.3804065 L51.7453364,34.9691278 L51.5234884,35.3828223 L51.1748539,35.2076819 L49.6375824,33.0916917 L48.4489454,31.6119973 L47.6406677,31.0869738 C47.6406677,31.0869738 46.9591764,30.8961077 46.6264327,31.4210745 C46.2934627,31.9461548 46.2459602,32.757591 46.5472053,33.1712854 C46.8482241,33.5848664 47.7357292,34.5076316 47.7357292,34.5076316 L48.9085887,35.478312 L49.3522281,36.7510173 L49.5266867,37.6419904 C49.5266867,37.6419904 48.7818022,38.7238864 48.7026314,39.5035304 C48.6232343,40.2831745 48.6707368,41.3809097 49.2730007,42.065064 C49.8752646,42.7491615 50.1605058,43.1788656 50.1922307,43.4174198 C50.2238991,43.6560307 50.2715712,44.006141 50.2715712,44.006141 C50.2715712,44.006141 51.8088993,43.2901947 53.4887914,43.067423 C55.168627,42.8445946 55.7233883,42.7650576 56.6425618,42.7650576 Z" id="path4" fill="#FAC670"></path>
                        <path d="M33.9003713,21.2895253 C33.9003713,21.2895253 33.3849991,20.9238341 32.9056654,21.0041875 C32.4261605,21.0845409 31.7908693,21.6631888 31.5152781,22.3504083 C31.2395157,23.0373985 30.7122828,24.4478561 30.7122828,24.4478561 L30.9040505,20.8796139 L30.6284592,20.3370993 L30.172904,19.8950122 L30.2807911,16.9494659 L30.4365775,13.9237957 L30.1968536,13.4295161 L28.8184981,11.705617 L27.5961,10.4518514 L26.8809768,9.94558471 L25.9062288,10.1505691 L22.1787615,11.0907786 L20.1411652,11.7418076 L20.6446196,13.2366334 L19.4100187,11.6453376 L19.3621195,15.2015927 C19.3621195,15.2015927 18.9186531,14.4903991 18.690904,13.9478845 C18.4632119,13.4054272 17.7880047,11.4243514 17.7880047,11.4243514 L12.1948649,10.0902323 L11.0442015,9.88129051 L10.7325718,10.3674832 L9.94149427,12.0673507 L9.34229853,13.8032369 L9.47402123,19.5294357 L9.59394021,21.7838049 C9.59394021,21.7838049 9.01869405,20.8434807 8.76693832,20.6987184 C8.51523962,20.5541281 8.01184221,20.5058931 8.01184221,20.5058931 C8.01184221,20.5058931 7.43659605,19.228096 6.88518542,18.5650226 C6.33394587,17.9019492 4.42824339,15.5994597 4.42824339,15.5994597 L2.83422761,13.9116939 L4.93158378,13.9357827 L2.71425161,11.6815282 L5.6506985,12.7423538 L3.12173665,9.34284807 L4.29629259,10.04194 L2.77418259,7.84796485 L8.3114971,5.90703702 L6.52559955,5.19584334 L9.71374515,4.99085897 L7.92796165,2.98976644 L13.0458163,2.29055982 L12.6142106,1.51897204 L11.5595737,0 L15.2151353,2.12176603 C15.2151353,2.12176603 17.6002856,3.4960331 18.103569,3.65283984 C18.6070234,3.80947451 23.7009285,4.87035753 23.7009285,4.87035753 L27.5482008,5.55751974 L29.5496446,6.03969758 C29.5496446,6.03969758 30.2687593,6.36518339 30.7841315,6.96797739 C31.2996178,7.57071403 32.6419919,9.45136246 33.1333575,10.5241752 C33.6247801,11.59716 33.864504,11.7297058 33.9243209,13.0317064 C33.9843089,14.3335923 33.9722771,18.3359495 33.9722771,18.3359495 L33.9003713,21.2895253 Z" id="path6" fill="#F2C28D"></path>
                        <path d="M26.6782913,35.572239 C26.6782913,35.572239 27.6939819,36.1310922 28.1860552,37.1373357 C28.6779587,38.1434082 30.1698657,41.7846442 30.1698657,41.7846442 L31.042731,44.0523676 C31.042731,44.0523676 29.487453,43.9724744 28.4240219,44.1002921 C27.3606474,44.2279958 26.916258,44.3237878 26.916258,44.3237878 L26.7734893,48.5719154 L26.6782913,61.6904699 L13.8862533,61.6273543 L14.0449921,44.2758633 C14.0449921,44.2758633 12.66414,43.9885442 11.6643063,44.0364117 C10.664416,44.0843362 9.28373378,44.3078319 9.28373378,44.3078319 L8.90271531,44.3556994 C8.90271531,44.3556994 8.855088,43.9885442 9.25196336,43.2059674 C9.64866882,42.4234475 11.6960201,38.7183882 11.6960201,38.7183882 C11.6960201,38.7183882 12.8545926,36.338803 13.2355544,36.0353002 C13.616403,35.7319113 14.2195312,35.2049128 14.2195312,35.2049128 L14.7750321,35.6201635 L14.7433183,39.7084479 L14.6639773,41.1138152 L16.2669391,42.7427352 L18.060297,44.3556994 L19.5045767,46.0805824 L20.187046,47.0387874 L22.313795,44.6752721 L23.7898452,42.9343762 L26.0752764,39.788284 L26.6465775,38.6864195 L26.5036956,38.0476162 L26.6782913,35.572239 Z" id="path8" fill="#8C3623"></path>
                        <path d="M28.1630267,36.8347699 L29.9035865,37.6999841 L32.5203083,38.8292153 L35.6412431,40.0426415 L39.1102556,41.1959938 L42.0029839,42.2653224 L44.4158848,43.3705468 C44.4158848,43.3705468 45.2080399,43.9592835 45.7841527,44.6440471 C46.3603798,45.328925 47.9567971,47.3231989 47.9567971,47.3231989 C47.9567971,47.3231989 48.0408612,45.2808543 48.1007682,45.2328409 C48.1608466,45.1845988 49.1692725,44.1995223 50.7777398,43.6590278 C52.3862071,43.1183046 54.5468586,42.5776386 56.2152901,42.6016454 C57.8837786,42.6257093 59.324175,42.6977295 59.9004591,42.7938136 C60.4764577,42.8898977 60.716657,42.9261364 60.716657,42.9261364 L61.2087058,48.2602619 L61.4326017,61.8291084 C49.5803351,61.7987483 41.8226762,61.7813609 38.1596248,61.7769461 C37.850748,61.7765739 37.174432,61.7835683 36.8819254,61.7680708 C31.3954605,61.4773882 27.9729742,61.4488995 26.6144665,61.6826046 L26.914687,45.5451571 L26.934618,44.2395336 C26.934618,44.2395336 28.3430905,43.9952936 29.1473527,43.9833474 C29.9515578,43.9712869 31.0958453,43.9672857 31.0958453,43.9672857 L29.7354013,40.4751629 L28.7511895,38.0723172 L28.1630267,36.8347699 Z" id="path10" fill="#FDFEFE"></path>
                        <path d="M13.5694387,61.6904699 L13.6653174,50.7853834 L13.7851516,44.2046432 C13.7851516,44.2046432 12.5383288,44.0245016 11.8190387,44.0364996 C11.0996915,44.0485547 9.88891596,44.1205428 9.54127713,44.2046432 C9.19358126,44.2886293 8.61015261,44.3366214 8.61015261,44.3366214 C8.61015261,44.3366214 9.01380151,43.0036418 9.31352949,42.5113804 C9.6131434,42.0190047 11.6992045,38.1401605 11.6992045,38.1401605 L12.790203,36.1828271 C12.790203,36.1828271 10.5124414,37.5278046 10.2845227,37.8640347 C10.056775,38.2002077 9.78111655,38.1882097 9.57715323,38.2843652 C9.37341805,38.3804065 5.42921454,39.8093701 5.42921454,39.8093701 L1,41.7059674 L1,61.6273543 L13.5694387,61.6904699 Z" id="path12" fill="#FDFEFE"></path>
                        <path d="M64.5311037,33.7459294 L66.3655975,32.1654004 C66.3655975,32.1654004 66.9052551,31.5381253 66.8573363,31.0434458 C66.8093033,30.5487089 65.8022085,23.780245 65.8022085,23.780245 L64.9387563,18.5803707 L55.5982289,20.0402433 L48.6558125,21.0536531 L41.6654201,22.1032828 L43.0803387,30.0903068 L43.9196033,34.5904088 C43.9196033,34.5904088 42.8764553,36.3881996 42.6486125,35.9296826 C42.4208268,35.4712804 41.1377992,28.4253987 41.1377992,28.4253987 L39.9987564,22.0670629 L39.8668655,20.921 C39.8668655,20.921 39.1953739,20.6312986 39.1834512,20.921 C39.1714145,21.2104719 39.4711355,23.828519 39.5310912,24.0578349 C39.5911609,24.2870934 40.9579894,31.2243155 40.9579894,31.2243155 L42.2768991,36.5087985 L47.9843209,35.7486981 L49.0156033,35.6161024 C49.0156033,35.6161024 49.1354575,35.5437201 48.8356223,35.2661302 C48.5359012,34.9885977 46.677505,33.2634189 46.6055697,32.9617206 C46.5335773,32.6601372 46.3056775,31.6226191 46.7614201,31.236427 C47.2169916,30.8504072 47.7804946,30.7658559 48.2721763,31.2605353 C48.763687,31.7553296 49.8669047,33.1307084 50.1785485,33.6252156 C50.4904204,34.1200099 51.0539234,34.8801103 51.2098308,35.0248175 C51.3656812,35.1695822 51.6813753,35.3869013 51.7852565,35.1334197 C51.8891948,34.8801103 51.8572489,33.7459294 51.6893618,33.0824918 C51.5215316,32.418882 51.1979082,31.453574 51.0658461,31.1640447 C50.9339551,30.8745155 50.4065053,29.4267544 50.5743925,28.9923457 C50.7421656,28.5581092 51.2578068,27.7256265 51.7732768,27.8824452 C52.288918,28.039264 52.7925795,28.4736153 53.2120977,29.1974385 C53.6319012,29.9214912 54.423247,31.5863993 54.4832026,31.9483108 C54.5431012,32.3102798 54.639053,33.4081261 54.6510327,33.8786972 C54.6630695,34.349211 54.7429343,35.1695822 54.8468155,35.1695822 C54.9506968,35.1695822 55.2626257,34.807728 55.2985078,34.3612077 C55.334504,33.9149171 55.1427145,32.2259007 54.9027779,31.5985108 C54.6630695,30.9711209 53.9316223,29.2456551 53.8596869,28.8114186 C53.7878086,28.3769525 53.6678403,27.3756542 53.9076628,27.182673 C54.1473712,26.9896344 54.7948464,26.724156 55.250589,27.1947271 C55.7061034,27.6652983 56.3536356,28.4131724 56.6415481,28.9441291 C56.9291753,29.4750284 57.2769294,30.2712338 57.3969547,30.7298082 C57.5168089,31.1882104 57.8524692,33.0101095 57.8524692,33.0101095 L58.0763757,34.0757539 L58.4520254,33.4443459 C58.4520254,33.4443459 59.3992216,31.0796083 59.3992216,30.7658559 C59.3992216,30.4522183 59.1593991,28.2563536 59.2313344,27.9910474 C59.3033268,27.7256265 59.4352178,26.6638278 60.1665509,26.5673372 C60.8979981,26.4708466 61.3177446,26.9051979 61.5335506,28.0995348 C61.7492996,29.2940439 61.8811905,30.9711209 61.8452514,31.9000368 C61.8092552,32.8290102 61.6654415,34.0717933 61.6654415,34.0717933 L64.5311037,33.7459294 Z" id="path30" fill="#9E3421"></path>
                        <path d="M64.9066603,18.6967464 C64.9066603,18.6967464 64.2402779,14.6333342 63.8592939,14.6689464 C63.4784231,14.7046152 56.1823629,15.6907348 56.1823629,15.6907348 L49.3267448,16.6412423 L42.4353954,17.6629742 C42.4353954,17.6629742 41.0903993,17.7579967 41.1380223,17.9956942 C41.1855887,18.2333352 41.8045179,22.1660562 41.8045179,22.1660562 L45.4823053,21.5956952 L52.2904136,20.5858906 L59.7531259,19.4690231 L64.9066603,18.6967464 Z" id="path32" fill="#005F72"></path>
                        <path d="M41.2494592,19.2323135 C41.2494592,19.2323135 40.9515027,20.245133 40.8274181,20.4357347 C40.7032154,20.6263931 40.2811743,20.9839555 40.2811743,20.9839555 L39.834328,21.0077665 L40.3183228,23.6768704 L41.5225516,30.0282947 L42.5404468,35.1879198 C42.5404468,35.1879198 42.676993,36.0101376 42.9501445,35.8314414 C43.2232369,35.6526885 44.0673192,34.5206438 44.0673192,34.5206438 L42.8134802,27.7880729 L41.5597593,20.9362767 L41.2494592,19.2323135 Z" id="path34" fill="#FCF9E8"></path>
                        <path d="M9.87777513,20.1229894 C9.87777513,20.1229894 10.2165866,19.3588483 10.6281116,18.9522406 C11.0394639,18.5455743 12.0074227,17.5103223 12.2374806,17.6090573 C12.4673658,17.7076165 13.5321608,18.4100188 13.750071,18.5825706 C13.9678661,18.7550051 15.8918663,20.3817291 16.194465,20.7020902 C16.4969485,21.0225686 18.6267689,23.2160222 18.3121376,23.1421469 C17.9974488,23.0682129 13.6532924,21.4168638 13.6532924,21.4168638 L9.87777513,20.1229894 Z" id="path36" fill="#5B492D"></path>
                        <path d="M21.2993278,23.143904 L25.8665927,21.4625095 L29.7402721,20.1032339 C29.7402721,20.1032339 29.6445365,19.6500664 29.2023211,19.2088124 C28.7598782,18.7676719 27.63608,17.7899692 27.3491576,17.9449017 C27.0620646,18.0998909 25.1014474,19.3758286 25.1014474,19.3758286 C25.1014474,19.3758286 23.0329783,21.021369 22.7458853,21.3075203 C22.4589629,21.5937284 21.0720767,23.155704 21.2993278,23.143904 Z" id="path38" fill="#5B492D"></path>
                        <path d="M28.1110454,22.3482229 C28.0761051,23.5651569 27.6339533,25.4257704 27.6339533,25.4257704 C27.6339533,25.4257704 24.7592191,25.3555123 24.5963677,25.3321301 C24.4332948,25.3087479 24.0842247,22.1141222 24.2470761,21.9971554 C24.4100382,21.8801885 27.3777988,20.8621706 27.3777988,20.8621706 C27.3777988,20.8621706 28.1459302,21.1312333 28.1110454,22.3482229 Z" id="path40" fill="#FFFFFE"></path>
                        <path d="M12.1572613,22.7615726 C12.1572613,22.7615726 12.145428,24.8090867 12.3119431,25.0680481 C12.4785714,25.3270094 12.6809259,25.4257704 12.9546198,25.4257704 C13.2282571,25.4257704 16.0368751,25.3516557 16.1201043,25.2653939 C16.2034468,25.1790148 16.5008639,22.4285552 16.3461821,22.3422935 C16.1915003,22.255973 12.5024078,20.8621706 12.5024078,20.8621706 L12.1572613,22.7615726 Z" id="path42" fill="#FFFFFE"></path>
                        <path d="M15.7383181,23.5136151 C15.7264552,24.0742134 15.5729124,25.1115558 15.3838372,25.0996982 C15.1948182,25.0877271 15.1002525,24.1218708 15.088502,23.6567575 C15.0766391,23.1917576 15.1829553,22.178017 15.4193134,22.1661026 C15.5608808,22.1590675 15.7500685,22.953187 15.7383181,23.5136151 Z" id="path44" fill="#594525"></path>
                        <path d="M25.178761,22.9812534 C25.1446977,23.7958867 25.0082285,24.7985261 24.860513,24.7733633 C24.7127975,24.7483196 24.5196103,23.557853 24.5309106,23.1817216 C24.5423191,22.8055902 24.6786261,21.5399331 24.8036328,21.5148895 C24.9379393,21.4879378 25.2128783,22.16662 25.178761,22.9812534 Z" id="path46" fill="#594525"></path>
                        <line x1="15.4132251" y1="22.1660562" x2="15.4132251" y2="23.4699419" id="path48" stroke="#FFFFFF" stroke-width="0.53140002" stroke-linecap="round" stroke-linejoin="round"></line>
                        <line x1="24.8423757" y1="21.8400848" x2="24.8697274" y2="23.1439705" id="path50" stroke="#FFFFFF" stroke-width="0.53140002" stroke-linecap="round" stroke-linejoin="round"></line>
                        <path d="M19.3206016,29.3487186 C19.8811364,29.2328342 20.8835859,30.0447607 20.5602399,30.1478304 C20.2367401,30.2509001 19.3313199,30.3153416 19.3313199,30.3153416 L19.3206016,29.3487186 Z" id="path54" fill="#EF8323"></path>
                        <path d="M21.2742898,23.1439705 C21.8762547,21.4266795 26.9769038,17.9766947 27.4045532,17.9294185 C27.8322026,17.8821984 29.8756614,19.5362484 29.7331682,20.0719145 C29.0203061,20.2452233 22.6208259,22.529548 21.2742898,23.1439705 Z" id="path56" stroke="#1B1918" stroke-width="0.53140002" stroke-linecap="round" stroke-linejoin="round"></path>
                        <path d="M27.3530697,20.8621706 C27.8922904,21.0351512 28.6059699,22.0260573 27.622765,25.4237063 C26.084608,25.4393654 24.5304369,25.3607889 24.5304369,25.3607889" id="path58" stroke="#1B1918" stroke-width="0.53140002" stroke-linecap="round" stroke-linejoin="round"></path>
                        <path d="M24.8182109,21.5148969 C25.3583678,21.455673 25.2290889,24.7738275 24.86746,24.7738275 C24.506007,24.7738275 24.3582011,21.5652491 24.8182109,21.5148969 Z" id="path60" stroke="#1B1918" stroke-width="0.53140002" stroke-linecap="round" stroke-linejoin="round"></path>
                        <path d="M28.6852751,25.4257704 C28.9719594,25.6503166 28.3987855,26.2594397 28.1121986,26.4036846" id="path62" stroke="#1B1918" stroke-width="0.53140002" stroke-linecap="round" stroke-linejoin="round"></path>
                        <path d="M22.9023633,25.4257704 C22.9023633,25.4257704 24.7289205,26.3163809 25.1816663,26.4036846" id="path64" stroke="#1B1918" stroke-width="0.53140002" stroke-linecap="round" stroke-linejoin="round"></path>
                        <path d="M20.0953918,19.5582849 C20.0223238,19.936669 19.9310866,22.6813182 20.5516431,23.4699419" id="path66" stroke="#1B1918" stroke-width="0.53140002" stroke-linecap="round" stroke-linejoin="round"></path>
                        <path d="M18.5037,20.5361991 C18.394033,21.2449645 18.4306972,22.8766185 18.8868834,23.4699419" id="path68" stroke="#1B1918" stroke-width="0.53140002" stroke-linecap="round" stroke-linejoin="round"></path>
                        <path d="M18.3272495,23.1439705 C18.6964221,22.8671215 12.7581525,17.1995484 12.0800593,17.625281 C11.4020236,18.0511305 9.6584623,19.8359822 9.9006796,20.1472474 C11.1920636,20.2946119 16.9390362,22.718121 18.3272495,23.1439705 Z" id="path70" stroke="#1B1918" stroke-width="0.53140002" stroke-linecap="round" stroke-linejoin="round"></path>
                        <path d="M12.837938,20.8621706 C12.4938249,21.4424887 12.2434593,24.9740936 12.8536835,25.3552731 C13.2604997,25.5211628 16.3275337,25.3552731 16.3900692,25.2558221" id="path72" stroke="#1B1918" stroke-width="0.53140002" stroke-linecap="round" stroke-linejoin="round"></path>
                        <path d="M15.4378418,22.1660562 C15.8365128,22.1660562 15.8528105,25.0770922 15.4046538,25.0997347 C15.0891307,25.115664 14.8729345,22.1660562 15.4378418,22.1660562 Z" id="path74" stroke="#1B1918" stroke-width="0.53140002" stroke-linecap="round" stroke-linejoin="round"></path>
                        <path d="M11.1802339,24.7738275 C11.1802339,24.7738275 11.4141857,26.0117503 12.1570781,26.0777132" id="path76" stroke="#1B1918" stroke-width="0.53140002" stroke-linecap="round" stroke-linejoin="round"></path>
                        <path d="M17.3669133,25.4257704 C17.3669133,25.4257704 15.9504066,25.9866652 15.4132251,26.0777132" id="path78" stroke="#1B1918" stroke-width="0.53140002" stroke-linecap="round" stroke-linejoin="round"></path>
                        <path d="M18.9944834,27.3815989 C19.0050348,28.3134427 18.8459043,29.3949925 18.8776092,29.5215446 C18.9095666,29.6480967 18.9520755,30.3153416 18.9520755,30.3153416 L18.0181428,28.9232684 C18.0181428,28.9232684 18.5063383,29.0267215 18.9944834,27.3815989 Z" id="path80" stroke="#1B1918" stroke-width="0.53140002" fill="#1B1918" stroke-linejoin="round"></path>
                        <path d="M15.0842728,31.9451987 C14.8470951,32.0849798 14.1716399,32.3642652 14.5550838,32.9231129" id="path82" stroke="#1B1918" stroke-width="0.53140002" stroke-linecap="round" stroke-linejoin="round"></path>
                        <path d="M25.505271,32.5971415 C25.7972823,32.6807071 25.6876804,33.1154152 25.3410961,33.2490843" id="path84" stroke="#1B1918" stroke-width="0.53140002" stroke-linecap="round" stroke-linejoin="round"></path>
                        <path d="M15.4132251,32.5483978 C17.8082423,31.375306 24.2590126,32.1411873 24.5304369,32.9231129" id="path86" stroke="#1B1918" stroke-width="0.53140002" stroke-linecap="round" stroke-linejoin="round"></path>
                        <path d="M18.0181428,33.7972253 C18.7507993,33.7242078 21.5022697,34.0165389 22.2511339,34.0165389" id="path88" stroke="#1B1918" stroke-width="0.53140002" stroke-linecap="round" stroke-linejoin="round"></path>
                        <path d="M30.5157821,27.0178038 C30.5157821,27.0178038 30.8964398,31.3514005 30.6109324,31.6725285 C30.3253117,31.9934848 28.0410822,33.7270151 26.8989958,34.5937802 C25.7568527,35.4604881 23.5042645,37.7074109 23.2188137,37.7074109 C22.9333062,37.7074109 17.7302102,37.9643936 17.3176847,37.6753382 C16.9053291,37.3864547 14.2085175,35.1072873 13.0347332,34.3047821 C11.8608357,33.5022197 9.16419396,31.8972094 9.22764635,31.2871978 C9.29104214,30.6774152 9.86200045,25.7978952 9.83030256,23.7433514 C9.79854806,21.6890366 9.35449453,14.5304065 9.57654959,13.5993813 C9.79854806,12.6684708 11.0042001,9.74721908 11.2580097,9.77914245 C11.5118758,9.81147906 17.9205107,11.3202712 17.9205107,11.3202712 C17.9205107,11.3202712 18.8088442,14.2414084 19.5068205,15.2365789" id="path90" stroke="#1B1918" stroke-width="0.53140002" stroke-linecap="round" stroke-linejoin="round"></path>
                        <polyline id="path92" stroke="#1B1918" stroke-width="0.53140002" stroke-linecap="round" stroke-linejoin="round" points="19.3206016 15.3206565 19.3206016 11.7349709 20.9486751 13.7132802 20.0992152 11.8586153"></polyline>
                        <path d="M20.2974457,11.8581933 C20.2974457,11.8581933 26.3608073,10.0736409 26.9990559,10.1055364 C27.6373045,10.137375 30.573248,13.5152777 30.6049612,14.1207793 C30.636959,14.7262808 30.2859508,19.8567837 30.3816596,19.9841949 C30.4773684,20.1118903 31.0518491,20.5896964 31.083733,20.9084802 C31.115617,21.2271503 30.8923154,24.8280937 30.8923154,24.8280937 C30.8923154,24.8280937 31.7539225,20.3348741 33.6367274,21.1315777 C35.5195892,21.9282244 35.4877053,24.9874003 34.9770494,25.9751922 C34.4665644,26.963041 32.4560529,30.5004209 30.8923154,29.4807336" id="path94" stroke="#1B1918" stroke-width="0.53140002" stroke-linecap="round" stroke-linejoin="round"></path>
                        <path d="M9.55216042,21.8734274 C9.55216042,21.8734274 9.04747822,20.4747304 8.16408735,20.5383024 C7.2805839,20.6018743 5.67157868,22.5091472 6.01865324,25.2743867 C6.3656715,28.039853 8.8580676,28.3894138 9.29981932,28.3576562" id="path96" stroke="#1B1918" stroke-width="0.53140002" stroke-linecap="round" stroke-linejoin="round"></path>
                        <path d="M7.59847219,23.6750656 C7.59847219,23.6750656 7.92122897,22.5256095 8.34091644,22.4927361 C8.76048874,22.4599213 9.85817278,23.5765625 9.47068035,23.8720717 C9.08347589,24.1678152 8.40553691,25.1859534 8.53460507,25.5472679 C8.66373081,25.9084653 10.2132398,26.269897 9.08347589,26.729656" id="path98" stroke="#1B1918" stroke-width="0.53140002" stroke-linecap="round" stroke-linejoin="round"></path>
                        <path d="M33.3220339,23.3730056 C33.3220339,23.3730056 33.105061,23.0902518 32.8572341,23.1530797 C32.6091307,23.2159077 31.8343538,24.2524851 31.8343538,24.629565 C31.8343538,25.0064768 33.0740964,25.3832764 32.7022455,26.1374362 C32.3303393,26.8913718 31.7724247,26.7341618 31.5864716,26.9541437 C31.4005738,27.1740697 31.028557,28.6504428 32.0824019,27.7395214" id="path100" stroke="#1B1918" stroke-width="0.53140002" stroke-linecap="round" stroke-linejoin="round"></path>
                        <path d="M34.1634553,21.188142 C34.1634553,21.188142 34.5491181,13.1709857 34.0187887,11.8824716 C33.4884593,10.5940142 31.5602597,6.82399936 29.9212212,6.2037235 C28.2820108,5.58333412 20.1832055,4.53344004 18.3031708,3.77001487 C16.422964,3.00630589 11.5058487,0 11.5058487,0 C11.5058487,0 13.3377185,2.19520212 13.4341056,2.86321334" id="path102" stroke="#1B1918" stroke-width="0.53140002" stroke-linecap="round" stroke-linejoin="round"></path>
                        <polyline id="path104" stroke="#1B1918" stroke-width="0.53140002" stroke-linecap="round" stroke-linejoin="round" points="13.1339222 2.28179991 7.85896395 3.00617445 9.76385355 4.98618513 6.29601337 5.17929807 8.35961472 5.86748547"></polyline>
                        <path d="M9.22654571,5.86748547 C9.22654571,5.86748547 2.85586349,7.91537614 2.90306745,8.05829571 C2.95021528,8.20110198 4.88501631,10.6299982 4.5074969,10.3442724 C4.13003361,10.0585465 3.04473545,9.29647877 3.04473545,9.29647877 C3.04473545,9.29647877 6.25359435,13.2018706 5.6872591,12.8684483 C5.12097998,12.5350826 2.71425161,11.7254316 2.71425161,11.7254316 C2.71425161,11.7254316 5.35699977,14.1067447 5.02662819,14.0591048 C4.69631273,14.0114083 2.95021528,14.0114083 2.95021528,14.0114083 C2.95021528,14.0114083 7.57491231,18.6788679 8.09387521,20.5361991" id="path106" stroke="#1B1918" stroke-width="0.53140002" stroke-linecap="round" stroke-linejoin="round"></path>
                        <path d="M7.27285748,18.6397842 C7.5706104,18.6124026 9.24296385,19.0096966 9.55216042,19.1742469" id="path108" stroke="#1B1918" stroke-width="0.53140002" stroke-linecap="round" stroke-linejoin="round"></path>
                        <path d="M7.59847219,19.3872537 C7.8480473,19.3736281 8.74885182,19.6613304 8.90093101,19.7297844" id="path110" stroke="#1B1918" stroke-width="0.53140002" stroke-linecap="round" stroke-linejoin="round"></path>
                        <path d="M7.92408689,20.1471736 C8.11951768,20.1060361 8.95291783,20.188246 9.22654571,20.2841468" id="path112" stroke="#1B1918" stroke-width="0.53140002" stroke-linecap="round" stroke-linejoin="round"></path>
                        <path d="M30.3915016,19.2323135 C30.7520734,19.104096 33.4732098,18.6152635 33.9732633,18.5803707" id="path114" stroke="#1B1918" stroke-width="0.53140002" stroke-linecap="round" stroke-linejoin="round"></path>
                        <path d="M30.7171163,19.8322965 C30.7171163,19.8322965 33.3366988,19.3664833 33.9732633,19.2842733" id="path116" stroke="#1B1918" stroke-width="0.53140002" stroke-linecap="round" stroke-linejoin="round"></path>
                        <line x1="31.042731" y1="20.7554801" x2="33.3220339" y2="20.3169182" id="path118" stroke="#1B1918" stroke-width="0.53140002" stroke-linecap="round" stroke-linejoin="round"></line>
                        <path d="M14.8117871,35.5308842 C14.8117871,35.5308842 14.8528796,40.3335565 14.706874,41.0723983" id="path120" stroke="#1B1918" stroke-width="0.53140002" stroke-linecap="round" stroke-linejoin="round"></path>
                        <path d="M26.6248873,34.8789414 C26.6248873,34.8789414 26.1457127,38.047746 26.4376589,38.7905984" id="path122" stroke="#1B1918" stroke-width="0.53140002" stroke-linecap="round" stroke-linejoin="round"></path>
                        <path d="M14.1107663,40.5849923 C14.3360271,41.0908995 16.2344409,42.8614901 17.3928923,43.8099039 C18.5511142,44.7583741 20.095563,46.9398838 20.095563,46.9398838 C20.095563,46.9398838 28.1073054,38.6881647 26.6273234,37.4867127" id="path124" stroke="#1B1918" stroke-width="0.53140002" stroke-linecap="round" stroke-linejoin="round"></path>
                        <path d="M26.6403374,35.5308842 C27.32005,36.0074972 27.9674778,36.7066542 28.3883347,37.5329306 C28.8090762,38.3593205 31.042731,43.9843281 31.042731,43.9843281 C31.042731,43.9843281 25.4749673,43.3486741 19.971831,46.9398838" id="path126" stroke="#1B1918" stroke-width="0.53140002" stroke-linecap="round" stroke-linejoin="round"></path>
                        <path d="M13.9857653,35.2049128 C13.9857653,35.2049128 12.9614738,35.9324937 12.6414791,36.4702365 C12.3212559,37.0080357 7.99969955,44.4727228 8.63991743,44.3144303 C9.28024953,44.1563636 14.850088,42.8596073 19.971831,46.9398838" id="path128" stroke="#1B1918" stroke-width="0.53140002" stroke-linecap="round" stroke-linejoin="round"></path>
                        <path d="M28.1121986,36.8347699 C29.197712,37.6567169 35.5911165,40.1656431 38.081298,40.9243157 C40.5717073,41.6828755 44.0197517,42.8839613 45.0413544,43.8323444 C46.0630711,44.7805582 47.9746956,47.2658552 47.9746956,47.2658552" id="path130" stroke="#1B1918" stroke-width="0.53140002" stroke-linecap="round" stroke-linejoin="round"></path>
                        <path d="M48.1750331,45.3401786 C48.7503819,44.6336223 53.2257609,41.7423466 60.7060371,43.0273644" id="path132" stroke="#1B1918" stroke-width="0.53140002" stroke-linecap="round" stroke-linejoin="round"></path>
                        <path d="M36.7666435,61.7680708 L26.6144665,61.6826046 L26.9513357,44.3321124" id="path136" stroke="#1B1918" stroke-width="0.53140002" stroke-linecap="round" stroke-linejoin="round"></path>
                        <path d="M29.7402721,37.8126841 C30.8699268,39.621427 34.7300469,48.6063707 34.2592828,48.9871319 C33.7885747,49.3680629 30.0579595,51.9503877 29.9638403,52.8073692" id="path142" stroke="#1B1918" stroke-width="0.53140002" stroke-linecap="round" stroke-linejoin="round"></path>
                        <path d="M44.0962043,44.3344233 C44.0050942,45.3401786 44.1243639,48.5597273 44.0673192,51.8317658 C44.0050942,55.400936 44.368876,60.8820071 44.3197725,61.3291084" id="path142-copy" stroke="#1B1918" stroke-width="0.53140002" stroke-linecap="round" stroke-linejoin="round"></path>
                        <path d="M1.06731917,42.0503125 C0.97620903,43.0560679 1.12436394,46.5597273 1.06731917,49.8317658 C1.00509421,53.400936 1.04910354,61.2433687 1,61.6904699 L1.06731917,42.0503125 Z" id="path142-copy-4" stroke="#1B1918" stroke-width="0.53140002" stroke-linecap="round" stroke-linejoin="round"></path>
                        <path d="M1,61.7059087 C2.64502513,61.7129211 62.6448262,61.7227038 61.3610771,61.7002527 L1,61.7059087 Z" id="path142-copy-3" stroke="#1B1918" stroke-width="0.53140002" stroke-linecap="round" stroke-linejoin="round"></path>
                        <path d="M48.0114586,45.6387711 C47.9203484,46.6445264 48.0396182,49.8640751 47.9825734,53.1361136 C47.9203484,56.7052838 48.1565984,61.2601162 48.1074949,61.7072175" id="path142-copy-2" stroke="#1B1918" stroke-width="0.53140002" stroke-linecap="round" stroke-linejoin="round"></path>
                        <path d="M27.4609692,52.329455 C27.4609692,52.329455 30.2667346,55.4553758 35.8782654,61.7072175 L44.5588368,61.7072175 L61.4326017,61.7072175 L60.7060371,43.0282268" id="path144" stroke="#1B1918" stroke-width="0.53140002" stroke-linecap="round" stroke-linejoin="round"></path>
                        <path d="M13.1339222,36.1828271 C12.8455245,36.3756164 10.6351045,37.5312643 10.4428965,38.1091168 C10.2507457,38.6870267 4.86892295,49.2809903 5.34952857,49.7624481 C5.82996273,50.2440779 9.38583847,52.459208 9.86627263,53.1333407" id="path146" stroke="#1B1918" stroke-width="0.53140002" stroke-linecap="round" stroke-linejoin="round"></path>
                        <path d="M13.1339222,50.5255693 C13.1339222,50.5255693 4.34668213,61.1289147 4.54036088,61.7072175" id="path148" stroke="#1B1918" stroke-width="0.53140002" stroke-linecap="round" stroke-linejoin="round"></path>
                        <path d="M10.4428965,38.1091168 C10.4428965,38.1091168 0.846723718,41.4720098 1.04040247,42.0503125" id="path148-copy" stroke="#1B1918" stroke-width="0.53140002" stroke-linecap="round" stroke-linejoin="round"></path>
                        <line x1="13.7851516" y1="61.6904699" x2="14.1107663" y2="45.0046184" id="path154" stroke="#1B1918" stroke-width="0.53140002" stroke-linecap="round" stroke-linejoin="round"></line>
                        <path d="M50.6433985,46.2978589 C51.5584313,46.4489304 51.3739765,49.412991 50.302354,49.211901 C49.2309632,49.0110501 49.4257299,46.097008 50.6433985,46.2978589 Z" id="path204" stroke="#1B1918" stroke-width="0.53140002" stroke-linecap="round" stroke-linejoin="round"></path>
                        <path d="M50.4944871,51.529331 C51.3230299,51.204578 52.1731361,54.0404648 50.9261006,54.4056762 C49.6791222,54.7710505 49.6791222,51.8488706 50.4944871,51.529331 Z" id="path206" stroke="#1B1918" stroke-width="0.53140002" stroke-linecap="round" stroke-linejoin="round"></path>
                        <path d="M56.6707038,42.4844418 C56.3849616,41.5278368 57.5277604,40.427633 58.48014,39.3274861 C59.4326895,38.227396 61.099283,35.1659642 61.4326017,34.0179699 C61.765977,32.8699757 61.9563396,26.125609 60.14696,26.4125791 C58.3373539,26.6994923 59.33731,29.6172684 59.1944105,30.5263105 C59.0516244,31.4351251 58.0992448,33.9223322 57.9088256,33.8745418 C57.718293,33.8266944 57.5277604,30.8610711 56.8611231,29.5216875 C56.194429,28.1823609 54.8135211,26.2212467 53.9087747,26.9387289 C53.0040282,27.656268 54.0517307,29.8086576 54.4802024,30.7653764 C54.9087874,31.7219814 55.6231712,34.448482 54.7182548,34.9746318 C54.4325693,35.0224222 54.6706217,32.4873678 54.1469404,31.243622 C53.6230891,30.0000469 52.3373342,26.9387289 51.0515793,27.9431812 C49.7659377,28.9476335 50.7658937,30.5741009 51.0515793,31.243622 C51.3373781,31.9133707 52.1468583,34.8311468 51.4801643,35.0703265 C50.8135269,35.309563 48.1945538,29.2825647 46.718323,31.0523465 C45.2422055,32.8220715 48.6230255,34.735509 48.8611912,35.2139253 C49.0993003,35.6921709 49.7183612,37.0314975 49.4325057,37.4621234 C49.1468768,37.8925217 48.33734,39.471028 48.7658117,40.7625073 C49.1945099,42.0538729 50.3372521,42.62787 50.2896756,43.6801696" id="path208" stroke="#1B1918" stroke-width="0.53140002" stroke-linecap="round" stroke-linejoin="round"></path>
                        <line x1="61.6505132" y1="34.0928939" x2="64.5810456" y2="33.7091604" id="path210" stroke="#1B1918" stroke-width="0.53140002" stroke-linecap="round" stroke-linejoin="round"></line>
                        <path d="M64.5576966,33.6239648 C64.5576966,33.6239648 66.9533489,31.8842919 66.8575501,30.9662909 C66.7617514,30.0481174 64.5576966,14.24651 63.8869345,14.343184 C63.2161153,14.4399155 41.1279244,17.3874967 41.0321256,17.6775188 C40.9363269,17.9674259 43.9069426,34.5420808 43.9069426,34.5420808 C43.9069426,34.5420808 42.8529285,36.4750444 42.5653613,35.6534874 C42.2779081,34.8320455 39.834328,20.915122 39.834328,20.915122" id="path212" stroke="#1B1918" stroke-width="0.53140002" stroke-linecap="round" stroke-linejoin="round"></path>
                        <path d="M41.1511958,19.2323135 C40.5330404,21.8311074 39.8195622,20.7241745 39.2487571,20.9167816 C38.678065,21.109217 42.0074036,36.5567667 42.2927496,36.5087985 C42.5781522,36.460549 48.9515397,35.6424409 48.9515397,35.6424409" id="path214" stroke="#1B1918" stroke-width="0.53140002" stroke-linecap="round" stroke-linejoin="round"></path>
                        <line x1="44.7185486" y1="34.4462144" x2="47.6490809" y2="34.0077828" id="path216" stroke="#1B1918" stroke-width="0.53140002" stroke-linecap="round" stroke-linejoin="round"></line>
                        <line x1="51.0938566" y1="33.6025677" x2="51.3678288" y2="33.5475438" id="path218" stroke="#1B1918" stroke-width="0.53140002" stroke-linecap="round" stroke-linejoin="round"></line>
                        <line x1="62.6273574" y1="32.2711701" x2="66.2091191" y2="31.6192273" id="path220" stroke="#1B1918" stroke-width="0.53140002" stroke-linecap="round" stroke-linejoin="round"></line>
                        <line x1="59.3712103" y1="30.1509216" x2="57.4175221" y2="30.4797616" id="path222" stroke="#1B1918" stroke-width="0.53140002" stroke-linecap="round" stroke-linejoin="round"></line>
                        <line x1="41.7880162" y1="22.1660562" x2="64.9066603" y2="18.5803707" id="path224" stroke="#1B1918" stroke-width="0.53140002" stroke-linecap="round" stroke-linejoin="round"></line>
                    </g>
                </g>
            </g>
        </g>
    </g>
</svg>